<svg xmlns="http://www.w3.org/2000/svg" width="448.12" height="425.78"><switch><g><path fill="#EA3538" d="M1 132.52V29.8c1.641-.177 3.285-.33 4.922-.536 2.217-.278 4.428-.606 6.644-.894 2.103-.272 4.21-.508 6.313-.781 2.216-.288 4.427-.611 6.643-.898 2.103-.272 4.211-.505 6.313-.78 2.176-.285 4.346-.617 6.522-.898 2.143-.277 4.291-.508 6.435-.778 2.257-.285 4.511-.598 6.768-.888 2.065-.266 4.134-.506 6.198-.777 2.217-.291 4.43-.614 6.646-.902 2.104-.273 4.213-.508 6.318-.781 2.217-.288 4.43-.611 6.647-.899 2.104-.273 4.213-.51 6.317-.783 2.217-.288 4.43-.61 6.647-.898 2.104-.273 4.212-.511 6.316-.784 2.218-.288 4.431-.608 6.648-.896 2.104-.273 4.212-.514 6.317-.786 2.217-.288 4.431-.606 6.648-.894 2.104-.273 4.212-.515 6.316-.788 2.218-.288 4.432-.604 6.648-.892 2.104-.273 4.212-.517 6.316-.79 2.218-.288 4.432-.603 6.649-.89 2.104-.273 4.212-.515 6.315-.792 2.138-.283 4.271-.612 6.41-.884 2.146-.272 4.301-.469 6.445-.752 2.798-.37 5.585-.814 8.384-1.183 2.143-.282 4.298-.468 6.441-.748 2.797-.366 5.585-.807 8.382-1.172 2.727-.356 5.463-.633 8.189-.989 2.797-.365 5.584-.811 8.382-1.17 2.806-.36 5.634-.567 8.427-1.006 3.527-.556 7.083-.886 10.605-1.443.859-.138 1.795.064 2.589-.448h3.6c.521.654 1.398-.145 1.928.472l-31.448 18.2-6.076.804c-2.92.386-5.847.721-8.756 1.177-1.543.242-3.13.23-4.628.748-2.417-.095-4.757.545-7.143.767-2.186.204-4.356.569-6.536.846-2.105.267-4.215.499-6.319.769-2.256.291-4.507.618-6.763.911-2.065.268-4.134.501-6.2.77-2.256.293-4.507.617-6.763.91-2.065.269-4.135.497-6.199.772-2.76.368-5.513.787-8.274 1.144-2.728.354-5.465.634-8.193.989-2.799.365-5.588.81-8.388 1.169-2.808.36-5.625.636-8.433.992-2.879.365-5.75.794-8.627 1.171-2.104.276-4.216.49-6.32.773-2.68.361-5.351.796-8.033 1.143-2.807.363-5.632.59-8.431 1.003-2.99.442-5.992.785-8.984 1.196-1.414.195-2.866.225-4.241.687-1.755-.081-3.458.375-5.187.552-3.446.353-6.869.934-10.307 1.379-3.363.436-6.737.795-10.1 1.232-3.398.442-6.787.957-10.184 1.404-1.639.216-1.645.179-1.645 1.825 0 25.862 0 51.725-.002 77.588 0 .559-.032 1.117-.049 1.676-2.289 1.033-4.351 2.472-6.555 3.659-2.863 1.543-5.567 3.374-8.504 4.792z"/><path fill-rule="evenodd" clip-rule="evenodd" fill="#9B3895" d="M438.752 394.338c-1.627.245-3.252.503-4.882.731a670.55 670.55 0 01-6.77.909c-2.066.268-4.135.508-6.201.776-2.257.294-4.511.616-6.769.908-2.066.268-4.137.503-6.203.772-2.257.293-4.51.624-6.768.911-2.022.258-4.048.479-6.073.717-.057-.228-.064-.484-.177-.679-2.152-3.716-4.343-7.41-6.455-11.148-.434-.768-1.151-1.462-1.05-2.474 1.333-.172 2.664-.354 3.998-.513 2.826-.337 5.657-.63 8.478-1 3.325-.436 6.638-.963 9.964-1.394 3.448-.446 6.917-.747 10.355-1.25 3.595-.527 7.196-.991 10.806-1.396 1.994-.224 1.999-.189 1.999-2.237 0-22.917-.002-45.834.001-68.751.001-4.878.024-9.757.037-14.636.495-.045.887-.321 1.303-.56 4.588-2.641 9.181-5.271 13.773-7.905v102.96c-.429-.002-.744.273-1.083.468-2.764 1.589-5.522 3.192-8.283 4.791z"/><path fill-rule="evenodd" clip-rule="evenodd" fill="#D2DF4F" d="M373.919 20.248c3.085.387 6.173.752 9.254 1.166 2.692.361 5.372.808 8.065 1.159 2.816.367 5.645.64 8.461 1.001 2.772.356 5.534.792 8.305 1.158 2.697.355 5.403.648 8.102.999 2.811.365 5.615.786 8.427 1.148 2.777.358 5.561.661 8.339 1.01 2.775.349 5.545.739 8.321 1.088 2.307.291 4.619.549 6.928.821v50.64c-2.32 1.308-4.638 2.621-6.962 3.921-2.708 1.515-5.318 3.206-8.11 4.573-.013-.521-.037-1.04-.037-1.559-.002-14.195-.002-28.391-.002-42.587 0-.28-.028-.563.005-.839.077-.635-.32-.867-.824-.936-.86-.119-1.73-.162-2.593-.266a675.983 675.983 0 01-6.334-.793c-2.186-.285-4.368-.595-6.554-.881-2.148-.281-4.3-.538-6.449-.818-2.147-.28-4.292-.586-6.439-.861-2.698-.346-5.399-.657-8.096-1.009-2.81-.368-5.613-.783-8.423-1.149-2.15-.28-4.309-.495-6.459-.775-2.81-.365-5.613-.785-8.424-1.144-2.776-.355-5.571-.586-8.336-1.016-2.88-.448-5.782-.723-8.655-1.192-.866-.142-1.813.07-2.614-.456 1.516-1.248 3.298-2.065 4.976-3.047 5.362-3.139 10.75-6.24 16.128-9.356z"/><path fill-rule="evenodd" clip-rule="evenodd" fill="#1D9960" d="M69.122 402.005c-2.252-.284-4.503-.565-6.755-.853-2.062-.263-4.128-.508-6.186-.805-2.871-.413-5.759-.678-8.625-1.152-2.748-.455-5.538-.656-8.305-1.009-2.799-.356-5.59-.775-8.388-1.144-2.102-.276-4.211-.5-6.314-.774-2.759-.36-5.514-.759-8.273-1.118-2.181-.284-4.368-.517-6.548-.802-2.911-.38-5.818-.79-8.728-1.188V338.2c.654-.091 1.158-.5 1.705-.812 4.456-2.547 8.909-5.099 13.363-7.649.015.479.042.958.042 1.438.002 15.76.002 31.52.002 47.279 0 .32.006.64.004.96-.003.321.102.515.468.549.628.059 1.252.161 1.879.242 2.073.27 4.147.536 6.221.808 2.815.369 5.631.741 8.446 1.112 2.189.289 4.378.584 6.568.867 2.153.278 4.307.542 6.46.813 2.115.266 4.23.522 6.343.8 2.776.365 5.548.764 8.325 1.115 2.781.352 5.571.634 8.351 1 3.321.438 6.633.948 9.953 1.398 3.712.504 7.428.977 11.143 1.462-2.373 1.699-5 2.974-7.502 4.457-4.53 2.688-9.097 5.315-13.649 7.966zm363.926-313.07c2.791-1.368 5.401-3.059 8.109-4.574 2.325-1.301 4.642-2.614 6.962-3.921v102.72c-2.919 1.704-5.821 3.437-8.762 5.101-2.105 1.192-4.122 2.547-6.335 3.546-.006-.28-.016-.56-.016-.839 0-32.333 0-64.666.003-96.998 0-1.679.026-3.357.039-5.035z"/><path fill-rule="evenodd" clip-rule="evenodd" fill="#D2DF4F" d="M16.068 329.737c-4.454 2.551-8.907 5.103-13.363 7.65-.547.313-1.051.722-1.705.813V235.48c3.169-1.825 6.313-3.696 9.517-5.458 1.837-1.011 3.502-2.348 5.539-2.988.019.439.054.877.054 1.316.002 33.317.002 66.633 0 99.95-.001.479-.027.958-.042 1.437z"/><path fill-rule="evenodd" clip-rule="evenodd" fill="#F8973A" d="M1 132.52c2.937-1.417 5.641-3.249 8.506-4.791 2.204-1.187 4.266-2.625 6.555-3.658.019.559.052 1.117.052 1.676.002 24.979.003 49.957.001 74.936 0 .958-.023 1.917-.036 2.875-.45-.243-.646-.683-.882-1.103a322.058 322.058 0 00-2.49-4.355 4708.877 4708.877 0 00-6.086-10.41c-1.87-3.191-3.747-6.379-5.62-9.569V132.52z"/><path fill-rule="evenodd" clip-rule="evenodd" fill="#5672B7" d="M433.022 191.807c2.214-.999 4.23-2.354 6.335-3.546 2.941-1.665 5.843-3.397 8.762-5.101v77.52c-.996-.81-1.37-2.033-1.992-3.08a839.82 839.82 0 01-8.513-14.631c-.877-1.549-1.858-3.036-2.673-4.627-.481-.94-.792-2.099-1.896-2.627l-.09-.916c.011-3.952.028-7.903.033-11.854.015-10.381.024-20.759.034-31.138z"/><path fill-rule="evenodd" clip-rule="evenodd" fill="#5266AF" d="M433.047 235.714c1.104.528 1.414 1.687 1.896 2.627.814 1.591 1.795 3.078 2.673 4.627a832.459 832.459 0 008.513 14.631c.622 1.047.996 2.271 1.992 3.08v25.44c-4.592 2.634-9.185 5.265-13.773 7.905-.416.239-.808.515-1.303.56-.012-.48-.034-.959-.034-1.438V238.35c-.001-.879.023-1.757.036-2.636z"/><path fill-rule="evenodd" clip-rule="evenodd" fill="#9B3895" d="M223.72 422.2c-.659-.553-1.501-.283-2.238-.417-2.278-.417-4.603-.576-6.909-.835.116-.109.215-.246.35-.323 3.841-2.213 7.691-4.41 11.528-6.63 5.322-3.079 10.633-6.173 15.95-9.261.343-.229.727-.253 1.128-.296 2.152-.233 4.301-.495 6.448-.769 2.886-.369 5.774-.722 8.651-1.156 1.491-.225 3.024-.22 4.467-.738l.458.081c.083.302.108.637.259.9 1.597 2.784 3.232 5.546 4.818 8.337.956 1.683 2.074 3.275 2.843 5.063-3.672.39-7.332.865-10.981 1.435-2.136.333-4.298.493-6.444.77-2.802.362-5.598.774-8.398 1.145-2.065.273-4.136.504-6.202.772-2.257.294-4.509.624-6.767.911-2.146.273-4.295.509-6.441.77-.289.035-.655-.163-.84.243-.56-.002-1.12-.002-1.68-.002z"/><path fill-rule="evenodd" clip-rule="evenodd" fill="#FBAC4B" d="M1 178.12c1.874 3.19 3.75 6.378 5.62 9.569 2.032 3.468 4.062 6.937 6.086 10.41.842 1.445 1.67 2.898 2.49 4.355.236.42.432.86.882 1.103l.069.717c-.018.759-.05 1.517-.052 2.275-.017 6.828-.028 13.656-.041 20.484-2.037.64-3.702 1.978-5.539 2.988-3.204 1.763-6.348 3.633-9.517 5.458C1 216.36 1 197.24 1 178.12z"/><path fill-rule="evenodd" clip-rule="evenodd" fill="#F7B3BF" d="M438.752 394.338c2.761-1.599 5.519-3.202 8.285-4.791.339-.194.654-.47 1.083-.468v4.08c-3.115.451-6.224.947-9.368 1.179zm-5.705-158.624c-.013.879-.037 1.757-.037 2.636-.002 18.265-.002 36.531 0 54.796 0 .479.022.958.034 1.438-.012 4.879-.035 9.758-.036 14.637-.004 22.917-.001 45.834-.001 68.751 0 2.048-.004 2.014-1.999 2.237-3.609.405-7.21.869-10.806 1.396-3.439.504-6.907.805-10.355 1.25-3.326.43-6.639.958-9.964 1.394-2.821.369-5.652.663-8.478 1-1.334.159-2.666.341-3.998.513l-.242-.032c-.161-.17-.363-.317-.477-.515-1.875-3.246-3.76-6.486-5.598-9.752-.895-1.589-1.996-3.07-2.596-4.819h8.331a5.16 5.16 0 00-.825-1.33 1422.836 1422.836 0 01-7.906-9.631c-2.191-2.7-4.344-5.431-6.522-8.142-2.252-2.803-4.47-5.637-6.79-8.384-1.684-1.995-3.177-4.149-5.017-6.012l-3.572-4.664-.252-.282.019.023-.21-.281a.266.266 0 01-.03-.166c.001-.282-.036-.543-.186-.802a15904.71 15904.71 0 01-9.799-16.99c-3.324-5.769-6.646-11.538-9.968-17.307-.004-.308.184-.505.379-.715 3.349-3.599 6.587-7.297 9.827-10.994 3.469-3.958 6.914-7.934 10.294-11.969 3.373-4.026 6.552-8.195 9.695-12.397.547-.731.631-1.25-.148-1.985-2.325-2.193-4.644-4.409-6.779-6.783-3.438-3.823-7.291-7.236-10.721-11.061-3.665-3.774-7.34-7.537-10.983-11.332-.627-.652-.894-.271-1.271.217-1.611 2.087-3.215 4.182-4.871 6.234a707.243 707.243 0 01-6.839 8.32c-2.097 2.518-4.227 5.008-6.341 7.511-1.581 1.872-3.324 3.604-4.775 5.586l-.224.034c-1.775-3.021-3.562-6.036-5.322-9.066a8819.14 8819.14 0 01-10.061-17.392c-3.209-5.559-6.409-11.123-9.618-16.682a15253.31 15253.31 0 00-10.114-17.5c-2.297-3.967-4.606-7.928-6.91-11.892.006-.07.013-.141.021-.21a57.97 57.97 0 004.569-4.572l-.026.022.226-.225c.356-.319.724-.626 1.067-.958 3.146-3.05 6.062-6.301 8.804-9.726 3.867-4.829 7.175-9.98 9.566-15.693 3.54-8.456 5.053-17.253 4.628-26.431-.179-3.854-.497-7.664-1.241-11.445-1.385-7.029-3.975-13.58-7.709-19.689-3.16-5.171-7.185-9.613-11.6-13.708-1.62-1.502-3.292-2.98-5.182-4.164-2.398-1.89-4.966-3.534-7.644-4.983-7.516-4.069-15.495-6.743-23.972-8.002a105.073 105.073 0 00-13.002-1.125c-4.925-.115-9.83.248-14.713.931-3.876.542-7.709 1.266-11.443 2.458a.793.793 0 00-.227-.027c-1.443-2.523-2.878-5.052-4.332-7.569-2.788-4.828-5.592-9.646-8.378-14.474a5353.968 5353.968 0 01-9.652-16.775c-1.146-2.001-2.436-3.922-3.363-6.045 1.498-.518 3.085-.506 4.628-.748 2.909-.456 5.836-.791 8.756-1.177l6.075-.804c2.198-.249 4.399-.473 6.593-.751 2.783-.353 5.56-.748 8.339-1.125 2.857-.389 5.705-.892 8.575-1.126 1.792-.146 3.553-.765 5.405-.34 1.227.282 2.503.352 3.759.503 2.788.336 5.58.645 8.365.998 2.9.368 5.795.782 8.693 1.164 2.666.352 5.333.686 7.999 1.033 2.86.373 5.719.757 8.58 1.126 2.745.354 5.493.682 8.237 1.044 3.329.439 6.653.922 9.984 1.352 2.785.359 5.579.648 8.365 1.004 2.86.365 5.715.774 8.572 1.163 2.231.303 4.461.618 6.694.903 2.664.34 5.332.653 7.998.978l.434.061c.274.575.512 1.172.829 1.723 2.572 4.459 5.16 8.91 7.74 13.365 4.341 7.494 8.688 14.983 13.017 22.484 4.089 7.086 8.147 14.19 12.236 21.277 2.812 4.874 5.652 9.73 8.48 14.595-.011.075-.021.15-.03.226-1.522 1.402-3.009 2.83-4.329 4.44-4.236 5.169-6.191 11.143-6.453 17.748a28.233 28.233 0 00.512 6.514c.536 2.76 1.282 5.474 2.893 7.852.083.562.378 1.023.685 1.483a35.913 35.913 0 005.395 6.388c2.645 2.469 5.562 4.532 8.709 6.275 5.111 2.832 10.593 4.85 15.966 7.095 3.388 1.416 6.696 2.958 9.842 4.85 1.953 1.173 3.544 2.78 5.199 4.311l-.005-.005.243.252c1.158 1.49 2.241 3.026 2.923 4.806-.035.149.049.209.177.237l.072.465c-.033.153.055.219.185.253.012.078.031.152.059.226-.049.204-.079.401.187.484l-.003-.004c.01.24-.021.489.036.717.848 3.391.798 6.804-.054 10.155-1.687 6.634-5.805 11.206-12.222 13.579-3.458 1.279-7.05 1.309-10.699.792-5.56-.787-9.854-3.548-12.871-8.176-2.533-3.886-3.186-8.425-3.758-12.92-.137-1.074-.408-1.087-1.315-.876a1008.93 1008.93 0 01-15.395 3.442c-2.053.443-2.092.393-1.793 2.374.66 4.378 1.953 8.569 3.774 12.603 2.405 5.327 5.873 9.833 10.423 13.493 1.965 1.582 4.132 2.847 6.404 3.962 3.391 1.665 6.98 2.619 10.673 3.241 2.505.422 5.065.568 7.573.486 2.306-.076 4.653-.1 6.953-.612 2.377-.53 4.795-.873 7.002-1.987.119.01.255.064.354.025 3.713-1.46 7.207-3.296 10.199-5.985l-.018.017.201-.263c.16-.346.57-.205.809-.431 3.027-2.869 5.958-5.815 7.883-9.59.068-.013.135-.029.202-.046.973 2.144 2.278 4.103 3.438 6.142 3.09 5.436 6.231 10.842 9.368 16.251 2.597 4.478 5.218 8.942 7.828 13.412l.09.911zm-416.9-31.441l-.069-.717c.013-.958.036-1.917.036-2.875.001-24.979.001-49.957-.001-74.936 0-.559-.034-1.117-.052-1.676.018-.559.049-1.118.049-1.676.002-25.863.002-51.726.002-77.588 0-1.646.006-1.609 1.645-1.825 3.397-.447 6.786-.962 10.184-1.404 3.363-.438 6.737-.797 10.1-1.232 3.438-.445 6.86-1.026 10.307-1.379 1.729-.177 3.432-.633 5.187-.552 1.648 2.869 3.293 5.74 4.946 8.607 3.839 6.665 7.676 13.331 11.525 19.989 3.63 6.279 7.288 12.542 10.907 18.828 1.391 2.415 2.898 4.764 4.117 7.277-.465.094-.927.208-1.396.28-5.599.85-10.927 2.564-16.028 5.002-5.006 2.392-9.537 5.471-13.706 9.146-3.96 3.491-7.417 7.403-10.475 11.681-4.236 5.926-7.373 12.385-9.357 19.403-1.09 3.856-1.805 7.792-2.045 11.771-.167 2.757-.343 5.521-.145 8.326.232 3.289.491 6.571 1.112 9.79 1.481 7.673 4.44 14.773 8.783 21.287 3.145 4.717 6.933 8.872 11.113 12.671.718.653 1.394 1.428 2.341 1.812.854.95 1.935 1.611 2.956 2.355 5.864 4.277 12.323 7.305 19.331 9.136 3.326.869 6.712 1.422 10.149 1.752 2.336.225 4.695.37 7.005.327 1.995-.037 4.033-.105 6.051-.314a70.94 70.94 0 008.529-1.409c5.947-1.36 11.547-3.655 16.934-6.506.782-.414 1.079-.84 1.074-1.724-.037-6.357-.02-12.714-.02-19.071v-1.978c-.334.183-.539.287-.733.405a3.187 3.187 0 00-.384.279c-4.833 4.019-9.948 7.56-15.754 10.1-5.169 2.262-10.606 2.878-16.111 2.963a35.318 35.318 0 01-5.328-.344c-3.544-.49-6.984-1.275-10.341-2.511-2.28-.84-4.372-2.051-6.55-3.089-.113-.221-.295-.351-.515-.471-2.132-1.169-4.029-2.68-5.811-4.301-4.717-4.291-8.629-9.191-11.295-15.053-2.394-5.263-3.611-10.794-3.941-16.517-.183-3.168-.024-6.345.404-9.519.588-4.347 1.649-8.542 3.453-12.526 3.221-7.118 8.021-13.012 14.154-17.827 3.685-2.892 7.805-5 12.215-6.531 4.493-1.56 9.201-1.869 13.893-2.237l.26.073c.097.259.158.539.295.775 3.821 6.633 7.654 13.258 11.475 19.892 4.338 7.53 8.653 15.073 13 22.598 3.986 6.903 8.013 13.783 11.998 20.687 4.105 7.111 8.17 14.246 12.273 21.358 4.042 7.009 8.11 14.003 12.167 21.003l-.02.217c-3.146 2.161-6.016 4.67-8.774 7.282-3.643 3.45-7.182 7.012-10.309 10.962-3.377 4.266-6.439 8.733-9.009 13.529-2.479 4.626-4.499 9.446-5.982 14.484-.668 2.269-1.422 4.521-1.632 6.899-.073.096-.188.182-.211.288-1.07 4.952-1.531 9.984-1.718 15.029-.166 4.483.173 8.956.65 13.425.347 3.257.847 6.485 1.574 9.66 1.72 7.507 4.393 14.663 8.125 21.433 3.801 6.898 8.604 13.023 13.966 18.736 2.392 2.548 5.074 4.791 7.786 6.993 3.089 2.51 6.331 4.797 9.691 6.936 5.382 3.425 11.092 6.171 17.049 8.4 10.853 4.059 22.153 5.774 33.678 6.266 3.272.139 6.527-.217 9.793-.272 1.653-.028 3.313-.238 4.95-.496 3.027-.477 6.063-.913 9.048-1.636 3.591-.87 7.176-1.755 10.605-3.167l.428.046c.448 1.507 1.389 2.763 2.158 4.096 4.43 7.69 8.931 15.339 13.354 23.034.664 1.155 1.627 2.177 1.842 3.571-1.444.518-2.977.513-4.468.738-2.876.434-5.765.787-8.651 1.156-2.147.274-4.296.536-6.448.769-.402.043-.786.067-1.128.296-1.986-.04-3.912.444-5.868.674-2.821.331-5.693.433-8.453 1.043-3.009.665-5.899.162-8.83-.171-2.779-.316-5.545-.743-8.318-1.108-2.111-.278-4.226-.53-6.337-.808-2.774-.364-5.544-.759-8.319-1.109-2.779-.351-5.579-.57-8.342-1.018-2.842-.459-5.704-.736-8.551-1.14-2.031-.289-4.074-.488-6.108-.761-2.771-.372-5.534-.802-8.308-1.159-2.818-.362-5.647-.633-8.464-1.002-3.319-.436-6.626-.962-9.945-1.396-2.817-.369-5.647-.633-8.465-.996-4.021-.517-8.036-1.082-12.053-1.626l-.384-.091c-.067-.188-.107-.391-.205-.561-4.488-7.786-8.978-15.572-13.476-23.353-5.177-8.957-10.369-17.905-15.541-26.864-5.852-10.136-11.639-20.31-17.545-30.414-6.77-11.582-13.281-23.312-20.112-34.858-4.719-7.975-9.26-16.055-13.894-24.08-7.651-13.248-15.327-26.481-22.959-39.739-1.917-3.316-3.709-6.7-5.783-9.922z"/><path fill-rule="evenodd" clip-rule="evenodd" fill="#FFF" d="M156.055 216.058c-4.057-7-8.125-13.995-12.167-21.003-4.103-7.113-8.168-14.247-12.273-21.358-3.985-6.904-8.012-13.784-11.998-20.687-4.346-7.525-8.662-15.068-13-22.598-3.82-6.633-7.654-13.259-11.475-19.892-.137-.236-.198-.516-.295-.775 1.54.456 3.14.211 4.713.396 4.627.547 9.017 1.867 13.227 3.764a56.106 56.106 0 0112.077 7.409c.695.557 1.294 1.371 2.367 1.548 0-7.067-.006-14.059.013-21.051.001-.481-.204-.707-.573-.912-2.419-1.341-4.883-2.585-7.426-3.679-6.243-2.685-12.767-4.274-19.523-4.724a66.398 66.398 0 00-11.581.237c-.96.104-1.984.033-2.905.467a1.099 1.099 0 00-.207-.085c-1.219-2.513-2.726-4.862-4.117-7.277-3.619-6.286-7.277-12.549-10.907-18.828-3.85-6.658-7.687-13.324-11.525-19.989-1.652-2.867-3.298-5.738-4.946-8.607 1.375-.462 2.827-.492 4.241-.687 2.992-.412 5.994-.754 8.984-1.196 2.799-.414 5.624-.641 8.431-1.003 2.683-.347 5.353-.781 8.033-1.143 2.104-.283 4.216-.497 6.32-.773 2.877-.377 5.748-.807 8.627-1.171 2.808-.356 5.625-.632 8.433-.992 2.8-.36 5.588-.804 8.388-1.169 2.728-.355 5.465-.636 8.193-.989 2.761-.357 5.514-.776 8.274-1.144 2.063-.276 4.134-.504 6.199-.772 2.256-.293 4.507-.617 6.763-.91 2.065-.268 4.135-.501 6.2-.77 2.256-.293 4.507-.621 6.763-.911 2.104-.271 4.214-.502 6.319-.769 2.18-.276 4.351-.642 6.536-.846 2.386-.222 4.725-.862 7.143-.767.927 2.123 2.218 4.044 3.363 6.045a5353.968 5353.968 0 009.652 16.775c2.787 4.828 5.59 9.646 8.378 14.474 1.454 2.518 2.889 5.046 4.332 7.569-2.696.959-5.402 1.878-8.04 3.009-7.119 3.052-13.44 7.298-19.134 12.503-2.436 2.227-4.579 4.736-6.621 7.327a59.649 59.649 0 00-6.616 10.479 62.961 62.961 0 00-4.338 11.468c-1.473 5.425-2.353 10.946-2.518 16.552-.126 4.289-.251 8.6.468 12.861.214 1.27.159 2.6.742 3.799.265 2.802 1.09 5.483 1.924 8.14 2.454 7.816 6.112 15.074 10.563 21.932 3.1 4.777 6.477 9.351 10.206 13.667 1.893 2.191 3.771 4.393 5.727 6.469-3.328 2.861-7.057 5.11-10.602 7.616-3.095 2.188-6.201 4.365-9.38 6.428-3.213 2.086-6.26 4.403-9.432 6.543z"/><path fill-rule="evenodd" clip-rule="evenodd" fill="#F8973A" d="M312.997 27.597c-2.666-.325-5.333-.638-7.998-.978-2.233-.285-4.462-.6-6.694-.903-2.857-.389-5.712-.797-8.572-1.163-2.786-.355-5.58-.645-8.365-1.004-3.331-.429-6.655-.912-9.984-1.352-2.744-.362-5.492-.69-8.237-1.044-2.861-.369-5.719-.753-8.58-1.126-2.666-.347-5.333-.682-7.999-1.033-2.898-.382-5.792-.796-8.693-1.164-2.786-.354-5.577-.662-8.365-.998-1.256-.151-2.532-.221-3.759-.503-1.853-.425-3.614.193-5.405.34-2.87.234-5.718.738-8.575 1.126-2.779.378-5.557.773-8.339 1.125-2.194.278-4.395.503-6.593.751l31.449-18.2c2.473.19 4.924.535 7.374.922 2.137.338 4.302.499 6.449.777 2.805.364 5.603.782 8.408 1.147 2.147.279 4.302.495 6.449.772 2.805.363 5.605.77 8.41 1.14 2.067.273 4.14.508 6.208.778 2.26.295 4.515.625 6.775.912 2.147.273 4.302.492 6.449.771 2.805.363 5.604.776 8.41 1.141 2.731.355 5.466.677 8.2 1.015l2.229.279c.117.165.285.195.47.179l.017.015c.017.118.001.254.056.351 2.38 4.177 4.791 8.336 7.137 12.533.611 1.096 1.527 2.06 1.668 3.394z"/><path fill-rule="evenodd" clip-rule="evenodd" fill="#994E9E" d="M387.164 385.73l.242.032c-.101 1.012.617 1.707 1.05 2.474 2.112 3.738 4.303 7.432 6.455 11.148.113.195.12.451.177.679-2.961.408-5.92.834-8.885 1.22-2.695.351-5.397.642-8.092.993-2.807.366-5.607.789-8.414 1.154-2.149.28-4.307.487-6.456.766-2.808.365-5.607.786-8.415 1.151-2.148.28-4.307.49-6.455.769-2.808.365-5.608.783-8.415 1.148-2.149.28-4.305.504-6.456.769-2.618.322-5.235.654-7.851.996-2.261.296-4.52.613-6.779.921-2.805.383-5.609.776-8.417 1.146-2.069.273-4.144.508-6.213.776-2.887.373-5.771.769-8.658 1.14-2.109.271-4.223.507-6.332.781-2.848.369-5.691.764-8.539 1.136-2.069.271-4.142.515-6.211.784-1.011.131-2.018.292-3.026.44-.769-1.788-1.887-3.38-2.843-5.063-1.586-2.791-3.222-5.553-4.818-8.337-.15-.263-.175-.598-.259-.9.437-.032.877-.039 1.31-.098 3.352-.457 6.699-.945 10.053-1.38 2.774-.36 5.56-.641 8.335-.995 2.887-.368 5.767-.791 8.653-1.169 2.109-.277 4.224-.51 6.333-.786 2.809-.367 5.613-.765 8.421-1.134 2.07-.272 4.144-.512 6.214-.78 2.888-.374 5.773-.767 8.66-1.141 2.07-.268 4.145-.51 6.215-.778 2.887-.374 5.772-.768 8.66-1.142 2.071-.268 4.145-.503 6.215-.778 2.144-.285 4.281-.62 6.426-.899 2.734-.355 5.475-.662 8.209-1.018 2.808-.365 5.609-.783 8.419-1.142 2.775-.355 5.559-.644 8.334-1 2.848-.365 5.694-.742 8.532-1.18 1.539-.236 3.116-.24 4.621-.703z"/><path fill-rule="evenodd" clip-rule="evenodd" fill="#5266AF" d="M126.04 394.156c4.017.544 8.032 1.109 12.053 1.626 2.818.363 5.648.627 8.465.996 3.319.434 6.626.96 9.945 1.396 2.817.369 5.646.64 8.464 1.002 2.773.356 5.537.787 8.308 1.159 2.034.273 4.077.472 6.108.761 2.847.404 5.709.681 8.551 1.14 2.763.447 5.562.667 8.342 1.018 2.775.35 5.545.745 8.319 1.109 2.111.278 4.226.529 6.337.808 2.773.366 5.539.792 8.318 1.108 2.93.333 5.821.836 8.83.171 2.76-.61 5.632-.712 8.453-1.043 1.956-.229 3.882-.714 5.868-.674-5.316 3.088-10.628 6.183-15.95 9.261-3.837 2.22-7.687 4.417-11.528 6.63-.134.077-.234.214-.35.323-1.513-.225-3.021-.477-4.538-.668-2.3-.29-4.603-.539-6.894-.913-2.134-.349-4.3-.506-6.447-.779-2.143-.272-4.279-.595-6.421-.877-2.106-.278-4.215-.525-6.322-.8-2.22-.29-4.438-.603-6.658-.891-2.107-.272-4.217-.516-6.324-.79-2.22-.29-4.437-.609-6.657-.899-2.067-.271-4.138-.517-6.206-.779-2.26-.287-4.526-.516-6.777-.894-2.054-.345-4.137-.522-6.205-.787-2.259-.29-4.53-.488-6.774-.906-1.044-.194-2.12-.216-3.182-.316-.063-.187-.098-.39-.194-.558-2.52-4.358-5.072-8.698-7.551-13.079-.517-.912-1.309-1.719-1.383-2.855z"/><path fill-rule="evenodd" clip-rule="evenodd" fill="#5672B7" d="M126.04 394.156c.075 1.136.867 1.942 1.383 2.855 2.479 4.381 5.031 8.721 7.551 13.079.097.167.131.371.194.558-2.413-.305-4.828-.593-7.238-.92-2.685-.365-5.362-.783-8.046-1.144-2.106-.284-4.221-.499-6.328-.775-2.882-.377-5.758-.806-8.642-1.171-2.812-.356-5.634-.626-8.444-.994-3.349-.438-6.686-.966-10.034-1.404-2.81-.367-5.634-.633-8.445-.995-2.96-.382-5.913-.824-8.869-1.24 4.552-2.651 9.119-5.278 13.649-7.964 2.502-1.483 5.129-2.758 7.502-4.457 2.825.327 5.654.628 8.476.986 3.448.437 6.889.93 10.336 1.378 2.705.352 5.415.663 8.121 1.008 2.817.359 5.633.739 8.449 1.11l.385.09z"/><path fill-rule="evenodd" clip-rule="evenodd" fill="#FBAC4B" d="M312.997 27.597c-.141-1.333-1.057-2.297-1.669-3.394-2.346-4.196-4.756-8.356-7.137-12.533-.055-.097-.039-.233-.056-.351 3.078.163 6.108.719 9.158 1.109 2.19.28 4.384.53 6.573.819 2.811.372 5.616.785 8.427 1.152 2.112.277 4.231.498 6.345.768 2.813.358 5.624.744 8.437 1.11 2.111.275 4.225.531 6.335.808 2.226.292 4.449.604 6.675.895 2.072.27 4.148.516 6.22.785 2.891.375 5.779.766 8.67 1.141.98.127 1.963.229 2.945.341-5.379 3.116-10.766 6.217-16.13 9.357-1.678.982-3.46 1.799-4.975 3.048-.559-.007-1.125.044-1.674-.03-3.343-.453-6.679-.96-10.024-1.397-2.807-.367-5.627-.63-8.434-.999-3.306-.435-6.601-.958-9.905-1.401-3.112-.417-6.231-.781-9.347-1.168l-.434-.06zm-8.879-16.293c-.185.016-.353-.015-.47-.179.197-.042.384-.064.47.179z"/><path fill-rule="evenodd" clip-rule="evenodd" fill="#6FD0F6" d="M313.431 27.657c3.116.387 6.235.751 9.347 1.168 3.305.443 6.599.966 9.905 1.401 2.806.369 5.627.632 8.434.999 3.346.437 6.682.944 10.024 1.397.549.074 1.115.023 1.674.03.8.525 1.747.313 2.613.456 2.873.47 5.775.745 8.655 1.192 2.765.429 5.56.661 8.336 1.016 2.811.359 5.614.779 8.424 1.144 2.15.28 4.309.495 6.459.775 2.81.366 5.613.781 8.423 1.149 2.696.353 5.398.664 8.096 1.009 2.147.275 4.292.581 6.439.861 2.148.28 4.3.538 6.449.818 2.186.286 4.369.597 6.554.881 2.11.275 4.222.539 6.334.793.863.104 1.733.147 2.593.266.504.069.901.301.824.936-.034.276-.005.559-.005.839 0 14.196 0 28.392.002 42.587 0 .52.024 1.039.037 1.559-.013 1.679-.039 3.356-.039 5.035-.003 32.333-.003 64.666-.003 96.998 0 .28.01.559.016.839-.011 10.379-.019 20.758-.032 31.137-.005 3.951-.022 7.903-.033 11.854-2.61-4.47-5.231-8.934-7.828-13.412-3.137-5.409-6.278-10.815-9.368-16.251-1.159-2.039-2.465-3.998-3.437-6.142.584-1.203 1.198-2.388 1.737-3.617 1.947-4.436 2.871-9.096 3.063-13.897.086-2.139.057-4.285-.168-6.442-.415-3.97-1.349-7.775-3.085-11.351-2.695-5.553-6.904-9.78-11.963-13.21-4.072-2.761-8.424-4.98-13.008-6.777-3.707-1.453-7.329-3.119-11.08-4.461l-.31-.274c-.028-.504-.337-.892-.573-1.3-3.806-6.6-7.622-13.193-11.436-19.788.873-1.701 2.233-3.033 3.682-4.167 5.067-3.965 10.9-4.481 17.007-3.402 2.151.379 4.029 1.457 5.916 2.489 2.441 2.341 4.694 4.848 6.272 7.86.568 1.084 1.1 1 1.962.47a554.39 554.39 0 017.297-4.382c1.864-1.105 3.758-2.162 5.599-3.304.325-.202 1.136-.336.636-1.112-1.945-3.017-3.815-6.089-6.475-8.565-1.452-1.963-3.369-3.429-5.291-4.875-5.252-3.95-11.26-5.952-17.744-6.396-3.913-.268-7.858-.15-11.736.674-5.131 1.09-9.946 2.9-14.22 6.033-.879.644-1.62 1.5-2.674 1.9-2.828-4.865-5.668-9.722-8.48-14.595-4.089-7.087-8.147-14.191-12.236-21.277-4.329-7.501-8.676-14.991-13.017-22.484-2.581-4.455-5.168-8.905-7.74-13.365-.317-.547-.554-1.144-.828-1.719zM125.655 394.065c-2.816-.371-5.632-.75-8.449-1.11-2.706-.346-5.416-.657-8.121-1.008-3.447-.448-6.888-.941-10.336-1.378-2.821-.357-5.65-.659-8.476-.986-3.714-.486-7.431-.958-11.143-1.462-3.32-.451-6.632-.96-9.953-1.398-2.779-.366-5.569-.648-8.351-1-2.777-.352-5.549-.75-8.325-1.115-2.113-.278-4.229-.534-6.343-.8-2.153-.271-4.307-.535-6.46-.813-2.19-.283-4.379-.578-6.568-.867-2.815-.371-5.63-.743-8.446-1.112-2.073-.271-4.147-.538-6.221-.808-.626-.082-1.25-.184-1.879-.242-.366-.034-.471-.229-.468-.549.002-.32-.004-.64-.004-.96 0-15.76 0-31.52-.002-47.279 0-.479-.028-.958-.042-1.438.014-.479.041-.959.041-1.438.002-33.316.002-66.633 0-99.95 0-.438-.035-.877-.054-1.316.013-6.829.024-13.657.041-20.485.002-.758.034-1.517.052-2.275 2.073 3.222 3.865 6.606 5.775 9.923 7.633 13.258 15.309 26.491 22.959 39.739 4.634 8.025 9.175 16.105 13.894 24.08 6.831 11.547 13.343 23.277 20.112 34.858 5.906 10.104 11.693 20.278 17.545 30.414 5.172 8.959 10.364 17.907 15.541 26.864 4.498 7.781 8.987 15.566 13.476 23.353.098.167.138.37.205.558z"/><path fill-rule="evenodd" clip-rule="evenodd" fill="#FFF" d="M387.164 385.73c-1.505.463-3.083.466-4.623.704-2.837.438-5.684.815-8.532 1.18-2.775.356-5.559.645-8.334 1-2.81.358-5.611.776-8.419 1.142-2.734.355-5.476.662-8.209 1.018-2.145.279-4.282.614-6.426.899-2.07.275-4.144.51-6.215.778-2.887.374-5.772.768-8.66 1.142-2.07.268-4.145.51-6.215.778-2.887.374-5.772.767-8.66 1.141-2.07.268-4.144.508-6.214.78-2.808.369-5.612.767-8.421 1.134-2.109.276-4.224.509-6.333.786-2.886.379-5.767.802-8.653 1.169-2.775.354-5.561.634-8.335.995-3.354.436-6.701.924-10.053 1.38-.433.059-.873.066-1.31.098l-.458-.081c-.214-1.394-1.177-2.416-1.841-3.571-4.423-7.694-8.923-15.344-13.354-23.034-.769-1.333-1.709-2.589-2.157-4.096 1.952-.797 3.897-1.611 5.856-2.389 5.097-2.022 9.926-4.588 14.615-7.396 5.363-3.212 10.476-6.798 15.367-10.712 4.297-3.439 8.504-6.97 12.429-10.824 1.809-1.776 3.752-3.423 5.383-5.375.437-.523.727-.396 1.089.047 1.174 1.435 2.375 2.848 3.542 4.288 2.307 2.845 4.6 5.702 6.896 8.556 1.925 2.393 3.78 4.847 5.793 7.164 1.422 1.637 2.616 3.47 4.233 4.938.041.146.042.325.13.433 2.514 3.09 5.094 6.128 7.527 9.28.926 1.2 1.923 1.548 3.395 1.542 13.951-.056 27.902-.032 41.854-.035 1.398 0 2.796-.026 4.194-.041l.446.096c.601 1.749 1.701 3.229 2.596 4.819 1.838 3.266 3.723 6.507 5.598 9.752.116.199.318.345.479.515z"/><path fill-rule="evenodd" clip-rule="evenodd" fill="#5672B7" d="M320.947 359.37c-1.617-1.468-2.812-3.301-4.233-4.938-2.013-2.317-3.868-4.771-5.793-7.164-2.296-2.854-4.589-5.711-6.896-8.556-1.167-1.44-2.368-2.853-3.542-4.288-.362-.443-.652-.57-1.089-.047-1.631 1.951-3.574 3.598-5.383 5.375-3.924 3.854-8.131 7.385-12.429 10.824-4.891 3.914-10.004 7.5-15.367 10.712-4.688 2.808-9.518 5.374-14.615 7.396-1.959.777-3.904 1.591-5.856 2.389l-.428-.046c-.233-.947-.817-1.716-1.291-2.542-3.202-5.592-6.392-11.192-9.608-16.776-3.475-6.031-6.975-12.047-10.464-18.07l.028-.207c.946-.251 1.916-.436 2.834-.766 6.249-2.245 12.141-5.201 17.712-8.822 4.761-3.095 9.327-6.438 13.657-10.112a236.795 236.795 0 005.9-5.164c2.654-2.406 5.286-4.831 7.813-7.37.25-.251.386-.444.089-.796a493.805 493.805 0 01-5.903-7.107c-.933-1.152-2.008-2.197-2.733-3.511.216-.103.44-.192.647-.312 8.759-5.052 17.52-10.101 26.272-15.164 4.08-2.36 8.145-4.75 12.216-7.125.625 1.2 1.155.654 1.801-.03.748-.79 1.259-1.8 2.217-2.393.39.043.67-.19.982-.367 2.382-1.353 4.771-2.695 7.157-4.041.014.34.235.577.396.853 2.89 4.949 5.774 9.901 8.651 14.857 2.873 4.949 5.771 9.884 8.585 14.866 1.09 1.93 2.395 3.74 3.285 5.783l-4.477 4.866c2.075 2.585 4.137 5.168 6.215 7.74 2.128 2.634 4.271 5.255 6.407 7.881 2.237 2.748 4.463 5.505 6.717 8.239 1.751 2.124 3.322 4.398 5.293 6.337a.27.27 0 00.03.167c-.018.159.07.24.21.281l-.019-.023.252.282 3.572 4.665-.472.291c-2.825 1.406-5.496 3.085-8.228 4.656-7.162 4.121-14.307 8.271-21.467 12.393-2.864 1.651-5.76 3.257-8.645 4.884z"/><path fill-rule="evenodd" clip-rule="evenodd" fill="#4AA65F" d="M302.486 267.183c-4.071 2.375-8.136 4.765-12.216 7.125-8.753 5.063-17.514 10.111-26.272 15.164-.207.119-.431.208-.647.312-1.277-1.081-2.203-2.478-3.27-3.738-2.77-3.272-5.402-6.659-8.124-9.972-2.776-3.379-5.611-6.71-8.387-10.09-3.122-3.8-6.187-7.646-9.311-11.445-3.179-3.864-6.422-7.676-9.597-11.543-3.82-4.653-7.599-9.338-11.388-14.016-.307-.378-.501-.387-.927-.078-1.74 1.267-3.552 2.435-5.302 3.69-4.971 3.567-9.977 7.085-14.777 10.889-2.93 2.321-5.868 4.626-8.728 7.037-1.69 1.425-3.267 2.972-4.971 4.377a4.916 4.916 0 00-.212.031c-.814-1.989-2.096-3.72-3.097-5.606-1.542-2.905-3.418-5.623-4.839-8.596 0-.07-.002-.139-.004-.208 2.122-1.194 4.254-2.37 6.363-3.585 11.663-6.725 23.319-13.459 34.979-20.189 10.171-5.872 20.341-11.746 30.515-17.612 9.101-5.248 18.207-10.487 27.311-15.729.584.271 1.101.622 1.42 1.204a7.46 7.46 0 00-.021.21c-.149.043-.345.041-.44.137-2.239 2.251-4.677 4.28-7.09 6.334a250.48 250.48 0 01-5.28 4.367c-2.789 2.245-5.603 4.458-8.401 6.692-.288.229-.508.445-.146.874 1.475 1.744 2.895 3.535 4.355 5.291 2.118 2.547 4.264 5.072 6.38 7.622 2.188 2.636 4.35 5.294 6.533 7.935 1.658 2.006 3.342 3.991 4.997 6 2.103 2.552 4.174 5.131 6.284 7.677 2.114 2.55 4.28 5.058 6.388 7.615 3.206 3.889 6.372 7.81 9.569 11.706 2.775 3.379 5.569 6.745 8.353 10.118z"/><path fill-rule="evenodd" clip-rule="evenodd" fill="#FBDC39" d="M274.106 78.013c1.891 1.184 3.562 2.662 5.182 4.164 4.415 4.095 8.44 8.538 11.6 13.708 3.734 6.11 6.324 12.661 7.709 19.689.745 3.781 1.062 7.592 1.241 11.445.425 9.177-1.088 17.975-4.628 26.431-2.391 5.712-5.699 10.864-9.566 15.693-2.742 3.424-5.658 6.676-8.804 9.726-.343.333-.711.64-1.066.958l-.227.225.026-.022c-.373.021-.661.233-.971.409-1.512.856-3.032 1.699-4.549 2.546-.043-.621-.648-.854-.92-1.34a1311.892 1311.892 0 00-8.231-14.458c-3.18-5.503-6.426-10.969-9.572-16.491-.519-.911-1.351-1.691-1.449-2.826-.016-.363.245-.564.455-.805 1.967-2.264 3.534-4.775 4.611-7.58 2.088-5.438 2.424-11.033 1.412-16.728-.765-4.303-2.563-8.144-5.465-11.421-4.086-4.614-9.176-7.468-15.235-8.661-1.025-.202-2.11-.177-3.083-.643 1.402-1.201 3.101-1.917 4.673-2.838 4.81-2.818 9.638-5.603 14.465-8.391 5.034-2.908 10.064-5.823 15.118-8.697 2.417-1.375 4.747-2.91 7.274-4.093z"/><path fill-rule="evenodd" clip-rule="evenodd" fill="#FBAC4B" d="M157.049 145.263c-.583-1.2-.528-2.53-.742-3.799-.719-4.261-.594-8.572-.468-12.861.165-5.606 1.044-11.127 2.518-16.552a62.99 62.99 0 014.338-11.468 59.649 59.649 0 016.616-10.479c2.042-2.591 4.186-5.1 6.621-7.327 5.693-5.206 12.015-9.452 19.134-12.503 2.638-1.131 5.344-2.05 8.04-3.009a.793.793 0 01.227.027c1.509 3.234 3.479 6.214 5.23 9.313 1.677 2.97 3.409 5.912 5.1 8.877 2.933 5.144 5.956 10.236 8.945 15.347.225.385.437.765.395 1.23-1.867.395-3.751.716-5.571 1.314-5.351 1.758-9.791 4.838-13.435 9.122-2.185 2.568-3.724 5.452-4.573 8.71-.46.011-.828.247-1.211.469-5.896 3.419-11.796 6.834-17.697 10.245-6.074 3.511-12.135 7.045-18.237 10.507-1.723.977-3.324 2.193-5.23 2.837z"/><path fill-rule="evenodd" clip-rule="evenodd" fill="#FFF" d="M302.486 267.183c-2.785-3.373-5.578-6.739-8.353-10.121-3.197-3.896-6.364-7.817-9.569-11.706-2.107-2.557-4.273-5.065-6.388-7.615-2.11-2.546-4.182-5.125-6.284-7.677-1.655-2.009-3.339-3.994-4.997-6-2.184-2.641-4.345-5.299-6.533-7.935-2.116-2.549-4.262-5.074-6.38-7.622-1.46-1.756-2.88-3.547-4.355-5.291-.362-.429-.142-.645.146-.874 2.798-2.234 5.612-4.448 8.401-6.692a247.43 247.43 0 005.28-4.367c2.413-2.055 4.851-4.083 7.09-6.334.096-.096.292-.094.44-.137 2.304 3.964 4.613 7.924 6.91 11.892a15253.31 15253.31 0 0110.114 17.5c3.208 5.559 6.408 11.123 9.618 16.682 3.349 5.8 6.699 11.6 10.061 17.392 1.759 3.03 3.547 6.044 5.322 9.066l-6.504 7.418c-.958.592-1.47 1.603-2.217 2.393-.646.682-1.177 1.228-1.802.028z"/><path fill-rule="evenodd" clip-rule="evenodd" fill="#F8973A" d="M223.003 102.059c.042-.466-.169-.846-.395-1.23-2.99-5.111-6.012-10.204-8.945-15.347-1.691-2.965-3.423-5.907-5.1-8.877-1.75-3.099-3.721-6.079-5.23-9.313 3.734-1.192 7.567-1.916 11.443-2.458 4.883-.683 9.788-1.045 14.713-.931 4.353.102 8.682.483 13.002 1.125 8.477 1.259 16.456 3.933 23.972 8.002 2.678 1.449 5.246 3.093 7.644 4.983-2.528 1.183-4.858 2.718-7.277 4.094-5.054 2.874-10.084 5.789-15.118 8.697-4.827 2.788-9.655 5.573-14.465 8.391-1.572.921-3.271 1.637-4.673 2.839-3.112-.173-6.224-.383-9.334.028a.591.591 0 00-.237-.003z"/><path fill-rule="evenodd" clip-rule="evenodd" fill="#48904E" d="M392.692 215.269c-2.207 1.115-4.625 1.457-7.002 1.987-2.3.513-4.647.537-6.953.612a38.169 38.169 0 01-7.573-.486c-3.693-.622-7.283-1.576-10.673-3.241-2.272-1.115-4.438-2.381-6.404-3.962-4.55-3.66-8.018-8.167-10.423-13.493-1.821-4.034-3.115-8.225-3.774-12.603-.299-1.981-.26-1.931 1.793-2.374 5.14-1.111 10.273-2.251 15.395-3.442.907-.211 1.179-.197 1.315.876.572 4.495 1.225 9.034 3.758 12.92 3.017 4.628 7.312 7.389 12.871 8.176 3.648.517 7.241.487 10.699-.792 6.417-2.374 10.536-6.945 12.222-13.579.852-3.351.902-6.765.054-10.155-.057-.228-.026-.478-.036-.717.209.015.374.093.489.285.959 1.6 1.945 3.185 2.881 4.798 2.342 4.038 4.703 8.066 6.976 12.142 1.269 2.275 2.749 4.432 3.815 6.819-1.925 3.774-4.856 6.721-7.883 9.59-.239.226-.649.085-.808.432l-.202.263.018-.017c-.156.022-.336 0-.464.072-3.398 1.905-6.838 3.737-10.091 5.889z"/><path fill-rule="evenodd" clip-rule="evenodd" fill="#5266AF" d="M335.562 296.711c-.89-2.043-2.194-3.853-3.285-5.783-2.814-4.982-5.713-9.917-8.585-14.866a6250.298 6250.298 0 00-8.651-14.857c-.161-.275-.382-.513-.396-.852l.152-.338c.458-.042.808-.321 1.187-.54 5.495-3.173 10.993-6.342 16.486-9.519 5.284-3.057 10.563-6.123 15.845-9.185 3.43 3.825 7.283 7.238 10.721 11.061 2.135 2.374 4.454 4.59 6.779 6.783.78.735.695 1.254.148 1.985-3.144 4.202-6.323 8.371-9.695 12.397-3.38 4.035-6.825 8.011-10.294 11.969-3.24 3.697-6.478 7.395-9.827 10.994-.195.209-.383.407-.379.715l-.206.036z"/><path fill-rule="evenodd" clip-rule="evenodd" fill="#1D9960" d="M412.122 199.041c-1.066-2.387-2.547-4.544-3.815-6.819-2.273-4.076-4.633-8.104-6.976-12.142-.936-1.613-1.922-3.198-2.881-4.798-.115-.192-.28-.27-.489-.285l.003.004-.187-.484a1.156 1.156 0 01-.059-.226l-.185-.253-.072-.465-.177-.237c-.682-1.78-1.765-3.316-2.923-4.806l-.243-.252.005.005c-.316-1.857-1.511-3.294-2.392-4.867-2.136-3.815-4.385-7.568-6.579-11.352-1.478-2.549-2.961-5.096-4.399-7.667-.965-1.727-2.154-3.326-2.934-5.157 3.751 1.343 7.374 3.009 11.08 4.461 4.584 1.797 8.936 4.016 13.008 6.777 5.059 3.43 9.268 7.657 11.963 13.21 1.736 3.576 2.67 7.381 3.085 11.351.225 2.157.254 4.303.168 6.442-.192 4.801-1.116 9.461-3.063 13.897-.539 1.229-1.152 2.414-1.737 3.617a4.503 4.503 0 01-.201.046z"/><path fill-rule="evenodd" clip-rule="evenodd" fill="#D2DF4F" d="M392.106 112.797c-1.887-1.032-3.765-2.11-5.916-2.489-6.106-1.079-11.939-.563-17.007 3.402-1.449 1.134-2.809 2.465-3.681 4.167-.064.003-.128.01-.191.021-.02-.117-.008-.253-.063-.35-1.744-3.035-3.446-6.094-5.259-9.087-1.438-2.373-2.602-4.91-4.285-7.134l.03-.226c1.054-.401 1.795-1.256 2.674-1.9 4.274-3.133 9.088-4.943 14.22-6.033 3.878-.824 7.824-.942 11.736-.674 6.483.444 12.491 2.445 17.744 6.396 1.922 1.445 3.838 2.912 5.29 4.874-2.502 1.471-5.01 2.931-7.503 4.416-2.594 1.543-5.309 2.883-7.789 4.617z"/><path fill-rule="evenodd" clip-rule="evenodd" fill="#48904E" d="M377.82 139.239c.779 1.832 1.968 3.43 2.934 5.157 1.438 2.572 2.921 5.118 4.399 7.667 2.193 3.784 4.442 7.536 6.579 11.352.881 1.573 2.076 3.01 2.392 4.867-1.655-1.531-3.246-3.138-5.199-4.311-3.146-1.891-6.455-3.434-9.842-4.85-5.374-2.245-10.855-4.264-15.966-7.095-3.147-1.743-6.064-3.806-8.709-6.275a35.913 35.913 0 01-5.395-6.388c-.307-.46-.602-.921-.685-1.483l16.037-9.212c2.862 5.373 7.679 8.25 13.146 10.296l.309.275z"/><path fill-rule="evenodd" clip-rule="evenodd" fill="#FBDC39" d="M364.363 128.668l-16.037 9.212c-1.611-2.378-2.357-5.092-2.893-7.852a28.233 28.233 0 01-.512-6.514c.262-6.605 2.217-12.579 6.453-17.748 1.32-1.61 2.806-3.038 4.329-4.44 1.683 2.224 2.848 4.762 4.285 7.134 1.812 2.993 3.515 6.052 5.259 9.087.056.097.044.232.064.35-.087.26-.155.529-.264.78-1.073 2.459-1.713 4.983-1.17 7.687.155.77.324 1.536.486 2.304z"/><path fill-rule="evenodd" clip-rule="evenodd" fill="#48904E" d="M348.313 240.772c-5.281 3.062-10.561 6.128-15.845 9.185-5.493 3.177-10.991 6.346-16.486 9.519-.378.219-.729.498-1.188.539-.871-.7-1.51-1.534-1.562-2.706 1.451-1.982 3.194-3.715 4.775-5.586 2.114-2.502 4.244-4.993 6.341-7.511a715.554 715.554 0 006.839-8.32c1.656-2.052 3.26-4.146 4.871-6.234.377-.488.644-.87 1.271-.217 3.644 3.794 7.32 7.557 10.984 11.331z"/><path fill-rule="evenodd" clip-rule="evenodd" fill="#9B3895" d="M359.292 337.436l.472-.291c1.84 1.862 3.333 4.017 5.017 6.012 2.32 2.747 4.538 5.581 6.79 8.384 2.179 2.711 4.331 5.442 6.522 8.142 2.618 3.225 5.26 6.43 7.906 9.631.302.366.565.735.825 1.33h-8.331l-.446-.096c-.055-.228-.061-.484-.172-.68-1.924-3.383-3.847-6.766-5.798-10.133-3.265-5.633-6.583-11.236-9.805-16.894-1.017-1.785-2.222-3.474-2.98-5.405z"/><path fill-rule="evenodd" clip-rule="evenodd" fill="#FFF" d="M335.562 296.711l.204-.036c3.322 5.769 6.644 11.539 9.968 17.307a15904.71 15904.71 0 009.799 16.99c.149.258.187.52.186.802-1.971-1.939-3.542-4.214-5.293-6.337-2.254-2.734-4.48-5.491-6.717-8.239-2.137-2.626-4.279-5.248-6.407-7.881-2.078-2.571-4.14-5.155-6.215-7.74l4.475-4.866z"/><path fill-rule="evenodd" clip-rule="evenodd" fill="#4AA65F" d="M313.233 257.309c.052 1.172.69 2.006 1.562 2.706l-.151.338c-2.386 1.345-4.775 2.688-7.157 4.04-.312.177-.593.41-.982.367l6.504-7.418c.075-.01.15-.022.224-.033z"/><path fill-rule="evenodd" clip-rule="evenodd" fill="#5266AF" d="M392.692 215.269c3.253-2.151 6.692-3.984 10.09-5.888.128-.072.308-.05.464-.072-2.993 2.689-6.486 4.525-10.199 5.985-.1.039-.236-.015-.355-.025z"/><path fill-rule="evenodd" clip-rule="evenodd" fill="#48904E" d="M270.053 182.986c1.517-.848 3.037-1.69 4.549-2.546.311-.176.599-.388.971-.409a57.801 57.801 0 01-4.569 4.572c-.319-.583-.836-.933-1.42-1.204.031-.281.339-.246.469-.413zm127.724-8.469l.187.484c-.266-.084-.236-.28-.187-.484z"/><path fill-rule="evenodd" clip-rule="evenodd" fill="#FFF" d="M356.191 332.48l-.252-.282.252.282zm-.233-.258c-.14-.041-.228-.122-.21-.281l.21.281z"/><path fill-rule="evenodd" clip-rule="evenodd" fill="#48904E" d="M275.548 180.053l.227-.225-.227.225zm118.57-11.776l.243.252-.243-.252zm3.166 5.059l.177.237c-.128-.028-.212-.088-.177-.237z"/><path fill-rule="evenodd" clip-rule="evenodd" fill="#5266AF" d="M403.229 209.325l.202-.263-.202.263z"/><path fill-rule="evenodd" clip-rule="evenodd" fill="#48904E" d="M397.533 174.038l.185.253c-.13-.034-.218-.1-.185-.253z"/><path fill-rule="evenodd" clip-rule="evenodd" fill="#FBEF51" d="M270.053 182.986c-.13.167-.438.132-.468.412-9.104 5.243-18.21 10.481-27.311 15.729-10.174 5.866-20.344 11.741-30.515 17.612-11.659 6.73-23.316 13.465-34.979 20.189-2.109 1.216-4.241 2.392-6.363 3.585-.207-.027-.339-.118-.452-.321-.634-1.147-1.292-2.282-1.945-3.418-2.56-4.45-5.095-8.914-7.692-13.342-1.407-2.399-2.688-4.877-4.293-7.157l.02-.217c3.172-2.14 6.22-4.458 9.433-6.543 3.179-2.063 6.285-4.24 9.38-6.428 3.545-2.506 7.273-4.755 10.602-7.616-1.955-2.076-3.834-4.277-5.727-6.469-3.729-4.316-7.105-8.891-10.206-13.667-4.451-6.858-8.109-14.116-10.563-21.932-.834-2.657-1.66-5.338-1.924-8.14 1.905-.644 3.507-1.859 5.229-2.836 6.102-3.461 12.163-6.996 18.237-10.507 5.901-3.411 11.801-6.826 17.697-10.245.383-.222.751-.458 1.211-.468-.792 3.208-1.067 6.42-.723 9.747.404 3.897 1.43 7.589 2.942 11.156 2.613 6.165 6.833 11.252 11.105 16.301 2.17 2.564 4.291 5.17 6.417 7.772.999 1.224 1.954 2.483 2.933 3.723.364.46.646.615 1.242.134 1.841-1.485 3.797-2.827 5.663-4.282 3.708-2.89 7.406-5.79 11.028-8.791a107.833 107.833 0 009.636-9.066l.213-.029c.099 1.135.93 1.915 1.449 2.826 3.146 5.522 6.393 10.987 9.572 16.491 2.774 4.802 5.52 9.621 8.231 14.458.273.485.878.718.921 1.339z"/><path fill-rule="evenodd" clip-rule="evenodd" fill="#48904E" d="M170.421 240.723c1.421 2.974 3.298 5.691 4.839 8.596 1.001 1.887 2.283 3.617 3.097 5.606-1.636 2.011-3.641 3.667-5.343 5.628-3.153 3.632-5.826 7.538-7.777 11.936-1.448 3.262-2.453 6.684-2.664 10.219-.2 3.356-.173 6.737.379 10.112 1.044 6.396 3.342 12.264 6.802 17.716 3.102 4.889 6.839 9.225 11.285 12.926 1.841 1.534 3.794 2.931 5.803 4.257 1.717 1.133 3.572 1.999 5.304 3.088-.358.251-.699.533-1.077.75-7.613 4.391-15.233 8.769-22.844 13.164-5.914 3.415-11.817 6.849-17.725 10.274-2.712-2.202-5.394-4.444-7.786-6.993-5.363-5.713-10.165-11.838-13.966-18.736-3.731-6.771-6.405-13.926-8.125-21.433-.727-3.175-1.227-6.403-1.574-9.66-.477-4.469-.815-8.942-.65-13.425.187-5.045.648-10.077 1.718-15.029.022-.106.138-.192.211-.289 3.846-2.203 7.697-4.397 11.538-6.608 9.899-5.698 19.788-11.417 29.696-17.099 2.942-1.686 5.811-3.501 8.859-5z"/><path fill-rule="evenodd" clip-rule="evenodd" fill="#5266AF" d="M150.5 354.996c5.908-3.426 11.811-6.86 17.725-10.274 7.611-4.395 15.231-8.772 22.844-13.164.377-.218.719-.499 1.076-.751 1.563.633 3.105 1.33 4.697 1.887 3.843 1.345 7.787 2.126 11.87 2.456 3.438.278 6.786.007 10.146-.543 1.705-.28 3.396-.643 5.094-.968 3.489 6.022 6.989 12.039 10.464 18.07 3.217 5.584 6.406 11.184 9.608 16.776.473.826 1.058 1.595 1.291 2.542-3.429 1.411-7.014 2.296-10.605 3.167-2.984.723-6.021 1.16-9.048 1.636-1.637.258-3.297.468-4.95.496-3.266.055-6.521.411-9.793.272-11.524-.491-22.825-2.207-33.678-6.266-5.957-2.229-11.667-4.975-17.049-8.4-3.361-2.139-6.602-4.427-9.692-6.936z"/><path fill-rule="evenodd" clip-rule="evenodd" fill="#F8973A" d="M85.03 93.114c.072.021.141.05.207.085 1.045 1.872 2.078 3.75 3.138 5.613 2.062 3.625 4.141 7.24 6.213 10.86-4.692.368-9.399.677-13.893 2.237-4.41 1.531-8.53 3.639-12.215 6.531-6.133 4.814-10.933 10.708-14.154 17.827-1.803 3.985-2.865 8.18-3.453 12.526-.429 3.174-.587 6.351-.404 9.519.33 5.722 1.547 11.253 3.941 16.517 2.666 5.861 6.578 10.762 11.295 15.053 1.782 1.621 3.679 3.132 5.811 4.301.22.121.401.25.515.471-.5.236-1.018.439-1.497.711a568.606 568.606 0 00-5.563 3.211c-3.251 1.897-6.496 3.804-9.744 5.706-.947-.384-1.623-1.159-2.341-1.812-4.18-3.799-7.969-7.954-11.113-12.671-4.343-6.514-7.302-13.614-8.783-21.287-.621-3.219-.88-6.501-1.112-9.79-.198-2.805-.022-5.569.145-8.326.24-3.978.955-7.915 2.045-11.771 1.984-7.018 5.121-13.477 9.357-19.403 3.058-4.278 6.514-8.19 10.475-11.681 4.169-3.674 8.7-6.753 13.706-9.146 5.102-2.438 10.43-4.152 16.028-5.002.469-.07.93-.185 1.396-.279z"/><path fill-rule="evenodd" clip-rule="evenodd" fill="#FBDC39" d="M55.228 204.282c3.248-1.902 6.493-3.809 9.744-5.706a548.949 548.949 0 015.563-3.211c.479-.272.997-.476 1.497-.711 2.179 1.038 4.271 2.25 6.55 3.089 3.357 1.236 6.797 2.021 10.341 2.511 1.78.246 3.595.371 5.328.344 5.505-.084 10.942-.701 16.111-2.963 5.807-2.541 10.921-6.082 15.754-10.1.122-.101.25-.197.384-.279.195-.118.399-.222.733-.405v1.978c0 6.357-.018 12.714.02 19.071.005.884-.292 1.311-1.074 1.724-5.386 2.852-10.987 5.146-16.934 6.506a70.71 70.71 0 01-8.529 1.409c-2.019.209-4.057.278-6.051.314-2.31.043-4.668-.102-7.005-.327-3.437-.33-6.823-.883-10.149-1.752-7.008-1.832-13.466-4.859-19.331-9.136-1.017-.745-2.098-1.406-2.952-2.356zm115.193 36.441c-3.048 1.499-5.917 3.314-8.858 5-9.909 5.683-19.797 11.401-29.696 17.099-3.841 2.211-7.692 4.406-11.539 6.608.21-2.378.964-4.629 1.632-6.898 1.483-5.038 3.504-9.858 5.982-14.484 2.569-4.796 5.632-9.264 9.009-13.529 3.126-3.95 6.666-7.512 10.309-10.962 2.758-2.612 5.629-5.121 8.774-7.282 1.605 2.28 2.886 4.758 4.293 7.157 2.597 4.428 5.132 8.893 7.692 13.342.653 1.137 1.312 2.271 1.945 3.418.113.204.245.294.452.321.003.071.004.14.005.21z"/><path fill-rule="evenodd" clip-rule="evenodd" fill="#FBAC4B" d="M94.588 109.672c-2.072-3.62-4.15-7.235-6.213-10.86-1.061-1.863-2.093-3.741-3.138-5.613.92-.434 1.945-.362 2.905-.467a66.398 66.398 0 0111.581-.237c6.756.45 13.28 2.039 19.523 4.724 2.543 1.094 5.007 2.338 7.426 3.679.369.205.574.43.573.912-.019 6.992-.013 13.983-.013 21.051-1.072-.177-1.672-.991-2.367-1.548a56.17 56.17 0 00-12.077-7.409c-4.21-1.897-8.6-3.217-13.227-3.764-1.573-.186-3.173.059-4.713-.396-.087-.023-.173-.048-.26-.072z"/><path fill-rule="evenodd" clip-rule="evenodd" fill="#1D9960" d="M392.106 112.797c2.48-1.734 5.195-3.074 7.788-4.618 2.493-1.485 5.001-2.945 7.503-4.416 2.66 2.477 4.53 5.549 6.475 8.566.5.776-.311.911-.636 1.112-1.84 1.143-3.734 2.199-5.599 3.304a554.39 554.39 0 00-7.297 4.382c-.862.53-1.394.614-1.962-.47-1.578-3.011-3.831-5.519-6.272-7.86z"/><path fill-rule="evenodd" clip-rule="evenodd" fill="#F7B3BF" d="M364.363 128.668c-.163-.768-.332-1.535-.486-2.304-.543-2.704.097-5.228 1.17-7.687.109-.25.177-.52.264-.78.063-.011.127-.018.191-.021 3.813 6.595 7.63 13.188 11.436 19.788.235.408.545.795.573 1.3-5.469-2.045-10.285-4.922-13.148-10.296z"/><path fill-rule="evenodd" clip-rule="evenodd" fill="#994E9E" d="M359.292 337.436c.758 1.931 1.963 3.621 2.98 5.407 3.222 5.658 6.54 11.26 9.805 16.894 1.951 3.367 3.874 6.75 5.798 10.133.111.196.117.452.172.68-1.398.014-2.796.04-4.194.041-13.951.003-27.902-.021-41.854.035-1.472.006-2.468-.342-3.395-1.542-2.433-3.152-5.014-6.19-7.527-9.28-.088-.108-.089-.288-.13-.433 2.884-1.627 5.78-3.233 8.65-4.885 7.161-4.122 14.305-8.272 21.467-12.393 2.732-1.572 5.403-3.251 8.228-4.657z"/><path fill-rule="evenodd" clip-rule="evenodd" fill="#FFF" d="M178.569 254.895c1.704-1.405 3.28-2.952 4.971-4.377 2.859-2.411 5.798-4.716 8.728-7.037 4.801-3.803 9.806-7.322 14.777-10.889 1.75-1.255 3.562-2.423 5.302-3.69.426-.31.621-.301.927.078 3.789 4.677 7.568 9.363 11.388 14.016 3.175 3.867 6.417 7.679 9.597 11.543 3.125 3.798 6.189 7.645 9.311 11.445 2.775 3.379 5.61 6.71 8.387 10.09 2.721 3.313 5.354 6.7 8.124 9.972 1.067 1.261 1.993 2.657 3.27 3.738.725 1.314 1.8 2.359 2.733 3.511a488.39 488.39 0 005.903 7.107c.297.352.161.545-.089.796-2.527 2.539-5.16 4.964-7.813 7.37a240.985 240.985 0 01-5.9 5.164c-4.331 3.674-8.896 7.018-13.657 10.112-5.572 3.622-11.463 6.578-17.712 8.822-.918.33-1.888.514-2.833.766-3.206-5.103-6.068-10.405-9.111-15.603-3.489-5.958-6.914-11.954-10.364-17.935-3.45-5.981-6.888-11.969-10.348-17.944-3.579-6.18-7.189-12.343-10.765-18.526-1.636-2.827-3.219-5.685-4.826-8.529z"/><path fill-rule="evenodd" clip-rule="evenodd" fill="#F7B3BF" d="M178.569 254.895c1.606 2.844 3.189 5.702 4.824 8.529 3.575 6.183 7.186 12.346 10.765 18.526 3.46 5.975 6.897 11.963 10.348 17.944 3.451 5.98 6.875 11.976 10.364 17.935 3.043 5.197 5.905 10.5 9.111 15.603l-.029.207c-1.698.325-3.389.688-5.094.968-3.359.551-6.707.822-10.146.543-4.083-.33-8.027-1.111-11.87-2.456-1.592-.557-3.134-1.254-4.697-1.887-1.731-1.089-3.587-1.955-5.304-3.088-2.009-1.326-3.962-2.723-5.803-4.257-4.445-3.702-8.183-8.037-11.285-12.926-3.459-5.452-5.757-11.319-6.802-17.716-.552-3.375-.579-6.755-.379-10.112.211-3.535 1.216-6.957 2.664-10.219 1.952-4.397 4.625-8.304 7.777-11.936 1.702-1.961 3.707-3.617 5.343-5.628l.213-.03zM249.88 147.87l-.213.029c-2.129-3.69-4.26-7.378-6.385-11.07-3.118-5.417-6.227-10.84-9.349-16.255-3.559-6.173-7.128-12.341-10.693-18.511 3.11-.411 6.222-.202 9.334-.028.972.465 2.058.44 3.083.642 6.059 1.193 11.149 4.047 15.235 8.661 2.902 3.277 4.7 7.118 5.465 11.421 1.013 5.695.676 11.29-1.412 16.728-1.077 2.805-2.644 5.316-4.611 7.58-.209.239-.47.44-.454.803z"/><path fill-rule="evenodd" clip-rule="evenodd" fill="#FFF" d="M223.24 102.062c3.565 6.17 7.134 12.338 10.693 18.511 3.122 5.415 6.23 10.838 9.349 16.255 2.125 3.692 4.256 7.38 6.385 11.07a107.833 107.833 0 01-9.636 9.066c-3.622 3.001-7.32 5.901-11.028 8.791-1.866 1.455-3.822 2.797-5.663 4.282-.596.481-.878.327-1.242-.134-.979-1.24-1.934-2.5-2.933-3.723-2.125-2.602-4.247-5.208-6.417-7.772-4.271-5.048-8.492-10.136-11.105-16.301-1.512-3.567-2.539-7.258-2.942-11.156-.345-3.327-.069-6.539.723-9.747.849-3.259 2.388-6.143 4.573-8.711 3.644-4.283 8.084-7.364 13.435-9.122 1.82-.598 3.704-.92 5.571-1.314a.63.63 0 01.237.005z"/></g></switch></svg>