<svg version="1.1"
     baseProfile="full"
     width="1000" height="1000"
     xmlns:xlink="http://www.w3.org/1999/xlink"
     xmlns="http://www.w3.org/2000/svg">

  <defs>
    <path id="MyPath"
          d="M 345 295
            L 345 275
            L 345 295 z"
          stroke-width="4"
             />
  </defs>

  <use xlink:href="#MyPath" fill="none" stroke="red"  />

  <circle cx="500" cy="500" r="300" fill="white" />
  <rect width="100%" height="100%" fill="white" />

  <polygon points="139 66   355 38   571 66
                   571 416  355 444  139 416"
      stroke="#b22d00" fill="white" stroke-width="15"/>


  <text x="154" y="245" font-size="160" text-anchor="start" fill="#b22d00" font-family="Futura">
    C
  </text>
  <text x="371" y="400" font-size="400" text-anchor="middle" fill="#b22d00" font-family="Futura">
    &amp;
  </text>
  <text x="555" y="245" font-size="160" text-anchor="end" fill="#b22d00" font-family="Futura">
    S
  </text>

<g transform="translate(0.000000,480.000000) scale(0.100000,-0.100000)"
fill="#000000" stroke="none">

<path fill-opacity="0.6" d="M2906 4365 c-340 -46 -684 -91 -765 -100 -80 -9 -204 -24 -276 -35
-71 -10 -191 -26 -265 -34 -74 -9 -152 -19 -172 -22 l-38 -6 0 -486 c0 -718
-35 -3026 -46 -3081 -4 -18 -2 -22 10 -18 9 4 156 -12 327 -34 172 -22 319
-38 328 -36 9 2 -17 7 -56 11 -65 7 -73 10 -73 30 -1 18 -2 19 -13 5 -7 -8
-25 -15 -42 -14 -88 3 -106 6 -101 13 2 4 -12 6 -32 4 -22 -2 -32 0 -25 5 8 6
9 13 2 23 -8 13 -11 13 -20 -2 -14 -24 -32 -23 -24 2 5 15 0 22 -20 30 -37 14
-66 12 -84 -4 -9 -8 -33 -17 -53 -21 l-37 -7 4 39 c3 29 2 33 -5 16 -10 -24
-45 -47 -60 -38 -5 3 -7 15 -4 28 3 12 7 254 9 537 6 793 18 1089 44 1098 6 2
9 8 5 13 -7 12 15 79 27 79 5 0 9 8 9 18 0 13 2 14 9 3 5 -8 11 -9 15 -3 3 5
-1 12 -8 15 -12 5 -12 11 -3 31 7 14 18 26 26 26 7 0 11 6 8 14 -3 8 -1 16 5
18 6 2 11 18 11 36 0 27 4 32 24 32 14 0 21 -4 18 -10 -4 -6 -10 -8 -15 -5 -5
3 -3 -12 5 -34 14 -39 15 -77 3 -97 -4 -5 -3 -16 3 -24 16 -26 11 -46 -6 -24
-14 18 -15 17 -5 -8 6 -18 6 -29 0 -33 -6 -4 -10 -12 -9 -18 0 -9 2 -9 6 1 2
6 9 12 14 12 6 0 7 -5 4 -10 -12 -19 -24 -70 -15 -65 14 8 22 -28 8 -37 -10
-8 -11 -11 0 -15 34 -14 42 -35 44 -121 1 -48 1 -99 0 -114 -1 -16 3 -28 8
-28 7 0 10 30 7 84 -2 46 0 92 4 102 5 13 8 3 8 -29 1 -34 6 -49 17 -54 12 -4
13 -8 3 -13 -17 -11 -3 -41 16 -34 19 8 19 -5 0 -30 -20 -26 -19 -32 5 -32 11
0 20 6 20 13 0 6 5 15 12 19 8 5 9 2 5 -9 -4 -12 -1 -17 9 -17 10 0 14 5 10
15 -15 36 -16 48 -4 27 13 -21 15 -21 31 -5 11 11 17 13 17 5 0 -15 36 -16 45
-2 4 6 2 16 -4 23 -7 9 -2 16 20 26 16 7 29 20 29 28 0 12 3 13 15 3 12 -10
15 -7 21 14 3 14 9 24 13 21 4 -2 8 2 8 10 0 21 -12 19 -28 -5 -10 -15 -18
-17 -29 -10 -13 8 -11 11 8 16 16 5 21 12 17 25 -4 12 1 22 15 29 12 6 19 14
16 17 -2 3 0 17 5 32 6 14 12 51 14 81 2 30 8 69 14 87 5 18 7 42 5 55 -2 13
1 9 8 -9 l13 -32 12 25 c10 22 10 24 -3 14 -11 -10 -14 -9 -14 8 0 12 -4 24
-10 27 -5 3 -10 12 -10 18 0 7 4 6 10 -3 5 -8 10 -10 10 -4 0 6 -3 14 -7 17
-3 4 -8 18 -9 32 -2 17 1 23 9 18 7 -4 5 4 -4 17 -9 14 -18 37 -21 52 -4 22
-2 26 16 23 18 -4 19 -3 6 8 -17 13 -19 26 -8 43 4 6 2 28 -4 48 -11 34 -10
40 7 52 10 8 13 14 7 14 -7 0 -12 12 -12 26 0 14 4 23 10 19 6 -3 10 -1 10 5
0 6 -7 13 -15 16 -8 4 -15 12 -15 19 0 7 -7 18 -15 25 -8 7 -12 16 -9 21 3 5
-3 6 -12 2 -13 -5 -15 -3 -9 7 5 8 4 11 -3 6 -6 -3 -13 -2 -17 4 -8 12 -53 12
-80 0 -14 -7 -9 -8 18 -4 30 5 45 1 77 -20 l40 -26 0 -82 c0 -79 -1 -83 -32
-116 l-33 -34 33 -27 c30 -26 32 -31 32 -97 0 -60 -4 -76 -33 -124 -36 -60
-43 -63 -204 -113 l-83 -25 0 302 0 303 83 26 c45 15 68 24 51 21 -21 -3 -35
0 -44 11 -11 13 -10 15 3 10 8 -4 18 -1 23 6 5 8 3 10 -7 4 -11 -6 -11 -5 -2
5 12 13 37 4 28 -11 -3 -5 1 -6 9 -3 25 10 30 44 9 60 -17 14 -17 14 4 4 27
-13 36 -27 23 -35 -6 -4 -8 -11 -4 -16 3 -6 13 -1 22 12 14 20 14 23 -4 35
-10 7 -27 21 -36 30 -12 11 -18 13 -18 5 0 -7 -4 -10 -9 -7 -5 3 -3 23 4 43 8
22 9 39 4 41 -12 5 -12 42 0 42 5 0 9 12 9 28 -1 49 2 63 12 57 9 -5 15 37 8
49 -2 2 4 12 14 22 9 11 19 36 23 56 4 21 11 36 15 33 4 -2 6 6 5 20 -2 13 3
26 11 29 8 3 14 14 14 25 0 11 5 23 10 26 6 4 8 10 5 15 -3 5 4 15 16 23 15
11 17 16 7 20 -7 3 -1 6 15 6 16 1 27 7 27 15 0 25 30 27 40 3 7 -18 9 -19 9
-4 1 13 7 17 24 15 12 -2 21 2 20 7 -1 6 10 11 23 11 13 1 24 -2 24 -7 0 -5
-7 -9 -15 -9 -8 0 -15 -4 -15 -10 0 -5 6 -10 13 -9 18 1 54 17 40 18 -7 1 -13
6 -13 12 0 7 9 9 23 6 12 -4 28 -2 36 2 17 11 43 3 35 -10 -3 -5 6 -5 20 1 21
8 24 7 19 -7 -5 -14 0 -15 43 -9 67 10 104 9 120 -5 10 -8 14 -8 14 0 0 6 11
11 25 11 19 0 25 -5 25 -21 0 -12 4 -17 11 -13 6 3 8 15 6 26 -4 14 -2 18 9
14 8 -3 14 0 14 6 0 9 3 9 12 0 14 -14 52 -16 43 -3 -10 18 34 23 51 6 9 -9
23 -14 30 -11 8 3 11 0 7 -10 -4 -11 4 -10 40 5 42 18 46 18 52 3 5 -13 9 -14
12 -4 4 10 9 9 24 -4 22 -20 38 -12 19 11 -8 10 -9 15 -1 15 6 0 11 -3 11 -7
0 -5 11 -8 24 -8 13 0 22 3 19 8 -6 10 5 9 29 -4 12 -6 18 -7 14 -1 -3 5 1 13
10 16 13 5 15 1 12 -19 -3 -14 -1 -25 3 -25 5 0 9 6 9 14 0 9 8 12 25 8 14 -2
25 -8 25 -12 0 -5 11 -7 25 -5 15 1 29 -4 35 -14 9 -15 9 -14 10 1 0 9 4 20
10 23 5 3 7 0 4 -8 -3 -8 2 -14 11 -14 8 0 15 4 15 9 0 5 5 6 10 3 6 -3 10 -1
10 4 0 16 32 13 58 -5 14 -10 32 -14 48 -10 14 4 24 2 24 -4 0 -6 5 -8 10 -5
6 3 10 -3 10 -14 0 -11 4 -22 9 -25 4 -3 6 7 4 22 l-3 27 11 -25 c12 -25 15
-33 18 -47 1 -5 6 -1 12 7 8 12 10 9 6 -11 -3 -25 -1 -26 30 -24 35 2 40 -4
21 -24 -11 -10 -7 -11 17 -6 17 4 26 3 20 -2 -12 -10 -16 -43 -5 -43 5 0 10
-29 12 -65 1 -36 0 -65 -3 -65 -3 0 -6 -7 -7 -15 -1 -8 -3 -22 -4 -30 -1 -8
-5 -15 -10 -15 -4 0 -8 -7 -8 -15 0 -8 6 -15 13 -15 8 0 7 -4 -3 -11 -11 -8
-8 -9 13 -4 36 7 28 -8 -13 -25 -16 -7 -30 -17 -30 -23 0 -13 -48 -57 -62 -57
-4 0 -8 -5 -8 -12 0 -9 3 -9 12 0 15 15 38 16 38 1 0 -5 -5 -7 -12 -3 -8 5 -8
3 -2 -7 11 -17 13 -59 2 -53 -4 3 -8 0 -8 -5 0 -6 5 -11 10 -11 6 0 10 -5 10
-11 0 -5 -5 -7 -12 -3 -8 5 -9 2 -5 -11 4 -9 3 -23 -3 -30 -8 -10 -8 -19 2
-34 10 -17 10 -25 0 -41 -15 -24 -16 -33 -2 -25 6 3 7 -1 4 -9 -3 -9 -1 -16 5
-16 6 0 11 -4 11 -9 0 -5 -9 -7 -20 -4 -26 7 -26 -12 0 -30 l21 -14 -21 -6
c-26 -7 -28 -2 -26 55 1 26 -3 49 -9 51 -6 3 -6 9 2 19 10 11 10 17 1 26 -7 7
-8 12 -4 12 5 0 3 7 -5 16 -9 11 -9 18 -2 22 6 4 11 19 11 34 0 15 -4 25 -9
22 -5 -3 -9 0 -9 5 0 6 5 11 11 11 12 0 2 61 -11 70 -4 3 -7 28 -5 55 2 41 -1
51 -14 51 -14 0 -16 -23 -13 -220 2 -188 5 -221 19 -231 10 -8 13 -17 8 -25
-7 -11 -10 -9 -16 6 -5 13 -8 5 -8 -27 -1 -45 -3 -47 -56 -83 l-55 -36 0 126
0 127 -31 -7 c-17 -3 -53 -6 -80 -6 l-48 0 -3 -96 -3 -97 -52 -39 -53 -39 0
276 0 275 45 32 c25 17 43 34 40 36 -2 3 -11 -1 -20 -8 -10 -8 -15 -9 -15 -1
0 6 -4 11 -10 11 -5 0 -10 -9 -10 -20 0 -11 -3 -19 -7 -19 -5 1 -10 1 -13 -1
-3 -1 -16 -4 -30 -6 -24 -4 -24 -4 -5 11 11 9 14 14 8 10 -9 -4 -13 2 -13 16
0 22 0 22 -14 4 -8 -11 -13 -22 -11 -25 2 -3 -11 -5 -28 -4 -18 1 -22 -1 -10
-3 l22 -4 -26 -55 c-26 -52 -29 -54 -75 -60 l-48 -7 -2 -225 -3 -225 -52 -29
-53 -30 0 247 0 247 -60 -7 c-43 -5 -60 -4 -60 5 0 6 -5 8 -12 4 -7 -4 -8 -3
-4 5 4 6 11 9 15 7 4 -3 17 15 29 39 19 39 26 44 64 50 24 4 84 13 133 20 l90
14 -84 -6 c-66 -4 -83 -3 -79 8 2 7 11 14 19 17 11 3 11 2 -1 -7 -8 -6 -10
-11 -4 -11 16 0 23 10 17 26 -3 10 -10 11 -23 4 -9 -5 -20 -7 -23 -4 -3 3 -4
-6 -3 -20 2 -17 -2 -26 -10 -26 -8 0 -13 5 -12 11 2 6 -3 13 -10 14 -7 2 -8 1
-2 -2 5 -2 7 -9 4 -14 -3 -6 -11 -5 -20 2 -12 10 -13 9 -8 -5 4 -11 1 -16 -11
-16 -9 0 -13 5 -9 11 4 7 -1 7 -16 -1 -15 -8 -20 -8 -16 -1 4 6 2 11 -3 11 -6
0 -11 -8 -12 -17 0 -11 -3 -13 -6 -5 -7 17 -30 15 -37 -3 -3 -8 -16 -16 -28
-16 -18 -1 -19 -2 -5 -6 19 -5 18 -15 -10 -80 -15 -38 -15 -37 -95 -53 l-58
-11 0 -69 0 -68 53 14 c79 21 78 21 75 -38 l-3 -53 -62 -14 -63 -14 0 -67 0
-67 78 18 c116 28 113 29 90 -36 -12 -30 -28 -57 -37 -59 -9 -3 -67 -16 -128
-30 l-113 -24 0 293 c0 194 -4 296 -10 300 -6 4 -23 -5 -37 -19 -16 -17 -21
-26 -12 -26 16 0 39 -65 39 -110 0 -16 -5 -30 -11 -30 -8 0 -8 -4 -2 -12 13
-17 17 -162 5 -154 -6 3 -12 -1 -16 -9 -3 -9 0 -15 9 -15 16 0 18 -9 9 -34 -3
-9 -10 -14 -14 -11 -5 3 -11 1 -15 -5 -3 -5 -2 -10 3 -10 5 0 9 -18 9 -40 0
-22 -3 -40 -7 -40 -4 0 -6 -10 -5 -22 1 -13 4 -23 5 -23 1 0 4 -10 5 -22 1
-13 -2 -20 -8 -16 -6 4 -7 1 -2 -8 5 -7 10 -24 11 -38 2 -13 7 -27 11 -30 5
-3 8 -13 8 -21 -1 -8 3 -23 7 -32 5 -10 5 -18 1 -18 -9 0 -8 -453 1 -476 3 -8
2 -12 -4 -9 -5 3 -10 -46 -12 -120 -2 -69 0 -125 5 -125 12 0 8 -35 -5 -49
-10 -11 -10 -14 -1 -18 10 -4 10 -10 2 -25 -10 -18 -9 -20 7 -14 18 6 18 5 1
-8 -15 -12 -16 -14 -2 -20 8 -3 15 0 15 7 0 8 4 7 11 -3 9 -12 10 -11 6 7 -3
15 1 23 12 26 11 3 9 5 -6 6 -13 0 -23 6 -23 12 0 5 4 8 9 4 15 -8 25 15 12
28 -6 6 -11 21 -11 33 0 12 -6 25 -12 27 -8 3 -6 6 5 6 18 1 22 30 17 111 -6
90 -4 220 3 220 5 0 6 4 3 9 -3 5 -8 28 -11 51 -6 46 2 70 16 49 6 -10 8 -3 7
19 -2 33 -12 42 -21 20 -3 -7 -4 -3 -4 8 1 14 6 20 14 17 13 -5 15 5 16 65 1
22 17 32 17 10 0 -9 3 -9 11 -1 6 6 18 9 25 6 21 -8 29 26 10 40 -13 10 -9 12
30 14 36 2 44 0 36 -10 -6 -7 -8 -18 -4 -24 9 -15 44 9 40 27 -4 18 18 23 33
7 8 -7 20 -12 27 -9 19 6 -12 32 -40 33 -23 1 -23 1 2 8 14 5 29 4 35 -1 17
-15 26 -8 15 12 -9 16 -8 20 6 20 13 0 14 3 4 14 -8 11 -9 20 -1 33 9 16 10
15 11 -7 1 -25 1 -25 10 -2 12 28 22 28 20 0 -4 -43 -1 -50 20 -43 15 5 20 2
20 -12 0 -13 3 -14 8 -5 13 20 2 71 -14 65 -8 -3 -14 -1 -14 5 0 9 23 22 40
22 5 0 11 -8 13 -17 3 -11 5 -7 6 10 1 24 21 41 21 17 0 -5 8 -10 17 -10 15 0
15 1 -2 13 -12 10 -14 16 -7 21 7 4 12 2 12 -3 0 -6 4 -11 9 -11 5 0 8 11 6
25 -2 21 0 23 12 13 11 -9 11 -13 1 -19 -10 -7 -10 -9 0 -9 6 0 11 -3 11 -7
-1 -5 -1 -21 0 -37 1 -24 4 -27 23 -23 12 4 28 1 35 -5 10 -8 13 -6 14 6 1 9
3 21 4 26 1 6 3 19 4 30 0 11 8 20 16 20 8 0 15 5 15 12 0 6 3 8 6 5 4 -4 1
-15 -7 -24 -13 -16 -12 -17 4 -4 11 9 21 10 30 4 8 -6 19 -1 36 15 15 16 18
23 7 19 -9 -4 -16 -2 -16 2 0 5 7 12 16 15 8 3 12 10 9 16 -3 6 1 7 10 4 11
-5 14 -2 9 12 -5 18 -5 18 9 2 18 -23 31 -23 23 -1 -9 22 -3 16 28 -30 27 -39
25 -48 -5 -21 -10 9 -24 14 -31 11 -8 -4 -5 -8 10 -12 12 -4 22 -11 22 -16 0
-5 7 -9 15 -9 8 0 15 -7 15 -15 0 -8 -4 -15 -10 -15 -5 0 -10 -5 -10 -11 0 -5
4 -8 8 -5 5 3 8 -11 8 -29 -1 -19 -4 -35 -8 -35 -3 0 -4 -9 -1 -20 5 -17 0
-20 -33 -20 -38 0 -38 0 -16 16 12 8 22 19 22 25 0 18 -15 9 -35 -21 -17 -25
-26 -30 -62 -30 -24 0 -43 -4 -43 -9 0 -4 10 -7 23 -4 12 2 73 9 135 16 99 12
114 12 125 -2 9 -11 9 -13 0 -8 -8 5 -19 -9 -33 -41 l-21 -50 -72 -6 c-109
-10 -107 -9 -107 -72 l0 -56 63 7 64 7 31 -40 c29 -36 32 -46 32 -110 0 -63
-3 -75 -35 -123 -19 -29 -36 -56 -37 -60 -3 -6 -249 -48 -256 -44 -1 1 7 27
19 58 l21 55 84 13 84 12 0 32 c0 18 3 47 7 65 l6 33 -64 -7 -64 -6 -32 41
c-31 38 -33 47 -33 115 0 62 4 81 25 114 14 21 22 46 19 55 -6 16 -24 11 -24
-6 0 -6 5 -7 10 -4 6 3 10 1 10 -5 0 -6 -10 -8 -22 -5 -33 8 -53 -8 -40 -31 7
-13 7 -26 1 -37 -6 -9 -7 -23 -4 -30 3 -6 0 -5 -7 5 -11 15 -13 14 -25 -10
-11 -21 -11 -27 -1 -34 9 -5 9 -8 2 -8 -7 0 -15 -16 -18 -35 -4 -19 -11 -35
-17 -35 -5 0 -9 -6 -8 -12 1 -7 -2 -22 -6 -32 -6 -13 -3 -22 7 -30 19 -14 32
-86 15 -86 -7 0 -4 -7 7 -15 19 -14 33 -91 15 -79 -6 3 -8 -6 -6 -23 5 -38
-11 -83 -31 -83 -11 0 -10 -5 7 -19 16 -14 22 -28 19 -48 -2 -18 2 -27 10 -25
6 1 12 -2 12 -8 0 -5 -6 -10 -12 -10 -8 0 -5 -7 6 -15 11 -8 15 -15 8 -15 -8
0 -9 -11 -5 -32 3 -18 6 -37 7 -43 0 -5 7 -15 15 -21 12 -9 11 -12 -3 -17 -9
-4 -16 -12 -16 -18 0 -8 4 -8 15 1 9 8 15 9 15 2 0 -6 -4 -13 -9 -16 -8 -5
-24 -95 -25 -144 -1 -13 -11 -27 -25 -35 -32 -16 -39 -37 -11 -37 12 0 18 5
15 10 -3 6 0 10 8 10 23 0 29 -28 9 -39 -13 -7 -25 -4 -42 9 -23 18 -23 18 -6
45 14 21 15 30 5 39 -9 8 -11 7 -6 -6 10 -29 -18 -21 -39 10 -20 29 -21 31
-23 77 -2 32 -5 30 -38 -22 -10 -16 -11 -16 -6 5 3 13 1 22 -6 22 -6 0 -11 8
-11 17 0 32 -26 -19 -28 -55 -1 -18 -10 -50 -19 -71 -16 -36 -18 -37 -41 -25
-14 7 -30 10 -35 7 -5 -3 -13 1 -18 8 -6 10 -9 2 -9 -23 0 -21 -5 -38 -10 -38
-6 0 -10 7 -8 17 2 12 -10 19 -55 28 -31 6 -59 10 -61 7 -3 -2 -2 5 1 17 4 15
1 21 -11 21 -19 0 -19 1 -6 35 8 20 7 27 -5 31 -11 5 -14 22 -14 71 1 39 -4
69 -11 76 -9 9 -11 3 -8 -30 2 -24 -1 -43 -6 -43 -6 0 -5 -5 1 -11 12 -12 6
-39 -11 -51 -7 -5 -5 -8 6 -8 14 0 15 -5 6 -36 -5 -20 -7 -41 -5 -47 2 -7 -2
-18 -9 -25 -8 -7 -14 -9 -14 -4 0 5 -7 9 -15 9 -8 0 -15 -4 -15 -8 0 -3 -9 -9
-21 -12 -12 -3 -18 -10 -14 -17 3 -6 3 -10 -2 -9 -16 3 -92 -34 -87 -42 3 -5
-4 -9 -15 -9 -20 0 -21 -4 -17 -76 4 -57 1 -80 -9 -91 -14 -14 -10 -47 5 -38
10 6 35 -49 43 -92 4 -18 2 -35 -3 -38 -16 -10 12 -55 34 -55 16 0 18 2 7 9
-7 5 -10 14 -7 20 11 17 26 13 26 -8 0 -13 7 -18 25 -18 14 0 22 4 18 10 -3 6
-1 7 5 3 6 -4 8 -14 5 -22 -5 -14 -3 -15 16 -4 17 9 20 14 11 25 -6 7 -7 16
-2 19 5 3 16 -4 26 -15 9 -12 23 -18 31 -15 7 2 16 -2 19 -11 4 -9 13 -13 22
-9 9 4 23 1 30 -5 8 -6 14 -8 14 -3 1 5 7 -2 15 -16 10 -18 14 -20 15 -8 0 23
16 31 38 19 13 -7 23 -6 32 2 10 10 11 9 5 -3 -8 -13 -6 -13 7 -2 14 11 23 10
59 -9 28 -14 44 -18 47 -10 2 7 9 6 19 -4 12 -13 18 -13 31 -3 10 9 13 9 9 1
-4 -6 -3 -14 2 -18 6 -3 7 -13 4 -21 -4 -11 0 -15 13 -13 27 3 59 -13 60 -31
1 -10 -8 -16 -25 -17 -16 0 -19 1 -8 4 18 5 18 5 0 19 -24 18 -43 18 -43 -1 0
-10 -10 -15 -30 -15 -16 0 -30 3 -30 8 0 4 -33 8 -72 9 -40 2 -80 5 -88 9 -8
3 -46 7 -85 9 -38 2 -63 2 -55 0 36 -10 863 -116 874 -112 6 2 -52 12 -129 21
-136 18 -223 33 -197 35 6 1 12 5 12 10 0 6 -14 5 -36 0 -19 -6 -43 -8 -52 -6
-12 3 -11 5 5 6 28 1 20 31 -9 31 -10 0 -16 4 -13 10 3 5 19 7 35 3 19 -3 30
-1 30 5 0 6 7 9 15 6 8 -4 15 -1 15 6 0 7 7 10 15 7 8 -4 17 -2 20 3 4 6 13 6
26 0 23 -13 43 -4 35 16 -3 9 0 11 11 7 9 -4 14 -2 10 3 -3 5 3 10 14 10 11 0
17 -5 15 -11 -2 -5 -9 -9 -15 -8 -6 2 -11 -2 -11 -8 0 -6 13 -8 35 -5 23 4 34
2 32 -5 -1 -6 4 -14 11 -16 8 -3 10 1 6 11 -3 9 -3 16 0 16 4 0 12 -13 17 -29
10 -27 13 -29 35 -18 20 9 27 8 35 -4 7 -11 9 -11 9 0 0 7 6 11 15 8 8 -4 17
-2 20 4 4 5 13 3 21 -6 9 -8 20 -13 25 -10 5 4 9 1 9 -4 0 -6 5 -11 11 -11 5
0 7 4 4 10 -3 5 -2 10 2 10 5 0 14 -9 21 -20 7 -12 17 -18 22 -15 6 3 10 0 10
-7 0 -9 3 -9 10 2 6 10 10 11 10 3 0 -16 32 -17 48 -1 9 9 12 8 12 -7 1 -19 1
-19 14 -2 16 20 30 23 23 3 -6 -16 30 -30 39 -15 3 5 10 6 16 3 7 -5 9 2 4 22
-5 23 -4 25 4 12 14 -24 30 -23 30 1 0 11 5 23 12 27 7 5 9 1 6 -13 -3 -12 0
-20 8 -20 8 0 14 4 14 9 0 20 18 6 25 -19 4 -16 10 -22 12 -15 3 6 10 9 16 5
6 -4 25 -8 42 -10 l30 -3 -23 20 c-23 19 -22 40 1 40 8 0 8 -3 -1 -9 -24 -15
42 -54 77 -46 34 7 39 1 48 -61 7 -52 12 -50 -67 -29 l-25 6 25 -15 c23 -14
23 -15 4 -16 -11 0 -24 4 -30 8 -5 5 -22 6 -39 2 -24 -5 -17 -8 38 -14 37 -4
81 -12 98 -16 19 -6 33 -5 41 4 7 6 40 12 73 12 33 1 148 13 255 27 237 32
559 73 985 127 613 76 815 100 855 100 l41 0 -6 108 c-19 375 -65 2606 -65
3208 l0 290 -97 12 c-353 43 -1141 141 -1543 192 -261 33 -491 62 -510 64 -19
2 -313 -33 -654 -79z m623 -225 c1 -42 -3 -70 -9 -70 -5 0 -10 -12 -9 -27 0
-25 1 -26 9 -8 6 15 9 7 9 -30 0 -31 -3 -45 -8 -37 -6 10 -10 8 -14 -8 -4 -16
-2 -20 9 -16 8 3 14 1 14 -4 0 -6 5 -10 10 -10 6 0 11 30 12 68 0 37 3 52 5
35 6 -49 21 -40 17 10 l-3 42 14 -30 14 -30 -6 30 c-8 41 -21 75 -29 75 -3 0
-4 -9 -1 -19 2 -10 1 -25 -4 -32 -5 -9 -9 13 -9 55 0 67 8 88 12 33 3 -37 17
-34 25 5 5 27 7 29 13 13 4 -11 2 -23 -4 -27 -6 -4 -7 -10 -3 -15 5 -4 17 3
29 17 11 14 17 19 13 13 -3 -7 0 -13 7 -14 10 0 10 -2 1 -6 -22 -8 -14 -25 8
-18 17 6 20 4 15 -12 -3 -10 -1 -25 4 -33 8 -12 10 -10 10 9 0 24 0 24 16 5
14 -18 15 -18 8 6 -4 14 -12 28 -18 32 -7 5 -4 8 7 8 14 0 17 5 12 20 -4 11
-2 20 4 20 10 0 15 -14 12 -32 0 -4 10 -3 24 2 20 8 25 6 25 -7 0 -13 5 -12
25 7 l25 23 1 -29 1 -29 10 28 c10 28 10 28 25 8 14 -21 33 -20 33 0 0 6 -5 7
-11 3 -7 -4 -10 -1 -7 6 7 21 28 24 29 3 0 -10 3 -13 6 -5 7 17 23 15 23 -3 0
-9 6 -12 15 -9 8 4 13 10 10 14 -5 9 3 8 48 -5 15 -4 27 -10 27 -14 0 -12 30
-9 31 3 1 6 5 -7 9 -29 8 -39 0 -55 -25 -55 -5 1 -2 5 7 11 10 5 15 16 11 25
-11 29 -32 -6 -31 -52 0 -34 3 -42 13 -34 12 10 25 4 25 -12 0 -5 -5 -6 -12
-2 -7 4 -8 3 -4 -5 9 -14 48 -4 59 15 4 8 18 19 30 24 20 10 20 10 5 -3 -10
-8 -18 -17 -18 -21 0 -4 8 -6 18 -4 9 2 16 -3 14 -9 -1 -7 6 -14 15 -15 69 -6
70 -6 67 16 -3 12 -2 17 1 11 3 -5 22 -9 42 -9 30 1 37 5 35 19 -2 10 1 14 7
10 6 -3 11 -13 11 -21 0 -18 14 -20 92 -11 15 2 25 -1 22 -5 -6 -9 48 -4 81 7
17 6 18 5 5 -5 -12 -9 -8 -11 18 -6 19 3 42 1 52 -4 12 -6 21 -7 25 0 3 5 12
7 20 3 9 -3 23 1 32 8 14 12 16 12 8 0 -7 -11 -1 -13 27 -8 24 3 43 0 58 -10
19 -14 22 -13 34 3 7 9 18 14 24 10 7 -4 12 -2 12 5 0 10 3 10 11 2 6 -6 18
-9 26 -6 7 3 13 2 12 -3 -4 -23 3 -25 23 -8 12 10 18 13 14 7 -9 -16 -1 -16
26 -2 16 9 19 8 13 -2 -6 -9 -2 -11 13 -7 12 3 23 1 26 -6 2 -6 5 -3 5 7 1 10
6 15 11 12 6 -4 8 -10 5 -15 -3 -5 0 -12 6 -16 7 -4 9 -3 6 3 -5 7 9 10 41 8
28 -2 54 2 65 10 18 13 18 14 0 24 -16 9 -16 12 -3 21 8 6 27 8 43 6 15 -3 27
-1 27 5 0 6 -4 7 -10 4 -5 -3 -10 -1 -10 5 0 6 -10 8 -25 4 -15 -4 -25 -2 -25
5 0 6 -7 11 -15 11 -8 0 -15 5 -15 10 0 12 2 12 36 0 19 -8 31 -7 42 2 13 11
15 10 9 -4 -8 -22 2 -23 31 -3 20 14 21 14 16 0 -3 -8 -10 -15 -15 -15 -5 0
-9 -4 -9 -10 0 -16 14 -12 38 10 12 12 22 17 22 12 0 -5 12 -8 26 -6 19 2 24
-1 20 -12 -4 -12 4 -14 44 -10 38 4 50 1 50 -9 0 -8 4 -17 10 -20 6 -3 7 1 4
10 -5 11 -2 14 10 9 9 -3 16 -2 16 4 0 19 34 24 46 7 7 -9 18 -15 26 -13 7 2
26 -7 41 -18 22 -18 24 -23 11 -28 -8 -3 -12 -10 -9 -16 4 -6 11 -8 16 -5 5 4
9 2 9 -4 0 -5 3 -17 7 -27 4 -11 3 -15 -4 -11 -8 5 -8 -5 -1 -33 6 -22 14 -40
18 -40 4 0 8 -17 8 -37 1 -98 3 -123 10 -123 4 0 7 -26 7 -58 0 -31 4 -65 10
-76 7 -14 7 -20 -4 -24 -10 -3 -10 -6 -1 -12 8 -5 13 -62 16 -181 2 -96 7
-184 9 -196 3 -12 0 -25 -5 -28 -6 -4 -8 -10 -5 -15 9 -14 10 -394 2 -407 -5
-7 -4 -13 2 -13 12 0 9 -260 -4 -280 -5 -8 -4 -11 2 -7 6 4 11 -15 11 -51 1
-31 3 -127 5 -212 3 -105 1 -160 -7 -169 -8 -11 -8 -13 1 -8 7 5 12 1 12 -10
4 -334 11 -645 16 -653 3 -6 2 -10 -2 -10 -5 0 -9 -9 -9 -20 0 -11 4 -20 9
-20 4 0 5 -5 1 -12 -4 -6 -6 -29 -6 -50 1 -22 -2 -37 -7 -34 -5 3 -11 -3 -14
-15 -4 -16 -3 -18 9 -8 17 14 18 5 3 -23 -8 -15 -8 -19 0 -14 12 8 15 -6 4
-18 -13 -13 -14 -59 -1 -67 11 -7 10 -9 -1 -9 -9 0 -11 -8 -7 -25 4 -15 2 -25
-4 -25 -6 0 -8 -5 -5 -10 4 -6 2 -17 -5 -25 -8 -10 -8 -16 4 -27 12 -11 12
-15 -1 -30 -11 -12 -12 -21 -4 -36 11 -20 6 -52 -8 -52 -4 0 -8 -15 -8 -32 -2
-73 -7 -88 -28 -89 -20 0 -20 0 0 -9 18 -8 17 -9 -7 -9 -15 -1 -29 -5 -33 -11
-3 -5 -12 -7 -20 -3 -8 3 -15 0 -15 -7 0 -7 -7 -10 -15 -6 -8 3 -15 0 -15 -7
0 -8 -4 -7 -11 3 -8 12 -10 10 -5 -10 4 -22 4 -23 -8 -8 -15 21 -56 24 -56 6
0 -10 -3 -9 -9 1 -5 7 -14 10 -20 7 -6 -4 -9 -11 -6 -16 3 -5 -10 -8 -28 -7
-37 2 -35 -5 -38 124 -1 52 3 79 14 97 12 18 13 26 4 30 -6 3 1 2 17 -1 20 -4
27 -3 22 6 -4 6 -15 11 -24 11 -10 0 -13 3 -6 8 15 10 25 42 14 42 -17 0 -11
18 8 23 14 3 12 6 -10 17 -16 7 -28 20 -28 27 0 8 -4 12 -9 9 -5 -4 -9 28 -9
71 0 43 -4 150 -8 238 -3 88 -7 169 -7 180 1 11 -4 49 -9 85 -6 36 -10 70 -10
75 2 53 1 224 -2 276 l-3 67 28 -2 c16 0 30 -4 30 -8 1 -5 2 -12 3 -17 0 -5 5
-13 10 -18 5 -4 6 -3 2 4 -4 8 3 11 23 11 17 -1 28 -5 25 -10 -8 -13 6 -9 22
6 22 22 17 26 -26 22 -22 -2 -40 -2 -40 0 0 10 64 35 77 30 10 -4 13 -2 10 8
-3 7 1 23 9 35 9 12 13 30 9 41 -4 13 -2 20 7 20 10 0 10 2 -1 9 -11 7 -10 11
5 20 14 8 16 13 7 19 -14 9 -9 102 6 130 6 10 6 23 -1 35 -7 14 -7 17 1 13 7
-5 11 1 11 14 0 13 -4 19 -12 14 -7 -5 -8 -3 -2 7 8 13 7 139 -2 148 -2 2 -4
-28 -4 -67 l0 -72 -52 -30 c-29 -16 -56 -30 -60 -30 -5 0 -8 69 -9 153 l0 152
-19 -40 c-11 -22 -36 -75 -56 -119 -26 -56 -39 -75 -45 -65 -4 8 -32 77 -61
154 l-53 140 -3 -105 -3 -105 -50 -29 c-28 -15 -52 -26 -54 -24 -2 2 -5 120
-6 263 l-2 260 53 34 c51 32 54 33 67 15 7 -10 13 -13 13 -6 0 6 -12 19 -26
28 -19 13 -22 19 -12 26 9 7 8 8 -6 4 -10 -4 -26 -1 -34 6 -11 9 -14 9 -9 1 4
-6 3 -14 -3 -18 -5 -3 -10 -11 -10 -16 0 -6 4 -8 9 -5 5 3 11 0 14 -8 3 -8 -1
-17 -9 -20 -7 -3 -13 0 -11 6 1 7 -4 13 -10 14 -7 1 -17 2 -23 3 -5 0 -10 6
-10 12 0 6 6 9 14 6 8 -3 16 0 19 7 3 8 -5 11 -24 10 -22 -2 -29 2 -29 16 0
16 -10 18 -53 11 -5 0 -5 -6 -1 -12 3 -6 -16 -33 -42 -61 -48 -48 -50 -49 -94
-43 -25 3 -53 8 -62 11 -15 4 -18 -1 -18 -29 0 -70 10 -96 41 -101 99 -20 90
-12 87 -69 -2 -29 -7 -51 -13 -51 -5 1 -31 5 -57 8 l-48 7 0 -69 0 -69 82 -12
c89 -14 118 -25 117 -44 0 -8 -2 -7 -6 2 -4 9 -17 0 -42 -30 l-37 -43 -109 22
c-59 12 -110 23 -111 25 -2 2 -6 132 -10 290 -4 157 -11 284 -16 281 -4 -3 -6
-9 -3 -14 3 -5 1 -11 -4 -14 -11 -7 -22 -88 -26 -185 -3 -59 -7 -78 -22 -89
-17 -13 -17 -14 5 -7 16 5 22 2 22 -9 0 -8 -5 -18 -10 -21 -6 -4 -8 -11 -4
-16 3 -5 0 -17 -8 -26 -10 -14 -10 -15 0 -9 10 6 13 -1 10 -30 -2 -22 -7 -37
-13 -34 -5 3 -9 15 -7 28 1 12 -2 22 -8 22 -6 0 -8 5 -4 11 3 6 0 15 -7 20
-12 8 -12 11 1 19 14 9 7 15 -14 11 -5 -1 -4 5 4 13 10 13 10 16 0 16 -9 0
-10 4 -2 13 6 7 10 41 9 76 -1 34 -4 54 -8 44 -4 -10 -7 35 -7 101 0 120 -9
153 -34 127 -11 -10 -10 -11 5 -6 16 7 17 -10 17 -258 l0 -265 -50 -36 c-28
-20 -52 -36 -55 -36 -3 0 -5 58 -5 130 0 147 10 133 -97 145 l-53 6 0 -88 0
-88 -55 -38 -55 -38 0 219 c0 121 -3 239 -6 263 l-6 45 61 42 61 43 0 -125 c0
-101 3 -126 14 -126 17 0 29 27 16 35 -6 4 -11 -2 -11 -12 -1 -16 -2 -16 -6
-1 -2 9 1 26 7 38 6 11 8 25 4 32 -4 6 -9 41 -11 77 -5 86 -8 94 -32 82 -10
-6 -22 -7 -26 -3 -5 4 -5 2 -2 -4 4 -6 -14 -25 -38 -43 -25 -18 -45 -37 -45
-42 0 -6 -13 -24 -29 -41 -22 -23 -33 -29 -47 -23 -18 8 -18 8 -1 12 9 3 15 9
11 14 -3 6 0 17 8 26 9 12 9 15 1 9 -9 -5 -11 -2 -7 8 3 9 11 13 17 9 6 -4 7
-1 2 7 -5 8 -1 18 9 26 17 12 13 40 -4 29 -5 -3 -11 4 -15 15 -3 11 -13 20
-21 20 -9 0 -12 5 -8 12 4 7 3 8 -5 4 -6 -4 -9 -12 -6 -17 4 -5 -43 -9 -116
-9 -67 0 -120 -2 -118 -4 2 -3 59 -6 126 -7 94 -2 123 -5 127 -16 3 -8 2 -12
-3 -9 -5 4 -21 -15 -36 -40 l-27 -47 -65 6 -64 6 2 -62 3 -62 60 -5 61 -5 3
-53 3 -54 -63 4 -63 3 0 -57 c0 -31 4 -60 9 -65 4 -4 46 -10 92 -12 46 -1 84
-4 84 -6 0 -1 -9 -23 -21 -49 l-20 -47 -127 3 c-119 3 -127 4 -128 23 0 11 -1
139 -2 284 l-2 264 -25 -47 c-14 -26 -26 -61 -26 -79 -1 -24 -3 -26 -6 -9 -2
12 -9 22 -14 22 -6 0 -10 21 -9 48 1 26 0 54 -1 62 -2 8 -6 -77 -9 -190 l-6
-205 -2 230 c-1 164 1 226 9 215 8 -11 9 -6 4 20 -4 19 -8 82 -9 140 -2 79 -2
82 1 13 3 -87 12 -110 29 -81 4 7 3 8 -4 4 -8 -5 -12 0 -12 13 0 13 7 21 18
22 16 1 16 2 0 6 -21 5 -24 19 -6 25 7 3 13 22 13 45 0 34 2 38 11 24 19 -25
28 -5 10 21 -21 30 -20 45 2 21 9 -10 14 -14 10 -9 -10 12 -11 32 -1 23 3 -4
12 -2 20 5 12 10 13 7 7 -17 -5 -20 -4 -26 5 -21 6 4 11 13 11 19 0 22 40 48
63 43 12 -3 17 -3 11 0 -14 6 -6 44 8 44 6 0 8 -6 5 -13 -3 -8 1 -14 9 -14 8
0 14 9 14 19 0 12 7 18 24 18 14 0 27 4 30 8 2 4 23 7 46 5 23 -1 38 2 35 8
-8 12 7 12 39 -1 19 -7 29 -6 40 5 11 11 16 12 19 2 4 -8 8 -9 14 -1 8 11 23
14 71 15 12 1 22 5 22 10 0 14 28 11 55 -7 27 -18 81 -15 78 4 -3 14 23 17 31
3 3 -4 24 -7 46 -5 23 2 38 -1 35 -6 -3 -6 1 -7 9 -4 9 3 16 9 16 13 0 3 24 7
52 7 38 1 56 -3 65 -15 10 -14 11 -13 6 7 -3 13 -1 22 6 22 6 0 11 -6 11 -12
0 -9 4 -8 10 2 9 13 12 13 21 -2 12 -21 39 -24 39 -5 0 8 4 7 11 -3 8 -11 12
-12 16 -2 2 6 9 10 14 6 5 -3 9 1 9 8 0 10 3 9 11 -2 8 -11 12 -12 15 -3 4 9
12 9 32 1 15 -5 39 -10 55 -10 15 0 27 -3 27 -8 0 -5 7 -7 15 -4 8 4 15 1 15
-6 0 -9 3 -10 14 -1 7 6 22 8 31 4 14 -5 16 -3 11 8 -4 8 -2 7 6 -2 11 -14 15
-14 26 -3 7 7 19 11 26 8 8 -3 24 0 36 6 15 8 20 8 16 1 -4 -6 0 -11 9 -11 9
0 14 4 10 9 -3 5 -1 12 5 16 5 3 10 -2 11 -12 0 -15 2 -14 11 5 6 12 19 22 30
22 10 0 18 7 18 16 0 9 5 12 12 8 8 -5 9 -2 5 9 -4 11 -1 17 8 17 9 0 15 11
16 28 l1 27 8 -30 c4 -16 8 -24 9 -17 0 6 8 12 16 12 9 0 18 13 22 31 4 23 8
27 15 17 6 -9 8 -2 5 20 -2 18 0 35 5 38 4 3 8 -4 8 -15 0 -24 19 -29 21 -6 1
8 3 20 4 25 1 6 3 14 4 19 0 5 9 18 19 27 16 17 16 18 -1 11 -10 -4 -23 -7
-29 -7 -6 0 -7 -7 -4 -16 5 -14 4 -15 -9 -4 -13 11 -12 14 6 29 22 18 18 45
-8 55 -14 6 -14 4 -2 -11 8 -9 9 -14 2 -10 -6 4 -14 1 -16 -5 -3 -7 -6 -4 -7
7 l-1 20 -9 -20 c-7 -16 -9 -17 -9 -3 -1 27 -20 31 -30 6 l-10 -23 0 24 c-1
17 -4 21 -13 13 -9 -6 -552 -10 -1588 -10 -866 -1 -1566 2 -1555 7 11 5 26 6
34 3 8 -3 12 -1 8 5 -7 11 28 14 127 13 27 -1 62 4 78 11 20 8 32 8 41 0 7 -6
31 -8 53 -5 21 2 74 6 117 8 43 2 80 6 83 9 3 3 12 3 20 0 8 -3 14 0 14 7 0 9
4 9 13 2 17 -13 57 -9 68 9 6 11 13 11 26 3 14 -9 21 -8 31 5 8 10 10 10 6 2
-5 -11 -3 -13 10 -8 10 4 15 3 11 -3 -3 -6 -4 -10 -1 -10 2 0 13 -3 23 -7 15
-6 16 -4 6 9 -11 13 -7 15 32 13 33 -1 45 3 45 13 0 9 7 6 20 -9 14 -18 19
-20 20 -8 0 11 11 15 40 16 22 0 37 -3 34 -8 -3 -5 0 -9 5 -9 6 0 11 6 11 14
0 8 5 18 12 22 7 5 9 2 5 -8 -4 -12 -1 -14 14 -11 20 5 27 23 9 23 -5 0 -10 5
-10 10 0 6 10 8 24 4 17 -4 27 0 35 13 6 10 11 13 11 6 0 -6 -7 -18 -15 -27
-20 -20 -19 -26 5 -26 14 0 18 5 14 18 -5 15 -4 15 6 -1 11 -18 13 -18 31 -1
10 9 19 22 19 28 0 6 -5 5 -12 -2 -14 -14 -32 -16 -23 -2 3 5 0 19 -7 30 -11
18 -10 23 5 31 9 6 17 19 17 29 0 11 5 20 10 20 6 0 10 7 10 16 0 14 2 14 16
-1 11 -11 25 -14 45 -10 25 6 28 4 22 -11 -4 -11 -3 -15 4 -11 6 4 14 1 17 -5
3 -7 4 -1 1 15 -3 15 -2 27 2 26 5 -1 10 0 13 1 3 1 22 4 43 5 36 3 50 -8 25
-18 -8 -3 -6 -6 4 -6 9 -1 21 7 27 16 9 16 11 16 30 -6 20 -23 21 -23 21 -3 0
11 5 24 12 28 6 4 8 3 5 -3 -7 -11 32 -47 41 -38 4 3 0 10 -7 14 -12 8 -12 11
0 25 8 8 15 15 15 16 1 0 2 -31 3 -70z m-1989 -200 c0 -5 -5 -10 -11 -10 -5 0
-7 -5 -3 -12 6 -9 9 -9 12 0 2 8 25 12 60 12 49 -1 54 -2 37 -13 -20 -11 -25
-13 -45 -16 -5 0 -10 -6 -10 -13 0 -6 3 -8 7 -5 3 4 12 2 20 -4 10 -9 13 -8
13 2 0 11 2 11 10 -1 8 -13 10 -12 10 3 0 24 15 21 33 -6 25 -38 12 -206 -20
-256 -8 -12 -13 -32 -10 -42 3 -10 1 -22 -4 -25 -5 -3 -7 -9 -4 -14 9 -15 -6
-39 -21 -33 -17 6 -18 -8 -1 -26 9 -10 9 -12 0 -7 -9 5 -11 -3 -8 -26 2 -18 0
-35 -5 -38 -5 -3 -11 -17 -12 -30 -2 -14 -9 -31 -15 -38 -7 -7 -13 -21 -14
-30 -2 -54 -11 -87 -29 -99 -10 -7 -17 -20 -14 -27 3 -7 -2 -21 -11 -29 -9 -9
-17 -29 -18 -44 -1 -18 -9 -30 -22 -34 -12 -3 -19 -12 -17 -23 2 -12 -1 -16
-10 -11 -10 6 -11 5 0 -6 17 -18 15 -32 -4 -25 -12 5 -14 1 -9 -15 5 -16 4
-19 -5 -14 -9 5 -10 2 -5 -14 4 -12 2 -21 -4 -21 -7 0 -11 53 -11 160 0 88 3
160 8 160 4 0 6 53 5 117 -2 83 1 120 10 125 9 6 8 10 -3 18 -10 6 -11 10 -3
10 8 0 10 7 5 21 -11 29 -3 81 12 72 8 -5 8 -3 -1 8 -18 23 -19 25 -4 42 7 9
18 14 23 11 5 -3 8 2 7 12 -2 11 0 24 4 31 4 6 2 24 -3 39 -8 20 -7 32 5 50 8
13 15 31 15 40 0 9 8 18 18 21 14 3 17 12 14 34 -3 22 0 29 12 29 9 0 16 -4
16 -10z m3338 -51 c20 4 48 6 62 5 14 -2 65 -5 113 -7 49 -3 94 -10 100 -16
17 -17 27 -13 27 12 0 18 2 19 10 7 5 -8 10 -31 10 -50 l0 -35 -55 -1 c-32 0
-50 3 -43 8 19 11 0 10 -23 -2 -11 -6 -50 -12 -87 -13 -37 -2 -77 -8 -89 -15
-15 -8 -24 -9 -28 -2 -4 6 -24 9 -46 6 -21 -2 -39 0 -39 5 0 6 -9 5 -20 -1
-12 -6 -29 -8 -40 -5 -42 13 -65 14 -73 2 -7 -9 -10 -9 -14 1 -4 10 -8 10 -19
1 -8 -6 -23 -9 -34 -6 -11 3 -22 2 -25 -3 -3 -4 -21 -6 -40 -3 -19 3 -35 1
-35 -4 0 -12 -103 8 -112 21 -4 6 -12 5 -22 -3 -8 -7 -20 -10 -26 -6 -5 3 -10
0 -11 -7 0 -7 -4 -4 -9 7 -8 18 -9 17 -9 -6 -1 -22 -7 -28 -31 -31 -16 -3 -34
0 -39 5 -7 7 -15 6 -24 -2 -17 -14 -177 -7 -207 9 -11 6 -20 7 -20 2 0 -8 -40
-8 -105 -1 -17 2 -40 -6 -47 -16 -4 -5 -8 1 -8 15 -1 24 -1 24 -15 7 -9 -13
-20 -17 -36 -12 -18 6 -21 4 -16 -9 4 -9 3 -15 -2 -13 -5 1 -32 -18 -62 -43
-29 -25 -57 -44 -60 -43 -4 1 -8 -185 -8 -415 -1 -286 -5 -418 -13 -421 -6 -2
-6 -6 2 -11 8 -5 10 -15 5 -26 -7 -17 -8 -17 -12 -2 -2 9 -10 15 -17 12 -8 -3
-16 2 -19 10 -4 9 -16 16 -28 16 -15 0 -19 -4 -15 -16 3 -8 0 -27 -7 -42 -8
-15 -12 -35 -10 -44 3 -10 -1 -18 -9 -18 -10 0 -14 23 -15 86 -2 48 -5 89 -7
91 -3 3 -6 -38 -8 -91 l-3 -96 93 0 94 0 -35 -47 -35 -48 -109 -6 c-59 -4
-110 -5 -113 -2 -2 2 -4 124 -5 270 l0 265 55 30 c49 26 55 27 60 12 6 -16 7
-16 13 -2 3 9 0 19 -8 22 -11 4 -14 47 -15 215 0 116 -3 219 -7 228 -9 26 -65
83 -81 83 -7 0 -10 5 -6 12 5 7 3 8 -6 3 -7 -4 -15 -3 -19 3 -7 12 -84 24
-168 26 -41 1 -58 4 -53 11 5 6 5 17 1 24 -6 9 -10 7 -14 -8 -4 -19 -9 -20
-32 -11 -18 7 -32 7 -39 1 -7 -6 -17 -6 -26 -1 -19 12 -43 13 -36 2 3 -5 -1
-9 -9 -9 -8 0 -15 4 -15 8 0 5 -7 6 -16 2 -13 -5 -15 -2 -9 15 5 18 2 22 -15
22 -11 0 -23 -7 -26 -15 -4 -8 -11 -15 -16 -15 -6 0 -5 6 2 15 9 10 9 15 1 15
-6 0 -11 5 -11 11 0 6 6 9 13 6 6 -2 24 0 40 4 23 6 27 5 27 -12 0 -15 7 -19
33 -19 27 1 29 2 14 11 -9 5 -21 7 -26 4 -6 -3 -9 4 -8 15 2 24 10 25 27 5 17
-21 35 -19 83 10 28 16 47 21 56 15 16 -9 42 -2 53 14 6 8 8 8 8 0 0 -6 13 -9
30 -6 16 2 38 1 47 -3 10 -5 21 -8 25 -7 4 1 19 -5 35 -13 19 -10 29 -11 32
-4 2 7 7 6 12 -2 7 -10 11 -11 17 -2 10 15 66 -33 56 -49 -4 -7 -3 -8 4 -4 7
4 12 2 12 -3 0 -6 4 -11 9 -11 5 0 7 10 5 23 -5 22 -4 22 5 1 13 -29 50 -54
78 -54 25 0 31 15 11 24 -7 3 0 4 15 2 20 -2 27 0 23 10 -3 7 -1 16 4 19 6 4
10 -1 10 -9 0 -22 13 -20 29 5 11 18 11 23 0 30 -8 4 -10 11 -6 16 5 4 13 1
18 -7 8 -12 12 -12 16 -2 4 10 8 10 20 0 14 -11 15 -10 9 12 -7 24 -6 24 8 6
16 -19 16 -19 16 2 0 15 6 22 19 22 11 0 22 -4 25 -9 3 -5 -2 -8 -11 -7 -9 0
-18 -5 -20 -12 -3 -7 1 -10 11 -6 12 5 16 0 16 -17 0 -29 16 -56 27 -46 4 5 1
12 -6 16 -10 6 -11 17 -6 37 5 16 8 32 7 37 -1 4 7 7 18 7 11 0 20 -6 20 -12
0 -10 3 -9 9 1 7 10 13 11 30 2 18 -10 21 -9 21 8 0 17 3 18 34 9 39 -12 106
-3 106 15 0 7 4 6 10 -3 9 -13 11 -13 20 0 8 12 10 12 10 1 0 -9 4 -10 13 -4
18 13 88 8 98 -8 8 -12 10 -12 18 0 6 9 11 10 15 2 9 -14 46 -15 46 -1 0 6 20
10 45 10 25 0 45 -4 45 -9 0 -5 16 -5 38 0 22 5 38 4 40 -1 2 -6 13 -10 23
-10 11 0 17 5 14 10 -4 7 4 9 21 6 17 -3 31 0 36 7 6 9 8 8 8 -3 0 -9 9 -16
19 -16 11 0 17 4 15 8 -3 4 5 8 18 8 77 2 125 6 138 12 21 9 53 7 67 -4 15
-12 53 -1 54 15 1 7 3 5 6 -4 3 -13 12 -15 41 -10z m-778 -904 c-7 -8 -9 -15
-5 -15 4 0 3 -6 -2 -12 -6 -7 -9 -49 -7 -93 2 -51 -1 -82 -8 -87 -9 -5 -8 -10
1 -21 8 -11 9 -17 1 -22 -6 -3 -8 -11 -5 -16 3 -5 0 -6 -8 -3 -8 3 -17 -2 -21
-12 -4 -12 -2 -15 9 -11 8 4 17 2 20 -2 3 -5 -21 -9 -53 -9 -35 1 -47 3 -32 7
15 4 26 14 27 26 4 38 4 70 -1 103 -3 18 -1 32 5 32 11 0 8 38 -5 58 -12 20
22 65 44 59 14 -3 17 -1 13 11 -4 10 -2 13 5 8 7 -4 12 -2 12 3 0 6 5 11 11
11 8 0 8 -5 -1 -15z m-824 -603 c-4 -10 1 -27 10 -38 14 -18 15 -18 4 5 -9 18
-9 22 0 16 7 -4 17 -1 22 6 8 11 9 10 4 -3 -3 -10 -1 -20 5 -24 6 -4 6 -11 -2
-20 -9 -12 -9 -17 4 -27 8 -7 18 -22 22 -34 6 -22 4 -23 -52 -25 l-58 -1 62
-6 62 -6 -27 -50 c-27 -49 -28 -50 -79 -53 l-53 -3 -2 -217 -3 -216 -40 -23
c-22 -12 -46 -23 -52 -23 -10 0 -13 54 -13 236 l0 237 -60 -7 c-35 -4 -60 -3
-60 2 0 5 7 26 15 46 11 26 13 42 6 55 -8 14 -5 23 13 40 23 22 39 20 30 -4
-4 -9 1 -13 12 -11 10 2 20 8 22 16 4 10 6 9 13 -1 7 -12 9 -11 9 1 0 13 1 13
10 0 7 -10 10 8 11 60 1 68 2 71 9 30 4 -25 5 -51 3 -57 -3 -7 6 -17 18 -22
19 -7 28 -4 47 15 12 13 22 28 22 34 0 5 5 10 11 10 5 0 7 -4 4 -10 -4 -6 2
-7 16 -1 13 4 24 13 25 20 1 6 0 7 -3 1 -2 -5 -10 -10 -18 -10 -9 0 -7 11 7
40 21 41 34 54 24 22z m1694 -72 c22 -22 27 -35 8 -24 -6 4 -8 3 -4 -4 3 -5 0
-13 -6 -15 -9 -4 -7 -6 3 -6 9 -1 21 9 28 22 10 20 11 19 6 -11 -2 -18 -1 -31
3 -28 4 2 8 -25 10 -60 2 -46 -1 -64 -10 -64 -9 0 -10 -3 -2 -8 9 -6 22 -82
24 -140 0 -7 5 -10 10 -7 12 7 26 -22 16 -33 -4 -3 -11 0 -17 8 -7 11 -9 8 -6
-12 1 -15 7 -31 12 -35 4 -4 5 -3 2 3 -3 6 3 18 14 27 13 12 19 13 20 4 1 -6
4 -1 8 12 4 14 13 27 20 29 9 3 12 0 8 -10 -4 -12 3 -15 34 -14 27 1 39 6 40
16 0 11 2 11 6 2 9 -22 -16 -42 -47 -36 -15 4 -30 2 -33 -4 -4 -5 5 -7 21 -4
24 5 26 4 13 -11 -11 -15 -11 -17 2 -17 8 0 17 4 19 10 5 16 47 -1 55 -24 10
-29 10 -435 0 -429 -5 3 -5 -3 1 -13 5 -11 12 -83 15 -162 3 -78 9 -147 12
-152 3 -6 1 -10 -5 -10 -7 0 -9 -12 -4 -34 8 -45 -1 -59 -27 -46 -10 6 -19 17
-19 25 0 9 -6 12 -15 9 -8 -4 -15 -1 -15 6 0 7 -8 9 -20 5 -16 -5 -20 -2 -20
17 0 18 -2 20 -10 8 -6 -9 -10 -11 -10 -3 0 7 -7 10 -15 7 -9 -4 -18 2 -23 17
-7 19 -10 20 -15 5 -4 -10 -1 -19 8 -22 23 -9 18 -26 -5 -19 -14 5 -18 3 -14
-8 2 -7 -2 -20 -11 -27 -8 -7 -15 -8 -15 -2 0 5 -8 9 -17 8 -14 -1 -19 8 -21
34 -4 38 -22 67 -22 35 0 -17 -1 -17 -19 -1 -11 10 -17 24 -14 32 3 8 -1 22
-8 31 -9 10 -14 42 -14 85 0 71 -12 92 -42 81 -9 -3 -10 -8 -5 -12 9 -6 8 -43
-2 -116 -3 -16 -5 -41 -6 -55 l-2 -25 -8 25 c-7 22 -8 20 -10 -15 -2 -29 -4
-33 -7 -15 l-5 24 -14 -24 c-11 -21 -13 -22 -14 -6 0 18 -14 14 -16 -5 -1 -5
-2 -13 -3 -19 0 -5 -13 -10 -28 -11 l-28 0 25 -11 c20 -9 22 -12 8 -15 -9 -2
-15 -10 -12 -17 3 -7 -2 -13 -10 -13 -9 0 -12 6 -8 16 4 14 2 13 -15 -1 -11
-10 -30 -18 -44 -17 -24 1 -23 1 4 13 l28 12 -25 19 c-14 10 -23 22 -20 27 3
4 -1 8 -10 8 -8 0 -17 6 -20 13 -3 6 -3 1 1 -13 3 -14 14 -31 25 -38 18 -13
18 -14 1 -28 -11 -8 -41 -13 -78 -12 -55 1 -56 2 -13 5 34 3 46 8 42 17 -3 8
-14 12 -25 9 -13 -4 -19 0 -19 11 0 9 5 16 10 16 6 0 10 -5 10 -10 0 -7 7 -7
20 0 11 6 18 15 15 21 -4 5 -10 7 -14 4 -5 -2 -6 8 -4 23 4 25 3 26 -10 9 -13
-16 -15 -16 -21 -1 -4 11 0 18 14 21 11 3 20 10 20 15 0 5 -4 7 -8 4 -5 -3
-22 -8 -39 -11 l-31 -5 2 55 c1 30 -3 57 -9 59 -5 2 -2 5 8 5 15 1 21 22 16
57 0 4 5 11 13 15 7 5 8 9 2 9 -12 0 -11 24 1 52 4 10 11 15 16 12 5 -3 9 4 9
15 0 11 5 32 12 48 6 15 10 32 9 37 -1 5 5 6 13 3 11 -4 18 1 22 18 3 14 10
22 15 19 5 -3 12 2 15 10 3 9 12 16 19 16 8 0 11 8 8 23 -3 16 -2 18 5 8 5 -7
15 -10 21 -7 16 10 14 26 -4 26 -17 0 -20 16 -5 25 15 9 12 25 -4 25 -7 0 -16
9 -19 20 -3 13 0 20 9 20 8 0 14 -7 14 -16 0 -8 5 -12 11 -8 6 3 15 0 20 -7 7
-11 9 -11 9 -1 0 7 -7 15 -15 18 -8 4 -15 13 -15 21 0 8 5 11 10 8 16 -10 12
21 -4 35 -8 6 -12 18 -9 27 4 10 8 11 13 4 4 -8 12 -5 24 8 20 22 14 43 -9 34
-17 -6 -18 -2 -9 21 6 15 8 14 23 -3 11 -12 26 -18 44 -16 22 3 27 0 23 -11
-4 -9 -2 -12 5 -8 6 3 8 18 5 33 -5 24 -4 24 8 -4 9 -18 11 -34 5 -41 -11 -14
-11 -109 1 -109 1 0 3 -10 4 -22 2 -13 -1 -23 -6 -23 -4 0 -8 -10 -7 -22 0
-22 1 -22 9 -3 7 15 9 8 11 -30 1 -27 3 -61 4 -75 1 -14 -2 -28 -9 -32 -8 -6
-8 -8 1 -8 6 0 9 -8 6 -19 -4 -16 -1 -19 16 -14 12 3 21 1 21 -6 0 -6 -6 -11
-14 -11 -10 0 -15 -15 -18 -49 -3 -43 -1 -49 15 -48 13 1 17 7 13 23 -4 13 -1
24 7 27 9 4 8 8 -3 17 -11 9 -12 13 -2 17 17 7 15 29 -5 49 -16 15 -16 17 2
30 10 8 15 14 9 14 -5 0 -3 4 5 9 12 8 12 13 -3 36 -10 15 -14 25 -8 21 10 -6
22 26 21 59 l0 20 -10 -20 c-8 -17 -9 -16 -4 5 9 40 11 99 3 93 -5 -2 -8 0 -8
6 0 5 4 11 10 13 5 2 12 19 15 38 6 32 5 33 -8 17 -11 -13 -16 -15 -19 -5 -3
7 3 21 12 30 13 14 16 37 14 115 -1 85 0 95 12 78 12 -16 14 -16 14 -3 0 9 -5
20 -10 23 -7 4 -7 13 0 26 7 12 7 19 1 19 -6 0 -8 6 -5 14 3 8 1 17 -5 21 -14
8 -14 35 0 35 6 0 8 -7 5 -16 -3 -8 -2 -12 4 -9 5 3 8 32 7 65 -2 34 2 61 8
63 6 2 5 10 -4 20 -20 24 4 22 29 -3z m-394 -16 c-3 -8 -2 -12 4 -9 6 3 10 2
10 -4 0 -5 -5 -13 -10 -16 -6 -4 -8 -11 -4 -16 3 -5 9 -7 14 -4 10 6 8 -15 -3
-32 -5 -8 -3 -13 7 -13 10 0 16 -9 16 -21 0 -14 -5 -19 -15 -16 -8 4 -17 1
-21 -5 -4 -6 -3 -8 3 -5 14 9 37 -19 27 -34 -5 -9 -11 -7 -21 6 -7 11 -13 17
-14 14 0 -2 -2 -14 -5 -26 -2 -13 1 -23 7 -23 5 0 7 -5 3 -11 -4 -8 -9 -7 -16
2 -7 10 -8 8 -5 -9 3 -13 1 -20 -5 -16 -5 3 -6 19 -3 35 7 30 -7 69 -19 51 -3
-6 -2 -13 4 -17 17 -10 11 -25 -7 -18 -13 5 -15 3 -9 -13 5 -14 4 -16 -4 -8
-9 9 -7 23 9 58 11 26 16 44 11 41 -4 -3 -11 1 -14 7 -3 7 -3 2 0 -11 4 -16 3
-21 -5 -17 -7 5 -11 -1 -11 -14 0 -28 -16 -17 -23 15 -2 15 2 32 10 41 8 8 10
14 4 14 -15 0 -14 37 2 43 9 3 9 7 0 19 -10 12 -10 15 2 15 8 0 15 -5 15 -11
0 -6 8 -3 17 7 22 22 57 23 49 1z m-482 -38 c8 3 16 -3 19 -15 3 -12 10 -21
17 -21 6 0 8 5 4 12 -4 7 -3 8 5 4 17 -11 2 -29 -20 -23 -11 3 -19 1 -19 -3 0
-5 9 -10 20 -12 17 -3 15 -8 -18 -51 l-37 -48 -57 6 -58 7 0 -61 0 -60 60 -7
60 -7 0 -48 0 -49 -60 0 -60 0 0 -59 0 -58 97 -7 c53 -4 99 -8 101 -10 2 -2
-12 -25 -30 -51 l-33 -47 -100 7 c-55 3 -110 9 -122 12 l-23 5 0 258 c0 142
-3 266 -7 275 -6 16 5 17 128 12 75 -3 112 -2 84 2 -38 6 -43 8 -20 10 17 2
25 5 18 7 -8 4 -7 11 5 25 14 16 18 16 24 4 5 -8 15 -12 22 -9z m-387 -46 c4
-13 3 -13 -6 0 -8 11 -14 5 -30 -33 l-20 -47 -61 0 -60 0 0 -65 0 -65 55 0
c48 0 55 3 55 19 0 28 15 34 17 8 1 -12 5 -33 8 -45 4 -15 2 -21 -5 -17 -6 4
-10 -7 -10 -29 l0 -36 -60 0 -60 0 0 -60 0 -60 90 0 c50 0 90 -2 90 -5 0 -3
-11 -28 -25 -55 l-25 -50 -120 0 -120 0 0 280 0 281 142 -3 c116 -2 142 -6
145 -18z m653 -260 l0 -240 33 1 32 1 -30 8 c-16 4 -22 8 -12 9 10 0 15 6 12
11 -3 6 1 10 10 10 13 0 15 7 9 35 -8 44 2 46 15 3 l9 -33 1 34 c1 39 11 35
26 -12 8 -25 15 -31 33 -29 16 2 22 -2 22 -17 0 -10 6 -22 13 -25 6 -3 0 -4
-15 -2 -15 1 -25 -1 -22 -5 3 -5 15 -9 27 -9 50 0 50 -16 1 -59 -42 -37 -53
-41 -84 -37 -19 3 -69 10 -111 17 l-76 11 -6 151 c-4 82 -7 198 -7 256 l0 106
48 27 c26 15 53 28 60 28 9 0 12 -55 12 -240z m-880 -540 c0 -57 4 -80 13 -81
54 -7 77 -6 78 2 1 5 2 15 3 22 1 6 9 11 19 9 9 -2 17 1 16 5 -1 4 0 22 1 38
l2 30 8 -35 c10 -42 15 -274 6 -288 -4 -6 -2 -13 4 -17 15 -9 12 -25 -6 -25
-8 0 -12 -5 -9 -10 4 -6 11 -7 17 -4 6 4 6 -2 -1 -15 -11 -19 -17 -23 -37 -20
-3 0 -12 -8 -20 -18 -13 -17 -14 -17 -8 0 5 14 2 16 -17 13 -13 -3 -28 -5 -32
-5 -5 -1 -5 -7 -1 -13 5 -10 4 -10 -6 -1 -7 6 -19 9 -26 6 -24 -9 -15 11 16
37 17 13 30 31 30 40 0 8 9 26 20 40 11 14 20 31 20 38 0 7 6 15 14 18 11 4
11 10 2 29 -10 22 -13 23 -33 9 -14 -9 -23 -10 -23 -4 0 6 -4 8 -10 5 -5 -3
-10 -1 -10 4 0 21 -19 10 -28 -16 -8 -21 -11 7 -11 114 -1 78 -4 148 -7 157
-3 9 -1 16 5 16 7 0 11 -28 11 -80z m-260 49 c0 12 5 21 11 21 5 0 7 -6 3 -12
-6 -10 -5 -10 7 -1 18 15 44 1 36 -19 -3 -8 -1 -21 5 -29 8 -11 9 -10 4 4 -3
10 0 17 9 17 9 0 12 -9 10 -30 -3 -18 0 -28 5 -25 6 4 10 -1 10 -9 0 -9 6 -13
13 -10 9 3 13 -3 12 -17 -1 -13 -7 -25 -13 -27 -15 -5 -16 -42 -1 -42 5 0 7 5
4 10 -3 6 -1 10 4 10 6 0 11 -9 11 -20 0 -13 -5 -17 -14 -14 -10 4 -16 -2 -18
-17 -2 -13 -12 -28 -23 -34 -11 -5 -20 -16 -21 -22 -2 -29 -5 -33 -19 -33 -8
0 -15 -4 -15 -9 0 -4 -12 -8 -27 -7 -20 1 -28 6 -27 19 2 26 -4 21 -24 -21
-20 -42 -15 -55 29 -66 13 -3 18 -3 12 0 -7 3 -13 10 -13 15 0 16 19 10 44
-16 14 -14 28 -21 31 -15 3 6 13 10 21 10 8 0 12 -4 9 -10 -3 -5 0 -11 7 -12
7 -1 -45 -4 -117 -7 -71 -3 -150 -3 -175 0 -38 5 -32 7 40 10 l85 3 -67 3
c-38 2 -68 8 -68 13 0 4 8 6 18 4 9 -3 28 0 42 6 24 10 24 10 -5 6 -28 -4 -28
-3 -10 10 10 8 26 12 36 9 29 -10 62 10 65 38 1 15 -2 29 -7 32 -5 3 -6 0 -3
-8 3 -9 -3 -16 -15 -20 -13 -3 -22 1 -26 12 -6 15 -7 14 -16 -1 -13 -24 -29
-23 -29 2 0 13 -7 20 -20 20 -12 0 -20 6 -19 13 4 31 -2 57 -13 57 -7 0 -13
13 -14 30 -1 19 4 30 12 30 18 0 19 60 2 61 -10 0 -10 2 0 6 6 2 12 9 12 14 0
5 14 23 30 41 17 17 30 26 30 19 0 -6 10 -11 21 -11 12 0 28 -8 36 -17 14 -17
14 -17 9 1 -5 13 -2 17 9 13 8 -4 17 -2 20 3 9 15 27 12 19 -2 -4 -8 -2 -8 7
1 11 10 11 15 2 18 -7 3 -13 10 -13 16 1 7 10 1 20 -12 20 -23 20 -23 20 -2z
m-283 -46 c1 -21 -3 -41 -10 -45 -9 -6 -9 -8 1 -8 16 0 14 -101 -2 -112 -8 -6
-8 -8 0 -8 7 0 9 -11 6 -25 -3 -17 -15 -30 -37 -39 -38 -16 -53 -35 -35 -46 7
-5 2 -7 -14 -7 -30 0 -33 5 -10 21 14 11 14 13 0 25 -14 12 -16 11 -16 -5 0
-11 -4 -15 -8 -9 -13 18 -82 18 -102 0 -17 -16 -19 -15 -30 4 -6 12 -20 21
-30 21 -12 0 -20 7 -21 18 -1 16 -2 16 -6 0 -6 -22 -23 -24 -23 -2 0 9 9 18
20 21 14 4 17 9 11 17 -5 6 -11 22 -14 36 -3 20 -5 18 -6 -9 -1 -43 -9 -37
-15 12 -4 25 -1 36 7 34 6 -1 13 8 15 21 2 13 8 20 14 16 7 -5 9 1 5 15 -4 17
-3 20 8 11 13 -10 45 -4 56 12 3 5 13 6 23 2 15 -6 15 -8 1 -18 -10 -8 -12
-15 -5 -26 8 -13 10 -12 10 3 0 14 5 17 21 12 22 -7 59 18 59 40 0 16 33 30
38 16 2 -6 8 -9 12 -6 5 3 7 12 3 20 -3 9 1 15 10 15 9 0 17 -10 19 -22 2 -13
11 -24 20 -26 13 -2 16 1 12 12 -5 14 0 46 8 46 2 0 4 -17 5 -37z m1474 -83
c5 0 9 5 9 12 0 9 3 9 12 0 10 -10 10 -15 -2 -23 -11 -8 -12 -12 -2 -16 14 -6
16 -69 2 -78 -5 -3 -10 -11 -10 -16 0 -6 5 -7 10 -4 14 9 12 -21 -3 -37 -7 -7
-18 -24 -25 -38 -7 -14 -10 -17 -7 -7 3 13 -1 20 -16 24 -13 4 -18 11 -14 21
4 11 0 13 -15 9 -17 -4 -20 -2 -15 13 3 10 1 21 -5 25 -5 3 -10 0 -10 -7 0 -9
-3 -9 -10 2 -14 22 -12 33 5 27 8 -4 17 -2 20 3 4 6 1 10 -4 10 -6 0 -11 7
-11 16 0 8 5 12 10 9 6 -3 10 3 10 14 0 11 9 25 20 31 25 13 26 2 3 -16 -17
-12 -17 -13 2 -10 15 2 22 -4 27 -28 4 -19 5 -6 4 34 -2 36 -1 57 1 48 2 -10
9 -18 14 -18z m834 -728 c4 -4 4 4 0 17 -5 16 -4 21 4 17 17 -11 14 -67 -3
-60 -9 3 -15 -4 -18 -21 -5 -22 -2 -26 13 -22 11 3 17 1 13 -4 -3 -5 -22 -9
-42 -9 -36 0 -36 0 -14 16 23 16 31 48 10 42 -7 -3 -22 -19 -33 -36 -20 -31
-54 -43 -56 -19 0 10 -2 10 -6 0 -2 -7 -12 -13 -21 -13 -15 0 -15 2 -2 11 11
7 1 8 -35 3 -27 -3 -55 -12 -61 -20 -6 -8 -15 -14 -19 -14 -4 0 -3 6 3 13 11
13 -9 52 -21 40 -4 -3 -7 -1 -7 6 0 6 11 16 25 21 14 5 24 15 23 22 -2 7 6 12
17 12 11 0 23 4 26 9 3 5 13 1 22 -7 14 -15 16 -14 19 6 2 12 9 23 16 26 7 2
11 -2 10 -8 -2 -7 7 -13 19 -15 18 -1 20 1 12 11 -8 10 -7 18 5 29 15 15 16
15 16 -4 0 -25 16 -36 24 -15 3 8 10 12 16 9 6 -3 10 4 10 17 1 17 4 13 15
-15 7 -21 16 -42 20 -45z m-530 -42 c2 0 16 5 31 10 15 6 35 8 43 4 28 -12 51
-14 51 -4 0 6 5 10 11 10 5 0 8 -4 5 -9 -3 -4 7 -14 22 -20 l27 -13 -24 -19
c-13 -10 -31 -20 -40 -20 -9 -1 -27 -3 -41 -6 -40 -7 -74 -11 -90 -12 -13 -1
-13 -2 0 -12 11 -8 5 -9 -25 -5 -27 4 -35 2 -25 -4 12 -8 10 -10 -8 -10 -14 0
-21 4 -16 11 4 8 0 8 -15 0 -12 -7 -27 -9 -33 -5 -7 4 -8 3 -4 -4 5 -8 -4 -12
-26 -13 -18 -1 -49 -4 -68 -7 -19 -3 -56 -6 -82 -6 -25 -1 -44 -4 -41 -8 2 -5
-7 -8 -21 -8 -14 0 -26 4 -26 9 0 6 -12 4 -27 -4 -29 -15 -48 -10 -23 6 13 8
13 10 0 20 -11 8 -12 12 -2 16 6 2 10 9 6 14 -3 5 0 9 5 9 6 0 11 10 11 21 0
18 2 19 15 9 11 -9 18 -10 28 -1 8 6 17 8 20 4 4 -3 16 2 27 12 12 11 20 13
20 6 0 -8 6 -9 18 -3 9 5 23 7 30 5 8 -3 10 1 6 11 -3 9 -2 16 4 16 5 0 13
-10 17 -22 6 -19 8 -20 12 -6 3 13 12 16 36 12 26 -3 28 -2 12 5 -19 9 -19 10
3 10 13 1 21 5 18 10 -3 4 6 6 19 3 14 -2 28 -8 31 -13 9 -15 24 -10 18 6 -4
8 -1 15 5 15 6 0 11 -6 11 -12 0 -9 4 -8 10 2 6 10 10 11 10 3 0 -20 40 -15
41 5 1 16 2 16 6 0 2 -10 6 -18 8 -18z m-827 -65 c4 -4 -4 -4 -17 0 -16 5 -21
4 -17 -4 4 -6 14 -11 22 -11 8 0 14 -4 14 -10 0 -5 7 -10 16 -10 9 0 18 -9 21
-20 5 -20 23 -28 23 -10 0 6 11 10 23 10 13 0 27 3 31 8 4 4 19 7 32 7 19 1
24 -4 24 -26 0 -18 -6 -28 -20 -32 -11 -3 -20 0 -20 5 0 6 -6 6 -15 -2 -8 -6
-18 -9 -24 -6 -5 3 -21 2 -34 -3 -18 -7 -27 -7 -31 2 -4 7 -4 2 -2 -11 3 -17
1 -21 -8 -13 -7 6 -22 8 -34 4 -12 -3 -22 -1 -22 4 0 7 -15 6 -40 0 -51 -14
-52 -31 -2 -23 32 5 34 4 12 -5 -13 -5 -34 -8 -45 -5 -19 5 -20 11 -15 53 4
31 10 47 18 45 7 -1 23 3 35 10 21 10 21 10 7 -7 -14 -17 -14 -17 6 -5 22 13
26 57 5 52 -7 -1 -10 2 -7 7 7 10 53 8 64 -4z m-242 -21 c-6 -21 -4 -25 8 -21
9 4 17 -1 21 -14 8 -24 25 -25 25 -1 0 14 2 15 10 2 7 -11 10 -12 10 -2 0 10
3 10 15 -2 23 -23 19 -56 -7 -57 -13 0 -17 -3 -10 -6 10 -4 10 -8 1 -19 -12
-15 -34 -20 -25 -5 3 5 -5 8 -19 7 -14 0 -25 -4 -25 -8 0 -9 -64 -11 -72 -3
-10 10 14 85 24 79 6 -4 7 2 3 16 -5 17 -4 21 5 15 9 -6 11 -4 6 4 -5 7 0 18
10 26 26 20 27 19 20 -11z"/>


</g>

</svg>
