<?xml version="1.0" encoding="UTF-8" ?>
<!DOCTYPE svg PUBLIC "-//W3C//DTD SVG 1.1//EN" "http://www.w3.org/Graphics/SVG/1.1/DTD/svg11.dtd">
<svg width="1000pt" height="1000pt" viewBox="0 0 1000 1000" version="1.1" xmlns="http://www.w3.org/2000/svg">
<path fill="#b22e01" d=" M 0.00 0.00 L 1000.00 0.00 L 1000.00 1000.00 L 0.00 1000.00 L 0.00 0.00 Z" />
<path fill="#fdfafa" d=" M 337.16 140.38 C 348.41 133.16 364.80 135.25 373.55 145.47 C 379.28 151.75 380.66 161.11 378.05 169.06 C 375.26 177.50 369.69 185.70 361.21 189.18 C 353.34 192.50 343.89 190.53 337.75 184.67 C 332.10 194.34 326.50 204.05 320.99 213.81 C 317.74 214.12 314.48 214.19 311.22 214.14 C 323.20 192.92 335.50 171.89 347.77 150.84 C 350.85 150.86 353.94 150.86 357.02 150.88 C 351.76 160.90 345.81 170.55 340.24 180.40 C 342.79 182.46 345.67 184.41 349.07 184.53 C 356.04 185.16 362.58 180.76 366.12 174.98 C 369.78 169.18 372.41 161.94 370.43 155.09 C 368.90 149.42 364.04 144.99 358.43 143.49 C 351.04 141.20 342.72 143.93 337.43 149.38 C 332.89 153.83 330.43 159.90 328.79 165.93 C 326.57 165.75 324.37 165.53 322.17 165.28 C 323.43 155.39 328.62 145.78 337.16 140.38 Z" />
<path fill="#fdfafa" d=" M 419.98 149.24 C 423.16 149.22 426.35 149.23 429.54 149.25 C 426.63 154.33 423.68 159.38 420.84 164.50 C 425.61 164.56 430.39 164.54 435.16 164.53 C 438.19 159.59 440.76 154.38 443.93 149.52 C 447.05 148.86 450.32 149.35 453.51 149.26 C 450.64 154.35 447.67 159.39 444.84 164.50 C 447.37 164.53 449.90 164.54 452.44 164.56 C 451.61 165.98 450.78 167.40 449.96 168.82 C 447.37 169.19 444.14 168.11 441.92 169.61 C 435.68 179.89 429.98 190.51 423.86 200.87 C 422.57 203.24 420.65 205.65 421.16 208.52 C 422.93 209.91 425.05 208.76 426.78 207.89 C 433.19 204.07 437.48 197.76 443.05 192.94 C 450.12 184.72 456.32 175.78 462.63 166.97 C 465.10 168.07 467.48 169.34 469.85 170.66 C 464.84 181.46 464.68 193.54 462.13 204.99 C 467.68 200.67 473.27 195.95 476.58 189.62 C 484.32 176.14 492.15 162.70 499.93 149.24 C 503.17 149.22 506.42 149.22 509.67 149.26 C 505.87 155.82 502.14 162.42 498.29 168.95 C 502.08 167.59 506.84 166.81 509.99 169.97 C 513.62 173.61 512.45 179.35 510.53 183.55 C 507.44 189.88 503.49 195.76 500.17 201.97 C 505.07 201.45 510.28 199.55 513.26 195.43 C 518.46 186.88 523.11 178.00 528.39 169.51 C 531.31 168.12 534.86 169.12 538.02 169.17 C 533.36 177.42 528.59 185.62 523.91 193.87 C 521.58 198.03 518.91 202.04 517.18 206.51 C 517.91 206.72 519.37 207.14 520.09 207.34 C 524.96 205.14 529.22 201.63 532.93 197.83 C 538.22 189.11 543.10 180.13 548.19 171.28 C 549.99 167.07 555.51 169.37 559.01 169.17 C 552.48 180.59 546.02 192.05 539.45 203.44 C 538.54 204.97 537.83 206.71 538.21 208.52 C 539.98 209.94 542.13 208.73 543.86 207.87 C 548.56 205.06 552.20 200.85 555.92 196.90 C 562.08 189.45 568.04 181.81 573.40 173.77 C 572.32 170.97 570.13 168.22 570.95 165.05 C 571.45 162.11 573.39 159.75 575.55 157.82 C 577.06 159.53 578.57 161.24 580.07 162.97 C 579.62 164.56 578.50 166.32 579.48 167.95 C 582.00 171.87 585.90 174.85 587.74 179.22 C 589.01 181.98 587.86 185.03 586.53 187.53 C 583.46 193.11 580.16 198.55 577.07 204.11 C 576.26 205.42 575.96 206.98 576.17 208.50 C 578.92 210.30 581.98 207.75 584.27 206.24 C 589.96 201.55 595.39 196.22 598.73 189.55 C 602.75 183.15 605.54 175.47 612.12 171.16 C 616.30 168.17 622.55 166.74 626.95 170.07 C 629.34 171.68 630.34 174.51 631.20 177.14 C 632.91 177.17 634.63 177.21 636.37 177.25 C 629.39 189.09 622.43 200.95 615.54 212.84 C 624.71 208.53 632.05 201.21 638.32 193.41 C 647.01 178.78 655.31 163.92 663.91 149.23 C 667.08 149.22 670.27 149.23 673.46 149.26 C 668.59 157.69 663.75 166.13 658.96 174.60 C 662.45 171.17 666.80 167.75 672.01 168.14 C 675.23 168.06 678.03 170.85 678.30 174.00 C 678.59 177.09 676.90 179.86 675.47 182.46 C 671.65 189.01 667.99 195.64 664.17 202.17 C 663.07 204.11 661.71 206.19 662.20 208.53 C 664.25 210.05 666.68 208.49 668.57 207.45 C 673.90 203.88 678.10 198.93 682.31 194.16 C 683.55 195.31 684.76 196.48 685.96 197.69 C 680.08 203.99 674.17 210.92 665.94 214.17 C 661.87 215.45 656.02 215.51 653.77 211.15 C 652.55 208.07 653.13 204.49 654.77 201.67 C 658.91 194.22 663.41 186.96 667.43 179.44 C 668.46 177.94 668.80 174.56 665.97 175.47 C 659.53 177.93 655.10 183.76 650.81 188.89 C 645.65 197.17 641.07 205.79 636.12 214.18 C 632.97 214.18 629.84 214.19 626.71 214.15 C 627.34 212.79 627.99 211.44 628.66 210.09 C 623.58 214.24 617.74 217.34 611.57 219.52 C 608.66 224.31 606.24 229.42 602.97 233.98 C 599.97 237.85 594.97 240.47 590.01 239.50 C 586.11 238.92 583.14 234.83 583.99 230.95 C 584.47 227.99 586.28 225.41 588.62 223.61 C 593.22 219.99 598.79 217.94 604.31 216.18 C 605.12 214.87 605.93 213.56 606.76 212.26 C 602.93 214.45 598.21 215.85 593.91 214.19 C 591.34 213.25 590.41 210.54 589.74 208.15 C 585.40 211.33 580.76 215.15 575.04 214.89 C 571.98 215.08 568.57 213.62 567.52 210.58 C 566.83 207.92 567.04 204.96 568.33 202.52 C 571.78 195.92 576.03 189.74 579.26 183.03 C 579.53 181.41 578.64 178.06 576.60 178.39 C 567.88 189.59 560.06 201.94 548.53 210.54 C 544.04 213.99 537.68 216.51 532.26 213.78 C 529.48 212.40 529.18 209.12 529.00 206.39 C 524.14 210.79 518.25 216.34 511.10 214.56 C 507.08 213.10 507.22 208.11 508.32 204.71 C 504.77 206.16 500.97 206.78 497.14 206.77 C 492.52 212.26 485.36 216.72 477.93 215.05 C 473.25 214.21 470.06 209.75 470.05 205.10 C 463.36 210.62 455.20 215.81 446.13 214.78 C 441.98 214.54 438.88 211.02 437.86 207.21 C 439.78 206.30 441.69 205.36 443.62 204.46 C 444.92 205.65 445.94 207.73 447.98 207.65 C 451.49 208.05 453.61 204.54 454.46 201.63 C 456.20 195.14 456.75 188.41 457.93 181.81 C 453.38 187.90 449.22 194.41 443.39 199.38 C 437.73 205.27 431.98 211.78 424.01 214.45 C 420.53 215.18 416.14 215.39 413.60 212.44 C 412.24 211.03 412.31 208.93 411.84 207.16 C 406.80 211.19 401.01 215.92 394.09 214.76 C 390.17 214.56 387.89 210.78 387.84 207.18 C 382.99 210.98 377.64 215.56 371.03 214.85 C 367.74 214.94 364.39 212.44 364.19 209.03 C 363.81 206.25 364.59 203.46 366.05 201.10 C 372.33 190.34 378.42 179.48 384.77 168.76 C 387.87 168.77 390.97 168.77 394.08 168.81 C 387.55 180.97 380.37 192.77 373.69 204.85 C 372.49 206.57 373.04 210.22 375.76 209.09 C 382.63 206.95 386.96 200.67 391.93 195.88 C 395.29 193.02 397.00 188.86 399.24 185.17 C 402.26 179.75 405.63 174.52 408.33 168.92 C 405.59 169.05 402.85 169.12 400.12 169.13 C 400.95 167.59 401.81 166.06 402.68 164.53 C 405.51 164.54 408.34 164.54 411.17 164.53 C 414.14 159.46 417.01 154.32 419.98 149.24 Z" />
<path fill="#fdfafa" d=" M 393.38 153.49 C 396.91 152.20 401.17 155.18 400.74 159.02 C 401.01 163.70 394.36 166.04 391.34 162.70 C 388.45 160.09 389.62 154.59 393.38 153.49 Z" />
<path fill="#b22e01" d=" M 416.60 171.63 C 417.39 170.39 418.12 168.51 419.99 168.97 C 424.10 169.12 428.22 169.06 432.33 168.87 C 429.79 174.29 426.50 179.31 423.60 184.54 C 421.20 188.43 419.47 192.87 415.91 195.89 C 410.76 200.83 406.27 207.50 398.97 209.27 C 396.08 209.15 397.09 205.77 398.03 204.13 C 404.22 193.29 410.44 182.48 416.60 171.63 Z" />
<path fill="#b22e01" d=" M 492.43 179.41 C 494.57 176.05 498.25 172.55 502.53 174.35 C 503.35 176.73 503.70 179.33 502.34 181.60 C 499.25 187.35 495.88 192.97 492.50 198.54 C 490.63 199.95 489.90 197.06 489.05 195.88 C 486.71 190.29 489.31 184.14 492.43 179.41 Z" />
<path fill="#b22e01" d=" M 617.50 176.75 C 619.71 175.33 623.01 175.35 624.36 177.92 C 625.11 181.37 622.61 184.27 621.12 187.13 C 616.90 194.32 613.12 202.28 606.12 207.21 C 604.12 208.42 601.53 209.96 599.23 208.67 C 598.66 206.53 599.69 204.50 600.76 202.72 C 604.58 196.22 608.29 189.65 612.03 183.09 C 613.40 180.65 615.02 178.18 617.50 176.75 Z" />
<path fill="#fdfafa" d=" M 70.62 188.50 C 72.75 188.30 74.88 188.18 77.02 188.19 C 147.23 188.23 217.45 188.16 287.66 188.23 C 287.65 190.93 287.65 193.64 287.65 196.35 C 216.06 196.34 144.47 196.43 72.88 196.31 C 68.95 195.99 70.35 191.12 70.62 188.50 Z" />
<path fill="#fdfafa" d=" M 720.56 188.29 C 777.39 188.08 834.22 188.26 891.06 188.20 C 907.75 188.28 924.45 188.02 941.14 188.34 C 941.45 188.95 942.09 190.18 942.40 190.79 C 942.39 191.60 942.36 193.22 942.35 194.04 C 942.02 194.60 941.37 195.73 941.04 196.29 C 867.55 196.43 794.07 196.36 720.59 196.33 C 720.58 193.65 720.58 190.97 720.56 188.29 Z" />
<path fill="#b22e01" d=" M 478.54 206.13 C 478.35 201.92 481.44 198.61 483.12 194.98 C 484.17 198.68 486.19 202.00 489.12 204.52 C 487.04 207.93 480.69 210.96 478.54 206.13 Z" />
<path fill="#b22e01" d=" M 591.64 229.87 C 592.89 225.87 597.23 224.32 600.67 222.68 C 598.80 225.86 597.43 229.43 594.86 232.13 C 593.24 233.32 591.00 231.81 591.64 229.87 Z" />
<path fill="#fdfafa" d=" M 140.94 307.00 C 157.41 301.92 175.42 301.20 192.04 306.06 C 199.23 308.06 206.02 311.26 212.54 314.86 C 212.59 324.85 212.59 334.84 212.53 344.83 C 201.92 335.73 189.04 328.77 175.03 326.97 C 160.72 325.11 145.56 328.37 133.77 336.84 C 119.66 346.85 109.53 362.66 107.54 379.97 C 105.55 394.39 107.99 409.67 115.67 422.17 C 124.47 436.55 139.22 447.54 155.99 450.40 C 167.82 452.35 180.49 451.77 191.44 446.50 C 199.19 442.95 206.06 437.80 212.55 432.33 C 212.59 442.50 212.56 452.67 212.57 462.84 C 195.86 472.48 176.08 476.86 156.89 474.51 C 121.33 471.18 89.97 442.45 83.24 407.43 C 79.57 388.63 81.78 368.53 90.44 351.36 C 100.82 330.93 118.85 313.91 140.94 307.00 Z" />
<path fill="#fdfafa" d=" M 309.44 303.82 C 324.43 301.83 340.01 303.09 354.15 308.65 C 369.89 314.81 383.29 326.10 393.29 339.61 C 414.81 368.77 414.42 412.37 391.77 440.80 C 380.40 455.20 364.85 466.56 347.10 471.59 C 331.43 476.02 314.55 476.37 298.80 472.12 C 280.86 467.19 264.86 456.12 253.10 441.79 C 240.91 426.77 235.27 407.17 235.58 387.98 C 235.35 368.49 242.48 349.06 255.34 334.41 C 268.95 318.19 288.31 306.59 309.44 303.82 Z" />
<path fill="#fdfafa" d=" M 815.87 314.86 C 821.45 309.02 829.07 305.37 837.00 304.11 C 848.40 302.22 860.87 303.89 870.42 310.74 C 875.10 314.28 879.29 318.69 881.81 324.04 C 887.08 335.11 886.24 349.05 878.96 359.03 C 873.06 367.23 865.06 373.57 857.24 379.82 C 867.23 391.71 877.06 403.74 887.00 415.68 C 893.33 408.72 899.57 401.67 905.27 394.18 C 910.88 399.69 916.30 405.38 921.84 410.97 C 915.93 419.16 909.06 426.60 902.26 434.05 C 912.40 446.77 922.87 459.24 932.88 472.07 C 922.54 472.29 912.19 472.09 901.84 472.18 C 896.13 465.52 890.78 458.57 885.12 451.87 C 875.12 462.25 862.80 471.14 848.48 474.20 C 833.10 477.33 816.21 473.99 803.79 464.19 C 792.32 455.55 785.09 441.48 785.30 427.06 C 784.87 416.37 788.57 405.67 795.31 397.40 C 802.40 388.19 812.81 382.61 822.08 375.94 C 815.39 368.23 809.01 359.74 806.72 349.59 C 803.96 337.50 806.94 323.74 815.87 314.86 Z" />
<path fill="#fdfafa" d=" M 439.75 306.15 C 453.85 306.19 467.95 306.06 482.05 306.22 C 497.88 306.52 514.12 309.07 528.07 316.97 C 545.58 326.85 559.31 343.58 564.73 363.03 C 569.32 379.54 569.43 397.31 564.98 413.86 C 556.74 443.83 529.03 467.42 498.11 470.73 C 478.75 473.04 459.21 471.88 439.77 472.16 C 439.71 416.83 439.75 361.49 439.75 306.15 Z" />
<path fill="#fdfafa" d=" M 599.68 306.17 C 630.27 306.12 660.85 306.16 691.43 306.15 C 691.45 313.99 691.43 321.83 691.44 329.68 C 669.35 329.68 647.26 329.72 625.18 329.66 C 624.42 342.88 625.03 356.14 624.85 369.38 C 646.40 369.47 667.95 369.39 689.51 369.43 C 689.49 377.34 689.55 385.25 689.47 393.16 C 667.93 393.20 646.38 393.08 624.84 393.22 C 624.84 411.60 624.84 429.97 624.84 448.35 C 647.04 448.43 669.24 448.35 691.44 448.39 C 691.42 456.31 691.48 464.24 691.40 472.16 C 662.93 472.17 634.47 472.15 606.00 472.18 C 603.89 472.17 601.77 472.07 599.67 471.92 C 599.70 416.67 599.67 361.42 599.68 306.17 Z" />
<path fill="#b22e01" d=" M 838.45 325.63 C 845.01 323.08 853.55 324.10 858.28 329.69 C 863.27 335.65 862.27 345.33 856.62 350.53 C 852.29 354.67 847.69 358.70 842.54 361.77 C 837.02 355.05 829.47 348.39 829.36 339.02 C 828.85 333.08 833.21 327.85 838.45 325.63 Z" />
<path fill="#b22e01" d=" M 314.15 327.11 C 328.97 325.20 344.71 328.32 357.01 337.02 C 368.39 345.13 377.46 356.86 381.19 370.45 C 385.42 385.90 384.42 403.03 377.25 417.47 C 369.67 432.36 356.05 444.31 339.90 448.96 C 326.37 452.73 311.48 452.33 298.52 446.70 C 287.48 441.87 277.98 433.72 271.07 423.89 C 261.64 410.04 259.10 392.30 262.03 376.01 C 266.52 350.85 288.65 329.83 314.15 327.11 Z" />
<path fill="#b22e01" d=" M 464.86 329.72 C 481.53 329.41 499.11 329.66 514.23 337.62 C 529.11 345.40 539.31 360.79 541.89 377.25 C 544.04 391.54 542.62 406.86 535.23 419.52 C 527.10 433.38 512.95 443.80 497.05 446.65 C 486.53 448.80 475.77 448.35 465.11 448.40 C 464.54 433.29 465.01 418.14 464.86 403.01 C 464.86 378.58 464.85 354.15 464.86 329.72 Z" />
<path fill="#b22e01" d=" M 815.87 410.86 C 822.18 404.33 829.69 399.13 837.12 393.97 C 848.01 407.23 859.03 420.40 869.77 433.80 C 861.47 441.57 852.48 449.76 841.01 452.15 C 825.49 455.30 809.75 441.46 809.39 425.97 C 809.21 420.27 811.97 414.87 815.87 410.86 Z" />
<path fill="#fdfafa" d=" M 104.72 584.76 C 118.19 573.71 137.34 570.83 153.88 575.59 C 166.99 579.42 177.03 589.73 183.76 601.25 C 176.98 605.41 170.10 609.41 163.25 613.44 C 159.91 607.86 156.12 601.90 149.91 599.22 C 139.14 594.83 124.83 596.96 117.77 606.85 C 113.40 612.89 113.20 621.98 118.31 627.66 C 124.78 635.16 134.74 637.69 143.48 641.52 C 156.53 646.61 169.96 652.77 178.88 664.02 C 187.98 675.43 189.68 691.13 186.82 705.07 C 184.07 719.36 174.38 731.78 161.85 738.94 C 150.19 745.55 136.12 746.96 123.07 744.66 C 110.93 742.56 99.64 735.71 92.50 725.62 C 86.34 717.16 83.18 706.94 81.50 696.71 C 90.03 694.78 98.56 692.85 107.12 691.12 C 108.13 699.54 109.66 708.78 116.16 714.87 C 122.86 721.49 132.99 722.93 141.95 721.35 C 150.88 719.54 158.45 712.56 161.27 703.94 C 163.79 695.73 163.30 686.00 157.86 679.04 C 150.64 670.03 139.21 666.40 128.97 662.04 C 117.26 657.43 105.32 651.70 97.28 641.66 C 90.31 633.20 87.60 621.65 89.36 610.90 C 90.66 600.55 96.63 591.18 104.72 584.76 Z" />
<path fill="#fdfafa" d=" M 236.43 670.97 C 236.45 639.53 236.41 608.08 236.46 576.64 C 244.85 576.65 253.24 576.65 261.63 576.64 C 261.68 605.76 261.63 634.88 261.65 664.01 C 261.72 675.67 260.92 687.64 264.46 698.93 C 267.29 708.76 275.31 716.76 284.96 719.98 C 290.75 722.07 297.03 722.10 303.09 721.67 C 315.04 720.67 326.27 712.67 330.64 701.44 C 333.99 692.37 334.33 682.54 334.29 672.98 C 334.27 640.88 334.29 608.78 334.28 576.67 C 342.67 576.62 351.07 576.65 359.47 576.65 C 359.50 607.44 359.47 638.22 359.48 669.01 C 359.37 680.09 360.25 691.41 357.10 702.19 C 352.75 718.82 340.26 732.69 324.85 739.98 C 312.47 745.75 298.24 746.94 284.90 744.47 C 262.55 740.32 243.21 722.33 238.24 700.03 C 235.83 690.53 236.53 680.67 236.43 670.97 Z" />
<path fill="#fdfafa" d=" M 417.22 576.65 C 429.84 576.70 442.47 576.52 455.10 576.75 C 465.02 577.42 475.32 577.88 484.44 582.28 C 497.73 588.86 507.50 602.17 509.61 616.88 C 511.72 630.28 509.41 644.97 500.89 655.85 C 492.32 666.88 478.77 673.10 465.09 674.64 C 457.58 675.76 449.98 675.29 442.42 675.39 C 442.42 697.81 442.42 720.24 442.42 742.67 C 434.01 742.70 425.61 742.68 417.20 742.68 C 417.20 687.34 417.18 631.99 417.22 576.65 Z" />
<path fill="#fdfafa" d=" M 553.80 576.67 C 572.52 577.01 591.43 575.42 609.98 578.68 C 628.34 581.79 643.21 597.75 646.17 615.96 C 647.89 627.97 646.94 640.95 640.54 651.55 C 633.66 663.24 621.18 670.79 608.11 673.57 C 598.63 675.78 588.85 675.39 579.20 675.39 C 579.21 697.80 579.18 720.21 579.21 742.62 C 570.73 742.73 562.26 742.71 553.78 742.63 C 553.80 687.31 553.78 631.99 553.80 576.67 Z" />
<path fill="#fdfafa" d=" M 690.58 576.65 C 698.98 576.64 707.38 576.64 715.78 576.65 C 715.79 624.03 715.83 671.41 715.76 718.79 C 731.99 719.57 748.28 718.90 764.53 719.14 C 764.53 726.99 764.53 734.83 764.53 742.68 C 739.87 742.68 715.22 742.70 690.56 742.67 C 690.58 687.33 690.55 631.99 690.58 576.65 Z" />
<path fill="#fdfafa" d=" M 786.72 576.67 C 796.32 576.60 805.93 576.69 815.55 576.62 C 828.03 598.18 840.29 619.87 852.74 641.45 C 853.31 643.09 854.58 640.73 855.02 640.18 C 867.24 619.01 879.28 597.73 891.59 576.62 C 901.22 576.69 910.84 576.61 920.47 576.67 C 902.71 607.52 884.92 638.35 867.10 669.17 C 866.13 670.60 866.10 672.35 866.13 674.02 C 866.19 696.88 866.12 719.74 866.17 742.61 C 857.70 742.75 849.23 742.69 840.76 742.64 C 840.67 718.78 840.96 694.91 840.62 671.07 C 836.73 663.22 831.92 655.82 827.69 648.14 C 814.06 624.30 800.23 600.57 786.72 576.67 Z" />
<path fill="#b22e01" d=" M 442.46 599.78 C 454.05 599.75 466.75 599.34 476.81 606.06 C 484.57 611.17 487.13 621.32 485.72 630.09 C 485.05 637.20 480.89 643.93 474.52 647.30 C 464.77 652.62 453.27 652.09 442.51 652.18 C 442.32 634.72 442.43 617.25 442.46 599.78 Z" />
<path fill="#b22e01" d=" M 579.25 599.78 C 590.68 599.73 603.13 599.37 613.14 605.79 C 619.63 609.80 622.80 617.60 622.71 625.02 C 623.05 633.21 619.85 642.12 612.55 646.49 C 602.68 652.68 590.50 652.07 579.31 652.18 C 579.09 634.72 579.20 617.25 579.25 599.78 Z" />
<path fill="#fdfafa" d=" M 457.55 804.59 C 467.71 795.58 483.73 794.39 495.23 801.54 C 495.17 805.22 495.18 808.90 495.19 812.58 C 489.52 808.15 482.33 804.70 474.97 806.03 C 466.06 807.22 458.56 814.48 456.48 823.13 C 454.35 830.94 456.52 839.90 462.36 845.59 C 468.12 851.73 477.55 853.82 485.46 851.15 C 489.05 849.83 492.12 847.46 495.18 845.22 C 495.19 848.96 495.17 852.70 495.23 856.44 C 488.37 860.56 479.99 862.19 472.12 860.64 C 461.68 858.90 452.61 851.25 448.55 841.57 C 443.32 828.94 447.12 813.41 457.55 804.59 Z" />
<path fill="#fdfafa" d=" M 521.69 819.99 C 528.97 818.89 536.74 821.87 541.27 827.71 C 547.95 836.00 546.78 849.59 538.38 856.31 C 531.28 862.30 520.09 862.95 512.50 857.52 C 506.52 853.39 503.16 846.05 503.75 838.84 C 504.20 829.32 512.29 821.04 521.69 819.99 Z" />
<path fill="#fdfafa" d=" M 70.57 828.48 C 85.36 827.78 100.20 828.36 115.00 828.17 C 172.56 828.20 230.12 828.11 287.67 828.22 C 287.65 830.90 287.65 833.60 287.64 836.30 C 215.98 836.32 144.33 836.28 72.67 836.32 C 72.09 836.04 70.95 835.49 70.38 835.22 C 70.21 832.96 70.29 830.71 70.57 828.48 Z" />
<path fill="#b22e01" d=" M 520.58 828.77 C 524.46 827.64 529.09 827.98 532.19 830.80 C 536.96 835.00 537.37 842.77 534.16 848.02 C 531.10 852.91 524.19 854.01 519.21 851.65 C 510.54 847.23 511.16 831.98 520.58 828.77 Z" />
<path fill="#fdfafa" d=" M 720.56 828.27 C 778.37 828.05 836.18 828.23 893.99 828.17 C 909.80 828.25 925.61 828.00 941.41 828.31 C 942.49 830.94 943.20 834.37 940.62 836.41 C 867.28 836.15 793.93 836.41 720.59 836.28 C 720.58 833.60 720.58 830.93 720.56 828.27 Z" />
<path fill="#fdfafa" d=" M 559.59 850.71 C 562.94 848.23 568.08 850.96 568.35 854.97 C 568.97 859.15 563.88 862.73 560.17 860.64 C 556.31 859.02 556.03 852.79 559.59 850.71 Z" />
</svg>
