<?xml version="1.0" encoding="UTF-8" standalone="no"?>
<svg
   xmlns:dc="http://purl.org/dc/elements/1.1/"
   xmlns:cc="http://creativecommons.org/ns#"
   xmlns:rdf="http://www.w3.org/1999/02/22-rdf-syntax-ns#"
   xmlns:svg="http://www.w3.org/2000/svg"
   xmlns="http://www.w3.org/2000/svg"
   xmlns:sodipodi="http://sodipodi.sourceforge.net/DTD/sodipodi-0.dtd"
   xmlns:inkscape="http://www.inkscape.org/namespaces/inkscape"
   inkscape:version="1.0 (4035a4f, 2020-05-01)"
   sodipodi:docname="logo_transparent_black.svg"
   id="svg1078"
   version="1.2"
   viewBox="0 0 1000 1000"
   height="1000pt"
   width="1000pt">
  <metadata
     id="metadata1084">
    <rdf:RDF>
      <cc:Work
         rdf:about="">
        <dc:format>image/svg+xml</dc:format>
        <dc:type
           rdf:resource="http://purl.org/dc/dcmitype/StillImage" />
        <dc:title></dc:title>
      </cc:Work>
    </rdf:RDF>
  </metadata>
  <defs
     id="defs1082" />
  <sodipodi:namedview
     inkscape:current-layer="svg1078"
     inkscape:window-maximized="0"
     inkscape:window-y="23"
     inkscape:window-x="0"
     inkscape:cy="590.36007"
     inkscape:cx="456.39885"
     inkscape:zoom="0.69977474"
     inkscape:pagecheckerboard="true"
     showgrid="false"
     id="namedview1080"
     inkscape:window-height="1276"
     inkscape:window-width="1889"
     inkscape:pageshadow="2"
     inkscape:pageopacity="0"
     guidetolerance="10"
     gridtolerance="10"
     objecttolerance="10"
     borderopacity="1"
     bordercolor="#666666"
     pagecolor="#ffffff" />
  <g
     style="fill:#000000"
     id="g1247">
    <path
       id="path1011"
       d="m 337.16016,140.37891 c 11.25,-7.21875 27.64062,-5.12891 36.39062,5.08984 5.73047,6.28125 7.10938,15.64062 4.5,23.58984 -2.78906,8.44141 -8.35937,16.64063 -16.83984,20.1211 -7.8711,3.32031 -17.32032,1.35156 -23.46094,-4.50782 -5.64844,9.66797 -11.25,19.37891 -16.76172,29.13672 -3.25,0.3125 -6.50781,0.38282 -9.76953,0.33203 11.98047,-21.21875 24.28125,-42.25 36.55078,-63.30078 3.08203,0.0195 6.17188,0.0195 9.25,0.0391 -5.25781,10.01953 -11.21094,19.67187 -16.78125,29.51953 2.55078,2.0625 5.43359,4.01172 8.83203,4.13281 6.96875,0.62891 13.50781,-3.76953 17.05078,-9.55078 3.66016,-5.80078 6.28907,-13.03906 4.3086,-19.89063 -1.53125,-5.66797 -6.39063,-10.10156 -12,-11.60156 -7.39063,-2.28906 -15.71094,0.44141 -21,5.89063 -4.53907,4.44921 -7,10.51953 -8.64063,16.55078 -2.21875,-0.17969 -4.41797,-0.39844 -6.61719,-0.64844 1.25782,-9.89063 6.44922,-19.5 14.98829,-24.90234"
       style="fill:#000000;fill-opacity:1;fill-rule:nonzero;stroke:none" />
    <path
       id="path1013"
       style="fill:#000000;fill-opacity:1;fill-rule:nonzero;stroke:none;stroke-width:1.33333"
       d="M 596.65625 198.89453 C 595.05597 198.91443 593.4668 199.02925 591.90625 199.35938 C 587.68229 205.83855 584.25456 212.78645 580.21289 219.375 C 573.8535 219.38553 567.47851 219.41212 561.11914 219.33398 C 564.90561 212.50586 568.83855 205.77083 572.71875 199 C 568.46875 198.97373 564.2142 198.95833 559.97461 198.98438 C 556.01628 205.76042 552.18685 212.61459 548.22852 219.375 C 544.45248 219.38567 540.68229 219.38567 536.90625 219.375 C 535.74478 221.41145 534.59831 223.45377 533.49414 225.50586 C 537.13477 225.49543 540.78646 225.4004 544.4375 225.22852 C 540.83855 232.69206 536.34961 239.66732 532.31836 246.89648 C 529.33399 251.81315 527.05143 257.35933 522.57227 261.17188 C 515.94727 267.56249 510.17192 275.93295 501.01562 278.78711 C 497.38541 280.29232 496.65169 275.42643 498.25586 273.13477 C 507.1621 257.02539 516.73438 241.29171 525.4375 225.07812 C 521.29167 225.02626 517.1608 225.02633 513.02539 225.01562 C 504.56184 239.30733 496.43815 253.78581 488.06836 268.13477 C 486.12044 271.28061 485.07746 275.00065 485.58789 278.70898 C 485.8535 283.25586 490.31836 286.58848 494.70898 286.46875 C 503.52148 287.41146 510.65039 281.30794 517.11914 276.24023 C 517.18685 281.04231 520.22916 286.07877 525.45312 286.34961 C 534.68234 287.89648 542.40039 281.58789 549.11914 276.21289 C 549.74414 278.57226 549.65104 281.37565 551.46875 283.25586 C 554.85416 287.18814 560.70898 286.9056 565.34961 285.93164 C 575.97461 282.37435 583.64063 273.69205 591.1875 265.83789 C 598.95834 259.21289 604.50456 250.53191 610.57227 242.41211 C 608.99935 251.2142 608.26497 260.18684 605.94727 268.83789 C 604.81184 272.71809 601.98372 277.40169 597.30664 276.86523 C 594.58789 276.97461 593.22851 274.19857 591.49414 272.61523 C 588.92123 273.81314 586.37501 275.0677 583.8125 276.28125 C 585.17189 281.35937 589.30664 286.05208 594.83789 286.375 C 606.93164 287.74479 617.81245 280.82812 626.73438 273.46875 C 626.74479 279.66667 631.00065 285.61455 637.24023 286.73438 C 647.14647 288.95834 656.69206 283.01628 662.85352 275.69336 C 667.95769 275.70899 673.02539 274.87956 677.75977 272.94727 C 676.29102 277.47851 676.10416 284.13542 681.46875 286.07812 C 691 288.45317 698.85481 281.05209 705.33398 275.1875 C 705.57357 278.82813 705.97331 283.19727 709.68164 285.04102 C 716.9056 288.68164 725.38541 285.31771 731.375 280.71875 C 746.74479 269.25522 757.17253 252.78581 768.80273 237.85352 C 771.52148 237.41081 772.70898 241.87956 772.34961 244.04102 C 768.04232 252.98372 762.37566 261.22851 757.77148 270.02539 C 756.05274 273.2806 755.77148 277.22982 756.69336 280.77148 C 758.0944 284.82878 762.64063 286.77148 766.71875 286.52148 C 774.34896 286.86524 780.53191 281.77082 786.31836 277.53125 C 787.2142 280.71874 788.45377 284.33268 791.88086 285.58789 C 797.61523 287.80142 803.90625 285.93233 809.01562 283.01562 C 807.90625 284.74483 806.82747 286.49543 805.74414 288.24023 C 798.38477 290.58919 790.95838 293.31836 784.82812 298.14648 C 781.70834 300.54754 779.29102 303.98372 778.65039 307.93164 C 777.52018 313.10351 781.47851 318.56314 786.68164 319.33398 C 793.29101 320.62565 799.95898 317.13606 803.95898 311.97461 C 808.31836 305.89648 811.54753 299.07877 815.42773 292.69336 C 823.65169 289.78711 831.43684 285.65039 838.21289 280.11914 C 837.31705 281.92123 836.45377 283.71874 835.61523 285.53125 C 839.7871 285.58845 843.95899 285.57227 848.16211 285.57227 C 854.76107 274.38476 860.86394 262.89518 867.74414 251.85352 C 873.4681 245.01498 879.37565 237.24024 887.95898 233.95898 C 891.73502 232.74544 891.28125 237.25586 889.90625 239.25586 C 884.54688 249.2819 878.54623 258.95899 873.02539 268.89648 C 870.8379 272.6517 870.06836 277.42708 871.69336 281.53125 C 874.69336 287.34896 882.49474 287.26563 887.92188 285.5625 C 898.89582 281.22917 906.77147 271.98372 914.61523 263.58789 C 913.01627 261.9733 911.40039 260.4121 909.74414 258.88086 C 904.13477 265.24023 898.53191 271.8392 891.42773 276.59961 C 888.90691 277.98498 885.66601 280.06706 882.93164 278.04102 C 882.2806 274.92123 884.09375 272.14583 885.5625 269.5625 C 890.65105 260.85417 895.53125 252.01562 900.625 243.28125 C 902.53125 239.81249 904.7858 236.11979 904.40039 232 C 904.04102 227.80208 900.30733 224.07817 896.01562 224.1875 C 889.0677 223.66667 883.26627 228.22981 878.61523 232.80273 C 885.00065 221.50587 891.45247 210.25525 897.94727 199.01562 C 893.69205 198.97402 889.43684 198.95901 885.21289 198.97461 C 873.74413 218.56314 862.6823 238.37565 851.09375 257.88086 C 842.73438 268.2819 832.94792 278.04232 820.71875 283.78711 C 829.90626 267.93295 839.18685 252.12044 848.49414 236.33398 C 846.17123 236.28188 843.88086 236.2291 841.59961 236.1875 C 840.45377 232.6823 839.11913 228.90561 835.93164 226.75977 C 830.06705 222.31706 821.73503 224.2285 816.16211 228.21289 C 807.38607 233.95768 803.66601 244.19788 798.30664 252.73438 C 793.85351 261.625 786.61394 268.73433 779.02539 274.98438 C 775.97331 277 771.89518 280.40104 768.22852 278 C 767.94728 275.97396 768.34961 273.89648 769.42773 272.14648 C 773.54753 264.73503 777.94727 257.47851 782.04102 250.04102 C 783.81184 246.70768 785.34831 242.64128 783.65039 238.95898 C 781.19727 233.13606 776.00004 229.1608 772.64062 223.93164 C 771.33333 221.75976 772.82877 219.4108 773.42773 217.29102 C 771.42773 214.98372 769.4108 212.70899 767.40039 210.42773 C 764.52018 213.00065 761.93233 216.14648 761.26562 220.06836 C 760.17188 224.29232 763.09374 227.95899 764.53125 231.69336 C 757.38541 242.41211 749.43685 252.59896 741.22852 262.53125 C 736.26498 267.80208 731.41211 273.41211 725.14648 277.16211 C 722.8392 278.30795 719.97461 279.92123 717.61523 278.02539 C 717.10481 275.61394 718.05208 273.29231 719.26562 271.25586 C 728.02608 256.06835 736.64128 240.78646 745.34961 225.5625 C 740.68294 225.82813 733.3177 222.76041 730.92188 228.375 C 724.13537 240.17188 717.62435 252.14648 710.57227 263.77148 C 705.62435 268.8392 699.94797 273.52083 693.45312 276.45312 C 692.49479 276.1875 690.54623 275.62565 689.57227 275.34961 C 691.87956 269.38606 695.43745 264.04102 698.54688 258.49414 C 704.78645 247.49414 711.14579 236.5625 717.35938 225.5625 C 713.14579 225.49479 708.41211 224.16145 704.52148 226.01562 C 697.47982 237.33337 691.2819 249.17123 684.34961 260.57227 C 680.37565 266.06705 673.42774 268.59831 666.89648 269.29102 C 671.31836 261.01498 676.5892 253.17188 680.70898 244.73438 C 683.26628 239.13537 684.82812 231.47916 679.98438 226.625 C 675.78641 222.41145 669.43685 223.45312 664.38477 225.26562 C 669.52018 216.56249 674.49479 207.76045 679.5625 199.01562 C 675.22917 198.95842 670.89517 198.95833 666.57227 198.98438 C 656.19727 216.9323 645.76042 234.85416 635.4375 252.82812 C 631.02605 261.26567 623.57292 267.56315 616.17188 273.31836 C 619.57292 258.05273 619.78646 241.94792 626.46875 227.54688 C 623.3073 225.78641 620.13476 224.09375 616.83789 222.625 C 608.42642 234.375 600.16146 246.29231 590.73438 257.25586 C 583.30725 263.68294 577.5879 272.09375 569.04102 277.1875 C 566.73372 278.34897 563.90625 279.87956 561.54688 278.02539 C 560.86454 274.19727 563.42774 270.98442 565.14648 267.82812 C 573.30795 254.01563 580.90561 239.85482 589.22852 226.14648 C 592.18685 224.14648 596.49413 225.58855 599.94727 225.09375 C 601.04101 223.19792 602.14647 221.30795 603.25586 219.41211 C 599.86523 219.38611 596.49414 219.37558 593.11914 219.33398 C 596.89518 212.52148 600.85351 205.80212 604.68164 199.01562 C 602.02213 199.09053 599.32338 198.86137 596.65625 198.89453 z M 576.4375 225.16211 C 573.05209 232.38607 568.66732 239.07877 564.80273 246.05273 C 561.59961 251.24024 559.29166 257.16146 554.54688 261.1875 C 547.68225 267.77083 541.69336 276.66602 531.95898 279.02539 C 528.10481 278.86394 529.45377 274.35937 530.70898 272.17188 C 538.95898 257.7187 547.25522 243.30664 555.46875 228.83789 C 556.52083 227.18684 557.49475 224.68164 559.98438 225.29102 C 565.46875 225.49414 570.95834 225.41211 576.4375 225.16211 z M 666.92383 231.81641 C 667.9295 231.81748 668.9707 232.01855 670.04102 232.46875 C 671.13476 235.64063 671.59962 239.10351 669.78711 242.13477 C 665.66732 249.80143 661.17123 257.29167 656.66602 264.71875 C 654.17123 266.59896 653.19857 262.74478 652.06836 261.17188 C 648.94857 253.71871 652.4108 245.52017 656.57227 239.21289 C 658.89127 235.57356 662.5659 231.81176 666.92383 231.81641 z M 827.69727 234.4082 C 829.63385 234.44842 831.46778 235.30078 832.47852 237.22852 C 833.47852 241.82748 830.14648 245.69335 828.16211 249.50586 C 822.53191 259.09439 817.49544 269.70833 808.16211 276.28125 C 805.49544 277.89582 802.04232 279.94728 798.97461 278.22852 C 798.2142 275.37436 799.58854 272.66602 801.01562 270.29102 C 806.10417 261.62435 811.05143 252.86394 816.04102 244.11914 C 817.86394 240.86394 820.02669 237.57227 823.33398 235.66602 C 824.6237 234.83659 826.19104 234.37693 827.69727 234.4082 z M 644.16211 259.97461 C 645.56315 264.9069 648.25587 269.33399 652.16211 272.69336 C 649.38607 277.24024 640.92253 281.2806 638.05273 274.83789 C 637.80273 269.2285 641.92254 264.81314 644.16211 259.97461 z M 800.89648 296.90625 C 798.4017 301.14582 796.57358 305.9069 793.14648 309.50586 C 790.98503 311.09439 787.99936 309.07747 788.85352 306.49414 C 790.52018 301.16081 796.30795 299.09374 800.89648 296.90625 z "
       transform="scale(0.74999998)" />
    <path
       id="path1015"
       d="m 393.37891,153.48828 c 3.53125,-1.28906 7.79296,1.69141 7.35937,5.53125 0.27344,4.67969 -6.37891,7.01953 -9.39844,3.67969 -2.89062,-2.60938 -1.71875,-8.10938 2.03907,-9.21094"
       style="fill:#000000;fill-opacity:1;fill-rule:nonzero;stroke:none" />
    <path
       id="path1023"
       d="m 70.621094,188.5 c 2.128906,-0.19922 4.257812,-0.32031 6.398437,-0.30859 70.210939,0.0391 140.429689,-0.0312 210.640629,0.0391 -0.0117,2.69922 -0.0117,5.41015 -0.0117,8.12109 -71.58985,-0.0117 -143.17969,0.0781 -214.769534,-0.043 -3.929687,-0.32031 -2.527344,-5.1875 -2.257812,-7.80859"
       style="fill:#000000;fill-opacity:1;fill-rule:nonzero;stroke:none" />
    <path
       id="path1025"
       d="m 720.55859,188.28906 c 56.83203,-0.21094 113.66016,-0.0273 170.5,-0.0898 16.69141,0.082 33.39063,-0.17969 50.08203,0.14062 0.3086,0.60938 0.94922,1.83985 1.25782,2.44922 -0.008,0.8125 -0.0391,2.42969 -0.0469,3.25 -0.33203,0.5625 -0.98047,1.69141 -1.3125,2.25 -73.48828,0.14063 -146.96875,0.0703 -220.44922,0.0391 -0.0117,-2.67968 -0.0117,-5.35937 -0.0312,-8.03906"
       style="fill:#000000;fill-opacity:1;fill-rule:nonzero;stroke:none" />
    <path
       id="path1031"
       d="m 140.94141,307 c 16.46875,-5.07813 34.48046,-5.80078 51.09765,-0.94141 7.19141,2 13.98047,5.20313 20.5,8.80078 0.0508,9.99219 0.0508,19.98047 -0.008,29.96875 -10.60938,-9.09765 -23.49219,-16.05859 -37.5,-17.85937 -14.3125,-1.85938 -29.47266,1.40234 -41.26172,9.87109 -14.10937,10.01172 -24.23828,25.82032 -26.23047,43.12891 -1.98828,14.42187 0.44922,29.70312 8.13282,42.20312 8.79687,14.37891 23.54687,25.36719 40.3164,28.22657 11.83203,1.95312 24.5,1.37109 35.45313,-3.89844 7.75,-3.55078 14.61718,-8.69922 21.10937,-14.17188 0.0391,10.17188 0.008,20.34375 0.0195,30.51172 -16.71094,9.64063 -36.49219,14.01953 -55.67969,11.67188 C 121.32813,471.17969 89.96875,442.44922 83.238281,407.42969 79.570312,388.62891 81.78125,368.53125 90.441406,351.35937 100.82031,330.92969 118.85156,313.91016 140.94141,307"
       style="fill:#000000;fill-opacity:1;fill-rule:nonzero;stroke:none" />
    <path
       id="path1033"
       style="fill:#000000;fill-opacity:1;fill-rule:nonzero;stroke:none;stroke-width:1.33333"
       d="M 431.47266 403.91797 C 425.15589 403.85824 418.83301 404.26367 412.58789 405.09375 C 384.4108 408.78646 358.59897 424.25586 340.45312 445.88086 C 323.3073 465.4121 313.80144 491.31705 314.10352 517.30664 C 313.69206 542.89517 321.21355 569.02669 337.46875 589.05273 C 353.14583 608.16211 374.47851 622.92123 398.40039 629.49414 C 419.40039 635.16081 441.90691 634.69336 462.80273 628.78711 C 486.4694 622.07878 507.19792 606.9323 522.35938 587.73438 C 552.5625 549.82812 553.07747 491.69271 524.38477 452.8125 C 511.05143 434.80209 493.18684 419.74478 472.19727 411.53125 C 459.23861 406.43587 445.36955 404.04938 431.47266 403.91797 z M 430.07031 435.42578 C 446.33398 435.42122 462.68978 439.93522 476.01562 449.35938 C 491.18749 460.17188 503.2819 475.81184 508.25586 493.93164 C 513.89647 514.5306 512.56249 537.375 503 556.625 C 492.89583 576.47916 474.73372 592.4121 453.19727 598.61523 C 435.1608 603.64127 415.30664 603.10481 398.02539 595.59961 C 383.30664 589.1621 370.64128 578.29167 361.42773 565.1875 C 348.85481 546.71875 345.46875 523.06836 349.375 501.34961 C 355.35937 467.80273 384.86523 439.77148 418.86523 436.14648 C 422.57031 435.66895 426.31716 435.42683 430.07031 435.42578 z "
       transform="scale(0.74999998)" />
    <path
       id="path1035"
       style="fill:#000000;fill-opacity:1;fill-rule:nonzero;stroke:none;stroke-width:1.33333"
       d="M 1127.584 404.51367 C 1123.6887 404.51652 1119.7995 404.84831 1116 405.47852 C 1105.4271 407.16081 1095.2656 412.02605 1087.8281 419.8125 C 1075.9219 431.65105 1071.9479 449.99935 1075.625 466.11914 C 1078.6823 479.65039 1087.1868 490.97461 1096.1035 501.25586 C 1083.7441 510.14647 1069.8652 517.58919 1060.4121 529.86523 C 1051.4277 540.89647 1046.4954 555.16211 1047.0684 569.41211 C 1046.7871 588.64128 1056.427 607.40102 1071.7188 618.92188 C 1088.2813 631.98437 1110.8014 636.4375 1131.3066 632.26562 C 1150.4004 628.18749 1166.8288 616.33269 1180.1621 602.49414 C 1187.709 611.42643 1194.8386 620.69205 1202.4531 629.57227 C 1216.2552 629.45243 1230.0514 629.7194 1243.8379 629.42773 C 1230.4941 612.31836 1216.5313 595.69271 1203.0156 578.73438 C 1212.0781 568.80207 1221.2389 558.88086 1229.1191 547.95898 C 1221.7337 540.50586 1214.5046 532.92123 1207.0254 525.57227 C 1199.4264 535.56184 1191.1035 544.95898 1182.666 554.24023 C 1169.4108 538.31835 1156.3073 522.28191 1142.9844 506.42773 C 1153.4115 498.0944 1164.0775 489.64128 1171.9473 478.70898 C 1181.6504 465.40169 1182.7702 446.81315 1175.7441 432.05273 C 1172.3848 424.92253 1166.8021 419.04232 1160.5625 414.31836 C 1151.0117 407.4707 1139.2698 404.50513 1127.584 404.51367 z M 1126.6719 432.41992 C 1133.302 432.21825 1140.0387 434.46386 1144.375 439.58789 C 1151.026 447.5306 1149.6934 460.43749 1142.1621 467.375 C 1136.3861 472.89583 1130.2546 478.26563 1123.3848 482.35938 C 1116.0254 473.40104 1105.9583 464.52018 1105.8125 452.02539 C 1105.1354 444.10351 1110.9473 437.13541 1117.9316 434.17188 C 1120.666 433.10905 1123.6582 432.51159 1126.6719 432.41992 z M 1116.1621 525.29102 C 1130.6829 542.97331 1145.3757 560.5306 1159.6934 578.40039 C 1148.6257 588.75976 1136.6413 599.68294 1121.3496 602.86523 C 1100.6517 607.06835 1079.6667 588.61524 1079.1875 567.95898 C 1078.9479 560.36002 1082.625 553.16146 1087.8281 547.8125 C 1096.2396 539.10417 1106.2559 532.17123 1116.1621 525.29102 z "
       transform="scale(0.74999998)" />
    <path
       id="path1037"
       style="fill:#000000;fill-opacity:1;fill-rule:nonzero;stroke:none;stroke-width:1.33333"
       d="M 614.5332 408.18555 C 605.13346 408.19598 595.73502 408.22593 586.33398 408.19727 C 586.33398 481.98372 586.28124 555.77082 586.35938 629.54688 C 612.28126 629.17187 638.33399 630.71875 664.14648 627.64062 C 705.37566 623.22916 742.31705 591.77083 753.30664 551.8125 C 759.23893 529.74479 759.0944 506.05143 752.97461 484.04102 C 745.74544 458.10351 727.4375 435.80208 704.09375 422.625 C 685.49479 412.09375 663.83855 408.69206 642.73438 408.29102 C 633.33333 408.18422 623.93294 408.17511 614.5332 408.18555 z M 628.19727 439.52344 C 647.8508 439.45672 667.99934 440.87435 685.64062 450.16211 C 705.47916 460.53191 719.07878 481.05208 722.52148 503 C 725.38607 522.05208 723.49479 542.47916 713.64062 559.35938 C 702.80208 577.83855 683.9323 591.73437 662.73438 595.53125 C 648.70833 598.40104 634.36003 597.80273 620.14648 597.86523 C 619.38607 577.71939 620.0157 557.52148 619.8125 537.34961 C 619.8125 504.77148 619.80183 472.19792 619.8125 439.625 C 622.59115 439.57357 625.38962 439.53297 628.19727 439.52344 z "
       transform="scale(0.74999998)" />
    <path
       id="path1039"
       d="m 599.67969,306.17187 c 30.58984,-0.0508 61.17187,-0.0117 91.75,-0.0234 0.0195,7.83984 0,15.67968 0.0117,23.53125 -22.08985,0 -44.17969,0.0391 -66.26172,-0.0195 -0.75782,13.21875 -0.14844,26.48046 -0.32813,39.71875 21.54688,0.0898 43.09766,0.0117 64.66016,0.0508 -0.0234,7.91015 0.0391,15.82031 -0.043,23.73047 -21.53906,0.0391 -43.08984,-0.082 -64.62891,0.0586 0,18.38281 0,36.75 0,55.13281 22.19922,0.0781 44.39844,0 66.60157,0.0391 -0.0195,7.91797 0.0391,15.84766 -0.043,23.76954 -28.46875,0.0117 -56.92969,-0.0117 -85.39844,0.0195 -2.10938,-0.008 -4.23047,-0.10938 -6.32813,-0.25782 0.0273,-55.25 0,-110.5 0.008,-165.75"
       style="fill:#000000;fill-opacity:1;fill-rule:nonzero;stroke:none" />
    <path
       id="path1049"
       d="m 104.71875,584.76172 c 13.47266,-11.05078 32.62109,-13.9336 49.16016,-9.17188 13.10937,3.83203 23.15234,14.14063 29.88281,25.66016 -6.78125,4.16016 -13.66016,8.16016 -20.51172,12.19141 -3.33984,-5.58204 -7.12891,-11.54297 -13.33984,-14.22266 -10.76954,-4.39063 -25.08203,-2.25781 -32.14063,7.63281 -4.37109,6.03906 -4.57031,15.12891 0.53906,20.8086 6.47266,7.5 16.42969,10.03125 25.17188,13.85937 13.05078,5.08984 26.48047,11.25 35.39844,22.5 9.10156,11.41016 10.80078,27.10938 7.9414,41.05078 -2.75,14.28906 -12.4414,26.71094 -24.96875,33.8711 -11.66015,6.60937 -25.73047,8.01953 -38.78125,5.71875 -12.14062,-2.10157 -23.429685,-8.94922 -30.57031,-19.03907 -6.160156,-8.46093 -9.320312,-18.67968 -11,-28.91015 8.53125,-1.92969 17.058594,-3.85938 25.62109,-5.58985 1.00782,8.41797 2.53907,17.66016 9.03907,23.75 6.69922,6.61719 16.82812,8.0586 25.78906,6.48047 8.92969,-1.8125 16.5,-8.79297 19.32031,-17.41015 2.51953,-8.21094 2.03125,-17.94141 -3.41016,-24.90235 -7.21875,-9.00781 -18.64843,-12.64062 -28.89062,-17 -11.70703,-4.60937 -23.64844,-10.33984 -31.6875,-20.3789 -6.972656,-8.46094 -9.679688,-20.01172 -7.921875,-30.76172 1.300781,-10.34766 7.269531,-19.71875 15.359375,-26.13672"
       style="fill:#000000;fill-opacity:1;fill-rule:nonzero;stroke:none" />
    <path
       id="path1051"
       d="m 236.42969,670.96875 c 0.0195,-31.4375 -0.0195,-62.89063 0.0312,-94.32813 8.39062,0.008 16.77734,0.008 25.16797,0 0.0508,29.1211 0,58.23829 0.0195,87.3711 0.0703,11.66015 -0.72657,23.6289 2.8125,34.91797 2.82812,9.83203 10.84765,17.83203 20.5,21.05078 5.78906,2.08984 12.07031,2.12109 18.1289,1.6914 11.94922,-1 23.17969,-9 27.55078,-20.23046 3.34766,-9.07032 3.6875,-18.90235 3.64844,-28.46094 -0.0195,-32.10156 0,-64.19922 -0.008,-96.3086 8.39062,-0.0508 16.78906,-0.0234 25.1875,-0.0234 0.0312,30.79297 0,61.57031 0.0117,92.36328 -0.10938,11.07812 0.76953,22.39844 -2.37891,33.17969 -4.35156,16.6289 -16.83984,30.5 -32.25,37.78906 -12.38281,5.76953 -26.61328,6.96094 -39.95312,4.48828 -22.34766,-4.14844 -41.6875,-22.14063 -46.66016,-44.4375 -2.41016,-9.5 -1.70703,-19.35938 -1.80859,-29.0625"
       style="fill:#000000;fill-opacity:1;fill-rule:nonzero;stroke:none" />
    <path
       id="path1053"
       style="fill:#000000;fill-opacity:1;fill-rule:nonzero;stroke:none;stroke-width:1.33333"
       d="M 581.54102 768.8418 C 573.1224 768.85482 564.70508 768.8991 556.29102 768.86523 C 556.23902 842.65169 556.26562 916.45377 556.26562 990.24023 C 567.47916 990.24023 578.68295 990.26492 589.89648 990.22852 L 589.89648 900.52148 C 599.97462 900.38607 610.10351 901.01628 620.11914 899.52148 C 638.35873 897.4694 656.42644 889.17188 667.85352 874.46875 C 679.2129 859.95834 682.29102 840.37565 679.47852 822.50586 C 676.66602 802.89647 663.64062 785.14583 645.92188 776.375 C 633.76041 770.50521 620.02669 769.89583 606.80273 769 C 598.38086 768.84635 589.95964 768.82877 581.54102 768.8418 z M 595.80273 799.68945 C 609.57942 799.67937 624.00912 800.23958 635.74414 808.07812 C 646.0931 814.89583 649.50521 828.42643 647.625 840.11914 C 646.73437 849.59831 641.18815 858.57357 632.69336 863.06836 C 619.69336 870.16211 604.35937 869.45247 590.01562 869.57227 C 589.76041 846.29101 589.90567 823.00065 589.94727 799.70898 C 591.87891 799.70378 593.83464 799.69089 595.80273 799.68945 z "
       transform="scale(0.74999998)" />
    <path
       id="path1055"
       style="fill:#000000;fill-opacity:1;fill-rule:nonzero;stroke:none;stroke-width:1.33333"
       d="M 775.9375 768.77539 C 763.42252 768.70573 750.87956 769.12305 738.40039 768.89648 C 738.37439 842.6517 738.401 916.41145 738.375 990.17188 C 749.68229 990.28108 760.97396 990.30795 772.28125 990.16211 C 772.23965 960.28191 772.28123 930.4017 772.26562 900.52148 C 785.13541 900.52148 798.17189 901.04167 810.8125 898.09375 C 828.23959 894.38542 844.88087 884.31771 854.05273 868.73438 C 862.5892 854.59896 863.85417 837.29166 861.5625 821.28125 C 857.61459 797 837.7858 775.71809 813.30664 771.57227 C 800.93945 769.40039 788.45248 768.84505 775.9375 768.77539 z M 778.10352 799.68164 C 791.6725 799.66155 805.84116 800.23112 817.52148 807.71875 C 826.17254 813.06771 830.40104 823.46875 830.28125 833.35938 C 830.73437 844.28126 826.46875 856.16145 816.73438 861.98438 C 803.57292 870.23959 787.33399 869.42643 772.41211 869.57227 C 772.12044 846.29101 772.26629 823.00065 772.33398 799.70898 C 774.23893 799.70052 776.16509 799.68451 778.10352 799.68164 z "
       transform="scale(0.74999998)" />
    <path
       id="path1057"
       d="m 690.57812,576.64844 c 8.40235,-0.008 16.80079,-0.008 25.20313,0 0.008,47.38281 0.0469,94.76172 -0.0195,142.14062 16.22656,0.78125 32.51953,0.10938 48.76953,0.35156 0,7.84766 0,15.6875 0,23.53907 -24.66016,0 -49.3125,0.0195 -73.97266,-0.008 0.0195,-55.34375 -0.008,-110.68359 0.0195,-166.02343"
       style="fill:#000000;fill-opacity:1;fill-rule:nonzero;stroke:none" />
    <path
       id="path1059"
       d="m 786.71875,576.67187 c 9.60156,-0.0703 19.21094,0.0195 28.83203,-0.0508 12.48047,21.5586 24.73828,43.25 37.1875,64.82813 0.57031,1.64062 1.83984,-0.71875 2.28125,-1.26953 12.21875,-21.16797 24.26172,-42.44922 36.57031,-63.5586 9.62891,0.0703 19.25,-0.0117 28.87891,0.0508 -17.75781,30.84766 -35.54688,61.67969 -53.36719,92.5 -0.97265,1.42969 -1,3.17969 -0.97265,4.84766 0.0625,22.85938 -0.008,45.71875 0.043,68.58984 -8.47265,0.14063 -16.9414,0.082 -25.41015,0.0312 -0.0898,-23.85937 0.19922,-47.73046 -0.14063,-71.57031 -3.89062,-7.85156 -8.69922,-15.25 -12.92968,-22.92969 -13.63282,-23.83984 -27.46094,-47.57031 -40.97266,-71.46875"
       style="fill:#000000;fill-opacity:1;fill-rule:nonzero;stroke:none" />
    <path
       id="path1065"
       d="m 457.55078,804.58984 c 10.16016,-9.01172 26.17969,-10.19922 37.67969,-3.05078 -0.0586,3.67969 -0.0508,7.35938 -0.0391,11.03906 -5.67188,-4.42968 -12.86329,-7.8789 -20.22266,-6.54687 -8.91016,1.1875 -16.41016,8.44922 -18.48828,17.09766 -2.12891,7.8125 0.0391,16.76953 5.8789,22.46093 5.76172,6.14063 15.19141,8.23047 23.10157,5.5586 3.58984,-1.32032 6.66015,-3.6875 9.71875,-5.92969 0.0117,3.74219 -0.008,7.48047 0.0508,11.22266 -6.85938,4.11718 -15.24219,5.75 -23.10938,4.19921 -10.4414,-1.74218 -19.51172,-9.39062 -23.57031,-19.07031 -5.23047,-12.6289 -1.42969,-28.16015 9,-36.98047"
       style="fill:#000000;fill-opacity:1;fill-rule:nonzero;stroke:none" />
    <path
       id="path1067"
       style="fill:#000000;fill-opacity:1;fill-rule:nonzero;stroke:none;stroke-width:1.33333"
       d="M 699.24805 1093.0215 C 698.02436 1093.0377 696.80078 1093.1354 695.58789 1093.3184 C 683.05142 1094.7194 672.26498 1105.7604 671.66602 1118.4531 C 670.87956 1128.0677 675.36002 1137.8542 683.33398 1143.3594 C 693.45377 1150.599 708.37434 1149.7337 717.83789 1141.7441 C 729.04101 1132.7858 730.59961 1114.6673 721.69336 1103.6152 C 716.4069 1096.8021 707.81383 1092.9081 699.24805 1093.0215 z M 699.15625 1104.2305 C 702.93943 1104.1277 706.74478 1105.1491 709.58789 1107.7344 C 715.94726 1113.3333 716.49413 1123.6934 712.21289 1130.6934 C 708.13476 1137.2142 698.92188 1138.6823 692.28125 1135.5312 C 680.71874 1129.6406 681.54624 1109.3066 694.10352 1105.0254 C 695.72136 1104.555 697.43662 1104.2772 699.15625 1104.2305 z "
       transform="scale(0.74999998)" />
    <path
       id="path1069"
       d="m 70.570312,828.48047 c 14.789063,-0.69922 29.628908,-0.1211 44.429688,-0.3086 57.55859,0.0273 115.12109,-0.0625 172.67187,0.0469 -0.0234,2.67969 -0.0234,5.38281 -0.0312,8.08203 -71.66015,0.0195 -143.3125,-0.0195 -214.972651,0.0195 -0.578125,-0.28125 -1.71875,-0.83203 -2.289063,-1.10156 -0.167968,-2.25781 -0.08984,-4.50781 0.191406,-6.73828"
       style="fill:#000000;fill-opacity:1;fill-rule:nonzero;stroke:none" />
    <path
       id="path1073"
       d="m 720.55859,828.26953 c 57.8125,-0.21875 115.6211,-0.0391 173.42969,-0.0977 15.8125,0.0781 31.62109,-0.17187 47.42188,0.13672 1.07812,2.63282 1.78906,6.0625 -0.78907,8.10157 -73.33984,-0.26172 -146.6914,0 -220.03125,-0.12891 -0.0117,-2.67969 -0.0117,-5.35156 -0.0312,-8.01172"
       style="fill:#000000;fill-opacity:1;fill-rule:nonzero;stroke:none" />
    <path
       id="path1075"
       d="m 559.58984,850.71094 c 3.35157,-2.48047 8.48828,0.25 8.76172,4.25781 0.61719,4.17969 -4.47265,7.76172 -8.17969,5.67187 -3.86328,-1.62109 -4.14062,-7.85156 -0.58203,-9.92968"
       style="fill:#000000;fill-opacity:1;fill-rule:nonzero;stroke:none" />
  </g>
</svg>
