<?xml version="1.0" encoding="utf-8"?>
<!-- Generator: Adobe Illustrator 16.0.0, SVG Export Plug-In . SVG Version: 6.00 Build 0)  -->
<!DOCTYPE svg PUBLIC "-//W3C//DTD SVG 1.1//EN" "http://www.w3.org/Graphics/SVG/1.1/DTD/svg11.dtd">
<svg
    xmlns:dc="http://purl.org/dc/elements/1.1/"
    xmlns:cc="http://creativecommons.org/ns#"
    xmlns:rdf="http://www.w3.org/1999/02/22-rdf-syntax-ns#"
    xmlns:svg="http://www.w3.org/2000/svg"
    xmlns:sodipodi="http://sodipodi.sourceforge.net/DTD/sodipodi-0.dtd"
    xmlns:inkscape="http://www.inkscape.org/namespaces/inkscape"
    xmlns="http://www.w3.org/2000/svg"
    xmlns:xlink="http://www.w3.org/1999/xlink"
    version="1.1"
    id="svg3336"
    sodipodi:docname="cs_imprint_red_960x150.svg"
    inkscape:version="0.91 r13725"
    x="0px"
    y="0px"
    width="447px"
    height="421.125px"
    viewBox="0 0 447 421.125"
    enable-background="new 0 0 447 421.125"
    xml:space="preserve"
  >
<sodipodi:namedview
      fit-margin-left="0"
      fit-margin-top="0"
      inkscape:cy="-48.437248"
      inkscape:cx="53.577519"
      inkscape:zoom="0.516"
      showgrid="false"
      guidetolerance="10"
      gridtolerance="10"
      objecttolerance="10"
      borderopacity="1"
      pagecolor="#b22d00"
      bordercolor="#666666"
      id="namedview3348"
      fit-margin-bottom="0"
      fit-margin-right="0"
      inkscape:current-layer="svg3336"
      inkscape:window-maximized="0"
      inkscape:window-y="42"
      inkscape:window-x="20"
      inkscape:window-height="719"
      inkscape:window-width="1279"
      inkscape:pageshadow="2"
      inkscape:pageopacity="1"
    >
	</sodipodi:namedview
  >
<polygon
      id="shield"
      fill="#b22d00"
      stroke="#b22d00"
      stroke-width="15"
      points="7.5,385.563 7.5,35.562 223.5,7.562   439.5,35.562 439.5,385.563 223.5,413.563 "
  />
	<path
        id="c"
        fill="#fff"
        d="M126.094,100.422v21.562c-10.521-8.801-21.406-13.203-32.656-13.203c-12.396,0-22.84,4.453-31.328,13.359   c-8.543,8.855-12.812,19.688-12.812,32.5c0,12.656,4.27,23.334,12.812,32.031c8.541,8.699,19.01,13.047,31.406,13.047   c6.406,0,11.848-1.041,16.328-3.125c2.5-1.041,5.09-2.447,7.773-4.219c2.682-1.77,5.508-3.906,8.477-6.406v21.953   c-10.418,5.887-21.355,8.829-32.812,8.829c-17.24,0-31.953-6.016-44.141-18.047c-12.136-12.135-18.203-26.77-18.203-43.906   c0-15.364,5.078-29.062,15.234-41.094c12.5-14.739,28.672-22.109,48.516-22.109C105.52,91.594,115.988,94.537,126.094,100.422z"
    />
	<path
        id="ampersand"
        fill="#fff"
        d="M247.996,201.789l54.297,65.625l1.758-1.953c5.859-6.379,11.393-12.629,16.602-18.75   c5.206-6.119,10.221-12.305,15.039-18.555l29.688,30.469c-3.646,5.209-8.432,11.264-14.355,18.164   c-5.927,6.902-12.988,14.844-21.191,23.828l55.859,68.945h-56.641l-30.078-36.914c-27.606,28.516-56.317,42.773-86.133,42.773   c-26.693,0-49.35-8.527-67.969-25.586c-18.231-17.188-27.344-38.41-27.344-63.672c0-30.078,14.453-55.078,43.359-75l19.727-13.477   c0.26-0.128,0.714-0.455,1.367-0.977c0.65-0.519,1.562-1.236,2.734-2.148c-19.922-21.222-29.883-42.12-29.883-62.695   c0-20.312,6.641-36.847,19.922-49.609c13.541-12.759,30.987-19.141,52.344-19.141c20.703,0,37.823,6.186,51.367,18.555   c13.541,12.372,20.312,27.997,20.312,46.875c0,13.022-3.711,24.805-11.133,35.352C280.351,174.445,267.137,187.077,247.996,201.789   z M211.863,227.375l-2.539,1.758c-18.622,12.891-31.317,23.242-38.086,31.055c-6.641,7.812-9.961,16.082-9.961,24.805   c0,12.5,5.011,23.959,15.039,34.375c10.416,10.027,21.875,15.039,34.375,15.039c17.578,0,37.823-11.523,60.742-34.57   L211.863,227.375z M221.629,169.758l3.711-2.734c6.378-4.815,11.651-9.015,15.82-12.598c4.166-3.58,7.159-6.607,8.984-9.082   c3.906-4.815,5.859-10.742,5.859-17.773c0-7.94-2.67-14.386-8.008-19.336c-5.341-4.947-12.5-7.422-21.484-7.422   c-8.203,0-15.106,2.539-20.703,7.617c-5.6,4.819-8.398,11.005-8.398,18.555c0,8.856,3.516,17.578,10.547,26.172l11.328,13.672   C219.676,167.481,220.457,168.458,221.629,169.758z"
    />
	<path
        id="s"
        fill="#fff"
        d="M412.875,111.906l-14.766,8.75c-2.762-4.791-5.391-7.916-7.891-9.375c-2.605-1.666-5.965-2.5-10.078-2.5   c-5.053,0-9.246,1.433-12.578,4.297c-3.334,2.812-5,6.355-5,10.625c0,5.886,4.375,10.625,13.125,14.219l12.031,4.922   c9.791,3.959,16.953,8.789,21.484,14.492S416,170.031,416,178.312c0,11.094-3.699,20.262-11.094,27.5   c-7.449,7.293-16.693,10.938-27.734,10.938c-10.469,0-19.115-3.098-25.938-9.297c-6.719-6.197-10.912-14.922-12.578-26.172   l18.438-4.062c0.832,7.084,2.291,11.98,4.375,14.688c3.75,5.209,9.219,7.812,16.406,7.812c5.676,0,10.391-1.9,14.141-5.703   c3.75-3.801,5.625-8.619,5.625-14.453c0-2.344-0.326-4.492-0.977-6.445c-0.652-1.953-1.668-3.75-3.047-5.391   c-1.381-1.641-3.164-3.176-5.352-4.609c-2.188-1.432-4.793-2.799-7.812-4.102l-11.641-4.844   c-16.512-6.979-24.766-17.188-24.766-30.625c0-9.062,3.463-16.641,10.391-22.734c6.926-6.145,15.547-9.219,25.859-9.219   C394.203,91.594,405.062,98.365,412.875,111.906z"
    />
</svg>
