<?xml version="1.0" encoding="utf-8"?>
<!-- Generator: Adobe Illustrator 16.0.0, SVG Export Plug-In . SVG Version: 6.00 Build 0)  -->
<!DOCTYPE svg PUBLIC "-//W3C//DTD SVG 1.1//EN" "http://www.w3.org/Graphics/SVG/1.1/DTD/svg11.dtd">
<svg version="1.1" id="Layer_1" xmlns="http://www.w3.org/2000/svg" xmlns:xlink="http://www.w3.org/1999/xlink" x="0px" y="0px"
	 width="568px" height="126px" viewBox="0 0 568 126" enable-background="new 0 0 568 126" xml:space="preserve">
<g id="ColorOutlines">
	<g id="CTIONScolor">
		<g id="S_1_">
			<path fill="#E98086" stroke="#020202" d="M554.63,59.8c-0.656-1.128-1.598-1.88-2.725-2.538c-1.504-0.658-2.914-0.94-4.324-0.752
				c-1.223,0.188-2.256,0.752-3.102,1.598c-0.846,0.846-1.316,1.88-1.41,3.102c-0.094,0.846,0,1.692,0.377,2.35
				c0.281,0.658,0.846,1.41,1.691,2.162c0.658,0.471,1.41,0.846,2.068,1.129c1.033,0.375,1.879,0.658,2.912,0.939
				c1.316,0.375,2.633,0.658,3.949,1.223c1.504,0.562,3.008,1.408,4.418,2.631c2.16,1.691,3.76,3.666,4.793,6.016
				c1.127,2.537,1.504,4.889,1.316,7.426c-0.377,3.666-1.787,6.861-4.324,9.588c-2.35,2.537-5.545,4.229-9.4,4.699
				c-3.383,0.471-7.049,0-10.338-1.598c-3.008-1.41-5.828-3.76-7.52-7.051c-0.564-1.033-0.846-1.785-1.223-2.818
				c-0.281-0.846-0.471-1.881-0.658-3.102l9.494-1.316c0.094,0.658,0.281,1.127,0.375,1.41c0.094,0.281,0.189,0.752,0.471,1.221
				c0.846,1.41,1.879,2.445,3.195,3.008c1.598,0.752,3.385,1.035,4.982,0.752c1.504-0.281,2.631-0.846,3.666-1.879
				c0.939-0.939,1.504-2.162,1.691-3.666c0-1.033-0.094-1.881-0.471-2.727c-0.375-0.846-0.939-1.785-2.066-2.443
				c-0.564-0.658-1.316-0.939-1.975-1.223c-1.033-0.375-1.881-0.656-2.914-0.939c-1.41-0.281-2.727-0.752-3.947-1.221
				c-1.598-0.564-3.008-1.504-4.512-2.633c-2.068-1.691-3.385-3.479-4.418-5.639c-1.033-2.352-1.504-4.701-1.316-7.051
				c0.283-3.29,1.787-6.485,4.137-9.023c2.256-2.256,5.17-3.948,8.834-4.418c3.291-0.47,6.674,0.094,9.682,1.504
				c2.914,1.41,5.264,3.572,7.051,6.674L554.63,59.8z M554.63,59.8l8.461-4.605L554.63,59.8z"/>
			<path fill="#E38E88" stroke="#020202" d="M554.63,52.8c-0.656-1.128-1.598-1.88-2.725-2.538c-1.504-0.658-2.914-0.94-4.324-0.752
				c-1.223,0.188-2.256,0.752-3.102,1.598c-0.846,0.846-1.316,1.88-1.41,3.102c-0.094,0.846,0,1.692,0.377,2.35
				c0.281,0.658,0.846,1.41,1.691,2.162c0.658,0.47,1.41,0.846,2.068,1.128c1.033,0.376,1.879,0.658,2.912,0.94
				c1.316,0.376,2.633,0.658,3.949,1.222c1.504,0.563,3.008,1.409,4.418,2.632c2.16,1.691,3.76,3.666,4.793,6.016
				c1.127,2.537,1.504,4.889,1.316,7.426c-0.377,3.666-1.787,6.861-4.324,9.588c-2.35,2.537-5.545,4.229-9.4,4.699
				c-3.383,0.471-7.049,0-10.338-1.598c-3.008-1.41-5.828-3.76-7.52-7.051c-0.564-1.033-0.846-1.785-1.223-2.818
				c-0.281-0.846-0.471-1.881-0.658-3.102l9.494-1.316c0.094,0.658,0.281,1.127,0.375,1.41c0.094,0.281,0.189,0.752,0.471,1.221
				c0.846,1.41,1.879,2.445,3.195,3.008c1.598,0.752,3.385,1.035,4.982,0.752c1.504-0.281,2.631-0.846,3.666-1.879
				c0.939-0.939,1.504-2.162,1.691-3.666c0-1.033-0.094-1.881-0.471-2.727c-0.375-0.846-0.939-1.785-2.066-2.443
				c-0.564-0.658-1.316-0.939-1.975-1.223c-1.033-0.375-1.881-0.656-2.914-0.939c-1.41-0.281-2.727-0.752-3.947-1.221
				c-1.598-0.564-3.008-1.504-4.512-2.633c-2.068-1.692-3.385-3.478-4.418-5.64c-1.033-2.35-1.504-4.7-1.316-7.05
				c0.283-3.29,1.787-6.485,4.137-9.023c2.256-2.256,5.17-3.948,8.834-4.418c3.291-0.47,6.674,0.094,9.682,1.504
				c2.914,1.41,5.264,3.572,7.051,6.674L554.63,52.8z M554.63,52.8l8.461-4.605L554.63,52.8z"/>
			<path fill="#E09454" stroke="#020202" d="M554.63,44.804c-0.656-1.128-1.598-1.88-2.725-2.538
				c-1.504-0.658-2.914-0.94-4.324-0.752c-1.223,0.188-2.256,0.752-3.102,1.598c-0.846,0.846-1.316,1.88-1.41,3.102
				c-0.094,0.846,0,1.692,0.377,2.35c0.281,0.658,0.846,1.41,1.691,2.162c0.658,0.47,1.41,0.846,2.068,1.128
				c1.033,0.376,1.879,0.658,2.912,0.94c1.316,0.376,2.633,0.658,3.949,1.222c1.504,0.563,3.008,1.41,4.418,2.632
				c2.16,1.691,3.76,3.666,4.793,6.016c1.127,2.537,1.504,4.889,1.316,7.426c-0.377,3.666-1.787,6.861-4.324,9.588
				c-2.35,2.537-5.545,4.229-9.4,4.699c-3.383,0.471-7.049,0-10.338-1.598c-3.008-1.41-5.828-3.76-7.52-7.051
				c-0.564-1.033-0.846-1.785-1.223-2.818c-0.281-0.846-0.471-1.881-0.658-3.102l9.494-1.316c0.094,0.658,0.281,1.127,0.375,1.41
				c0.094,0.281,0.189,0.752,0.471,1.221c0.846,1.41,1.879,2.445,3.195,3.008c1.598,0.752,3.385,1.035,4.982,0.752
				c1.504-0.281,2.631-0.846,3.666-1.879c0.939-0.939,1.504-2.162,1.691-3.666c0-1.033-0.094-1.881-0.471-2.727
				c-0.375-0.846-0.939-1.785-2.066-2.443c-0.564-0.658-1.316-0.94-1.975-1.222c-1.033-0.376-1.881-0.658-2.914-0.94
				c-1.41-0.282-2.727-0.752-3.947-1.222c-1.598-0.564-3.008-1.504-4.512-2.632c-2.068-1.692-3.385-3.478-4.418-5.64
				c-1.033-2.35-1.504-4.7-1.316-7.05c0.283-3.29,1.787-6.485,4.137-9.023c2.256-2.256,5.17-3.948,8.834-4.418
				c3.291-0.47,6.674,0.094,9.682,1.504c2.914,1.41,5.264,3.572,7.051,6.674L554.63,44.804z M554.63,44.804l8.461-4.605
				L554.63,44.804z"/>
			<path fill="#DFB369" stroke="#020202" d="M554.63,37.309c-0.656-1.128-1.598-1.88-2.725-2.538
				c-1.504-0.658-2.914-0.94-4.324-0.752c-1.223,0.188-2.256,0.752-3.102,1.598c-0.846,0.846-1.316,1.88-1.41,3.102
				c-0.094,0.846,0,1.692,0.377,2.35c0.281,0.658,0.846,1.41,1.691,2.162c0.658,0.47,1.41,0.846,2.068,1.128
				c1.033,0.376,1.879,0.658,2.912,0.94c1.316,0.376,2.633,0.658,3.949,1.222c1.504,0.564,3.008,1.41,4.418,2.632
				c2.16,1.692,3.76,3.666,4.793,6.016c1.127,2.538,1.504,4.888,1.316,7.426c-0.377,3.667-1.787,6.862-4.324,9.588
				c-2.35,2.537-5.545,4.229-9.4,4.699c-3.383,0.469-7.049,0-10.338-1.598c-3.008-1.41-5.828-3.76-7.52-7.051
				c-0.564-1.033-0.846-1.785-1.223-2.818c-0.281-0.848-0.471-1.881-0.658-3.103l9.494-1.315c0.094,0.658,0.281,1.128,0.375,1.41
				s0.189,0.752,0.471,1.222c0.846,1.41,1.879,2.443,3.195,3.008c1.598,0.752,3.385,1.035,4.982,0.752
				c1.504-0.281,2.631-0.846,3.666-1.879c0.939-0.941,1.504-2.162,1.691-3.667c0-1.034-0.094-1.88-0.471-2.726
				c-0.375-0.846-0.939-1.786-2.066-2.444c-0.564-0.658-1.316-0.939-1.975-1.222c-1.033-0.376-1.881-0.658-2.914-0.94
				c-1.41-0.282-2.727-0.752-3.947-1.222c-1.598-0.563-3.008-1.504-4.512-2.632c-2.068-1.691-3.385-3.478-4.418-5.64
				c-1.033-2.35-1.504-4.699-1.316-7.049c0.283-3.29,1.787-6.486,4.137-9.023c2.256-2.256,5.17-3.948,8.834-4.417
				c3.291-0.47,6.674,0.094,9.682,1.504c2.914,1.41,5.264,3.571,7.051,6.673L554.63,37.309z M554.63,37.309l8.461-4.606
				L554.63,37.309z"/>
			<path fill="#F3CD7A" stroke="#020202" d="M554.63,29.811c-0.656-1.128-1.598-1.88-2.725-2.538
				c-1.504-0.658-2.914-0.94-4.324-0.752c-1.223,0.188-2.256,0.752-3.102,1.598c-0.846,0.846-1.316,1.88-1.41,3.102
				c-0.094,0.846,0,1.692,0.377,2.35c0.281,0.658,0.846,1.41,1.691,2.162c0.658,0.47,1.41,0.846,2.068,1.128
				c1.033,0.376,1.879,0.658,2.912,0.94c1.316,0.376,2.633,0.658,3.949,1.222c1.504,0.563,3.008,1.41,4.418,2.632
				c2.16,1.691,3.76,3.666,4.793,6.016c1.127,2.538,1.504,4.888,1.316,7.425c-0.377,3.666-1.787,6.862-4.324,9.587
				c-2.35,2.539-5.545,4.23-9.4,4.699c-3.383,0.471-7.049,0-10.338-1.598c-3.008-1.41-5.828-3.76-7.52-7.049
				c-0.564-1.034-0.846-1.786-1.223-2.82c-0.281-0.846-0.471-1.88-0.658-3.102l9.494-1.316c0.094,0.658,0.281,1.128,0.375,1.41
				s0.189,0.752,0.471,1.222c0.846,1.41,1.879,2.444,3.195,3.008c1.598,0.752,3.385,1.034,4.982,0.752
				c1.504-0.282,2.631-0.846,3.666-1.88c0.939-0.939,1.504-2.162,1.691-3.666c0-1.034-0.094-1.88-0.471-2.726
				c-0.375-0.846-0.939-1.786-2.066-2.443c-0.564-0.658-1.316-0.94-1.975-1.222c-1.033-0.376-1.881-0.658-2.914-0.94
				c-1.41-0.282-2.727-0.752-3.947-1.222c-1.598-0.564-3.008-1.504-4.512-2.632c-2.068-1.692-3.385-3.478-4.418-5.64
				c-1.033-2.35-1.504-4.7-1.316-7.05c0.283-3.29,1.787-6.485,4.137-9.023c2.256-2.256,5.17-3.948,8.834-4.418
				c3.291-0.47,6.674,0.094,9.682,1.504c2.914,1.41,5.264,3.572,7.051,6.674L554.63,29.811z M554.63,29.811l8.461-4.605
				L554.63,29.811z"/>
			<path fill="#FFF557" stroke="#020202" d="M554.63,21.939c-0.656-1.128-1.598-1.88-2.725-2.538
				c-1.504-0.658-2.914-0.94-4.324-0.752c-1.223,0.188-2.256,0.752-3.102,1.598c-0.846,0.846-1.316,1.88-1.41,3.102
				c-0.094,0.846,0,1.692,0.377,2.35c0.281,0.658,0.846,1.41,1.691,2.162c0.658,0.47,1.41,0.846,2.068,1.128
				c1.033,0.376,1.879,0.658,2.912,0.94c1.316,0.376,2.633,0.658,3.949,1.222c1.504,0.563,3.008,1.41,4.418,2.632
				c2.16,1.691,3.76,3.666,4.793,6.016c1.127,2.538,1.504,4.888,1.316,7.425c-0.377,3.666-1.787,6.862-4.324,9.587
				c-2.35,2.538-5.545,4.229-9.4,4.7c-3.383,0.47-7.049,0-10.338-1.598c-3.008-1.41-5.828-3.76-7.52-7.049
				c-0.564-1.034-0.846-1.786-1.223-2.82c-0.281-0.846-0.471-1.88-0.658-3.102l9.494-1.316c0.094,0.658,0.281,1.128,0.375,1.41
				s0.189,0.752,0.471,1.222c0.846,1.41,1.879,2.444,3.195,3.008c1.598,0.752,3.385,1.034,4.982,0.752
				c1.504-0.282,2.631-0.846,3.666-1.88c0.939-0.939,1.504-2.162,1.691-3.666c0-1.034-0.094-1.88-0.471-2.726
				c-0.375-0.846-0.939-1.786-2.066-2.443c-0.564-0.658-1.316-0.94-1.975-1.222c-1.033-0.376-1.881-0.658-2.914-0.94
				c-1.41-0.282-2.727-0.752-3.947-1.222c-1.598-0.564-3.008-1.504-4.512-2.632c-2.068-1.692-3.385-3.478-4.418-5.64
				c-1.033-2.35-1.504-4.7-1.316-7.05c0.283-3.29,1.787-6.485,4.137-9.023c2.256-2.256,5.17-3.948,8.834-4.418
				c3.291-0.47,6.674,0.094,9.682,1.504c2.914,1.41,5.264,3.572,7.051,6.674L554.63,21.939z M554.63,21.939l8.461-4.605
				L554.63,21.939z"/>
		</g>
		<g id="N">
			<path fill="#E98086" stroke="#020202" d="M522.819,47.017v40.889v11.748l-8.365-8.74l-19.832-20.396V99.56h-9.588V58.767v-11.75
				l8.365,8.742l19.834,20.397V47.017H522.819z M513.233,47.017h9.586H513.233z"/>
			<path fill="#E38E88" stroke="#020202" d="M522.819,40.017v40.889v11.748l-8.365-8.74l-19.832-20.397V92.56h-9.588V51.767v-11.75
				l8.365,8.742l19.834,20.397V40.017H522.819z M513.233,40.017h9.586H513.233z"/>
			<path fill="#E09454" stroke="#020202" d="M522.819,32.021V72.91v11.748l-8.365-8.74L494.622,55.52v29.044h-9.588V43.771v-11.75
				l8.365,8.742l19.834,20.397V32.021H522.819z M513.233,32.021h9.586H513.233z"/>
			<path fill="#DFB369" stroke="#020202" d="M522.819,24.525v40.888v11.748l-8.365-8.74l-19.832-20.398v29.044h-9.588V36.274V24.525
				l8.365,8.741l19.834,20.396V24.525H522.819z M513.233,24.525h9.586H513.233z"/>
			<path fill="#F3CD7A" stroke="#020202" d="M522.819,17.028v40.888v11.75l-8.365-8.742l-19.832-20.396v29.045h-9.588V28.777v-11.75
				l8.365,8.742l19.834,20.397V17.028H522.819z M513.233,17.028h9.586H513.233z"/>
			<path fill="#FFF557" stroke="#020202" d="M522.819,9.156v40.888v11.749l-8.365-8.741l-19.832-20.396v29.044h-9.588V20.906V9.156
				l8.365,8.742l19.834,20.397V9.156H522.819z M513.233,9.156h9.586H513.233z"/>
		</g>
		<g id="O">
			<path fill="#E98086" stroke="#020202" d="M468.497,53.409c5.17,5.17,8.178,11.938,8.178,19.739s-3.008,14.568-8.178,19.738
				s-11.938,8.178-19.738,8.178c-7.803,0-14.57-3.008-19.738-8.178c-5.17-5.17-8.178-11.938-8.178-19.738s3.008-14.569,8.178-19.739
				c5.168-5.169,11.936-8.177,19.738-8.177C456.56,45.231,463.327,48.239,468.497,53.409z M448.759,54.819
				c-4.982,0-9.494,2.068-12.877,5.452c-3.385,3.383-5.453,7.895-5.453,12.877c0,5.17,2.068,9.588,5.453,12.971
				c3.289,3.291,7.895,5.357,12.877,5.357c5.17,0,9.588-1.973,12.971-5.357c3.385-3.383,5.357-7.801,5.357-12.971
				c0-4.982-2.068-9.588-5.357-12.877C458.347,56.887,453.929,54.819,448.759,54.819z"/>
			<path fill="#E38E88" stroke="#020202" d="M468.497,46.409c5.17,5.17,8.178,11.938,8.178,19.739
				c0,7.801-3.008,14.568-8.178,19.738s-11.938,8.178-19.738,8.178c-7.803,0-14.57-3.008-19.738-8.178
				c-5.17-5.17-8.178-11.938-8.178-19.738c0-7.802,3.008-14.569,8.178-19.739c5.168-5.169,11.936-8.177,19.738-8.177
				C456.56,38.231,463.327,41.239,468.497,46.409z M448.759,47.819c-4.982,0-9.494,2.068-12.877,5.452
				c-3.385,3.384-5.453,7.896-5.453,12.877c0,5.17,2.068,9.588,5.453,12.971c3.289,3.291,7.895,5.357,12.877,5.357
				c5.17,0,9.588-1.973,12.971-5.357c3.385-3.383,5.357-7.801,5.357-12.971c0-4.982-2.068-9.588-5.357-12.877
				C458.347,49.887,453.929,47.819,448.759,47.819z"/>
			<path fill="#E09454" stroke="#020202" d="M468.497,38.413c5.17,5.17,8.178,11.938,8.178,19.739
				c0,7.801-3.008,14.568-8.178,19.738s-11.938,8.178-19.738,8.178c-7.803,0-14.57-3.008-19.738-8.178
				c-5.17-5.17-8.178-11.938-8.178-19.738c0-7.802,3.008-14.569,8.178-19.739c5.168-5.169,11.936-8.177,19.738-8.177
				C456.56,30.235,463.327,33.243,468.497,38.413z M448.759,39.823c-4.982,0-9.494,2.068-12.877,5.452
				c-3.385,3.384-5.453,7.896-5.453,12.877c0,5.17,2.068,9.588,5.453,12.971c3.289,3.291,7.895,5.357,12.877,5.357
				c5.17,0,9.588-1.973,12.971-5.357c3.385-3.383,5.357-7.801,5.357-12.971c0-4.982-2.068-9.588-5.357-12.877
				C458.347,41.891,453.929,39.823,448.759,39.823z"/>
			<path fill="#DFB369" stroke="#020202" d="M468.497,30.917c5.17,5.169,8.178,11.937,8.178,19.738
				c0,7.802-3.008,14.569-8.178,19.739s-11.938,8.178-19.738,8.178c-7.803,0-14.57-3.008-19.738-8.178
				c-5.17-5.17-8.178-11.937-8.178-19.739c0-7.801,3.008-14.569,8.178-19.738c5.168-5.17,11.936-8.178,19.738-8.178
				C456.56,22.739,463.327,25.747,468.497,30.917z M448.759,32.327c-4.982,0-9.494,2.068-12.877,5.452
				c-3.385,3.384-5.453,7.896-5.453,12.877c0,5.17,2.068,9.588,5.453,12.971c3.289,3.291,7.895,5.357,12.877,5.357
				c5.17,0,9.588-1.973,12.971-5.357c3.385-3.383,5.357-7.801,5.357-12.971c0-4.981-2.068-9.587-5.357-12.877
				C458.347,34.395,453.929,32.327,448.759,32.327z"/>
			<path fill="#F3CD7A" stroke="#020202" d="M468.497,23.419c5.17,5.17,8.178,11.938,8.178,19.739
				c0,7.801-3.008,14.569-8.178,19.738c-5.17,5.171-11.938,8.179-19.738,8.179c-7.803,0-14.57-3.008-19.738-8.179
				c-5.17-5.169-8.178-11.937-8.178-19.738c0-7.802,3.008-14.569,8.178-19.739c5.168-5.169,11.936-8.177,19.738-8.177
				C456.56,15.242,463.327,18.25,468.497,23.419z M448.759,24.83c-4.982,0-9.494,2.068-12.877,5.452
				c-3.385,3.384-5.453,7.896-5.453,12.877c0,5.169,2.068,9.587,5.453,12.971c3.289,3.29,7.895,5.358,12.877,5.358
				c5.17,0,9.588-1.974,12.971-5.358c3.385-3.384,5.357-7.801,5.357-12.971c0-4.982-2.068-9.588-5.357-12.877
				C458.347,26.897,453.929,24.83,448.759,24.83z"/>
			<path fill="#FFF557" stroke="#020202" d="M468.497,15.548c5.17,5.17,8.178,11.938,8.178,19.739
				c0,7.801-3.008,14.569-8.178,19.738c-5.17,5.17-11.938,8.177-19.738,8.177c-7.803,0-14.57-3.007-19.738-8.177
				c-5.17-5.169-8.178-11.937-8.178-19.738c0-7.802,3.008-14.569,8.178-19.739c5.168-5.169,11.936-8.177,19.738-8.177
				C456.56,7.371,463.327,10.378,468.497,15.548z M448.759,16.958c-4.982,0-9.494,2.068-12.877,5.452
				c-3.385,3.384-5.453,7.896-5.453,12.877c0,5.169,2.068,9.587,5.453,12.971c3.289,3.29,7.895,5.358,12.877,5.358
				c5.17,0,9.588-1.974,12.971-5.358c3.385-3.384,5.357-7.801,5.357-12.971c0-4.982-2.068-9.588-5.357-12.877
				C458.347,19.026,453.929,16.958,448.759,16.958z"/>
		</g>
		<g id="I">
			<path fill="#E98086" stroke="#020202" d="M412.392,46.923v52.92h-9.588v-52.92H412.392z M402.804,46.923h9.588H402.804z"/>
			<path fill="#E38E88" stroke="#020202" d="M412.392,39.923v52.92h-9.588v-52.92H412.392z M402.804,39.923h9.588H402.804z"/>
			<path fill="#E09454" stroke="#020202" d="M412.392,31.927v52.92h-9.588v-52.92H412.392z M402.804,31.927h9.588H402.804z"/>
			<path fill="#DFB369" stroke="#020202" d="M412.392,24.431v52.918h-9.588V24.431H412.392z M402.804,24.431h9.588H402.804z"/>
			<path fill="#F3CD7A" stroke="#020202" d="M412.392,16.934v52.919h-9.588V16.934H412.392z M402.804,16.934h9.588H402.804z"/>
			<path fill="#FFF557" stroke="#020202" d="M412.392,9.062v52.919h-9.588V9.062H412.392z M402.804,9.062h9.588H402.804z"/>
		</g>
		<g id="T_1_">
			<path fill="#E98086" stroke="#020202" d="M366.483,46.923h29.889v9.587h-10.338v43.333h-9.588V56.511h-9.963V46.923z
				 M366.483,46.923v9.587V46.923z"/>
			<path fill="#E38E88" stroke="#020202" d="M366.483,39.923h29.889v9.587h-10.338v43.333h-9.588V49.511h-9.963V39.923z
				 M366.483,39.923v9.587V39.923z"/>
			<path fill="#E09454" stroke="#020202" d="M366.483,31.927h29.889v9.587h-10.338v43.333h-9.588V41.515h-9.963V31.927z
				 M366.483,31.927v9.587V31.927z"/>
			<path fill="#DFB369" stroke="#020202" d="M366.483,24.431h29.889v9.587h-10.338v43.331h-9.588V34.019h-9.963V24.431z
				 M366.483,24.431v9.587V24.431z"/>
			<path fill="#F3CD7A" stroke="#020202" d="M366.483,16.934h29.889v9.587h-10.338v43.332h-9.588V26.521h-9.963V16.934z
				 M366.483,16.934v9.587V16.934z"/>
			<path fill="#FFF557" stroke="#020202" d="M366.483,9.062h29.889v9.587h-10.338v43.332h-9.588V18.65h-9.963V9.062z M366.483,9.062
				v9.587V9.062z"/>
		</g>
		<g id="C">
			<path fill="#E98086" stroke="#020202" d="M360.417,88.751c-2.631,3.854-6.016,6.955-10.246,9.117
				c-4.041,2.162-8.459,3.195-13.252,3.195c-7.803,0-14.57-3.008-19.738-8.178c-5.17-5.17-8.178-11.938-8.178-19.738
				s3.008-14.569,8.178-19.739c5.168-5.169,11.936-8.177,19.738-8.177c4.605,0,8.93,1.128,12.689,3.008
				c3.947,2.068,7.236,4.888,9.963,8.553l-7.801,5.64c-1.693-2.35-3.855-4.136-6.486-5.545c-2.633-1.41-5.451-2.068-8.365-2.068
				c-4.982,0-9.494,2.068-12.877,5.452c-3.385,3.383-5.453,7.895-5.453,12.877c0,5.17,2.068,9.588,5.453,12.971
				c3.289,3.291,7.707,5.357,12.877,5.357c3.289,0,6.203-0.752,8.836-2.16c2.725-1.41,4.98-3.385,6.768-5.922L360.417,88.751z
				 M352.522,83.394l7.895,5.357L352.522,83.394z"/>
			<path fill="#E38E88" stroke="#020202" d="M360.417,81.751c-2.631,3.854-6.016,6.955-10.246,9.117
				c-4.041,2.162-8.459,3.195-13.252,3.195c-7.803,0-14.57-3.008-19.738-8.178c-5.17-5.17-8.178-11.938-8.178-19.738
				c0-7.802,3.008-14.569,8.178-19.739c5.168-5.169,11.936-8.177,19.738-8.177c4.605,0,8.93,1.128,12.689,3.008
				c3.947,2.068,7.236,4.888,9.963,8.553l-7.801,5.64c-1.693-2.35-3.855-4.136-6.486-5.545c-2.633-1.41-5.451-2.068-8.365-2.068
				c-4.982,0-9.494,2.068-12.877,5.452c-3.385,3.384-5.453,7.896-5.453,12.877c0,5.17,2.068,9.588,5.453,12.971
				c3.289,3.291,7.707,5.357,12.877,5.357c3.289,0,6.203-0.752,8.836-2.16c2.725-1.41,4.98-3.385,6.768-5.922L360.417,81.751z
				 M352.522,76.394l7.895,5.357L352.522,76.394z"/>
			<path fill="#E09454" stroke="#020202" d="M360.417,73.755c-2.631,3.854-6.016,6.955-10.246,9.117
				c-4.041,2.162-8.459,3.195-13.252,3.195c-7.803,0-14.57-3.008-19.738-8.178c-5.17-5.17-8.178-11.938-8.178-19.738
				c0-7.802,3.008-14.569,8.178-19.739c5.168-5.169,11.936-8.177,19.738-8.177c4.605,0,8.93,1.128,12.689,3.008
				c3.947,2.068,7.236,4.888,9.963,8.553l-7.801,5.64c-1.693-2.35-3.855-4.136-6.486-5.545c-2.633-1.41-5.451-2.068-8.365-2.068
				c-4.982,0-9.494,2.068-12.877,5.452c-3.385,3.384-5.453,7.896-5.453,12.877c0,5.17,2.068,9.588,5.453,12.971
				c3.289,3.291,7.707,5.357,12.877,5.357c3.289,0,6.203-0.752,8.836-2.16c2.725-1.41,4.98-3.385,6.768-5.922L360.417,73.755z
				 M352.522,68.398l7.895,5.357L352.522,68.398z"/>
			<path fill="#DFB369" stroke="#020202" d="M360.417,66.259c-2.631,3.854-6.016,6.955-10.246,9.117
				c-4.041,2.162-8.459,3.195-13.252,3.195c-7.803,0-14.57-3.008-19.738-8.178c-5.17-5.17-8.178-11.937-8.178-19.739
				c0-7.801,3.008-14.569,8.178-19.738c5.168-5.17,11.936-8.178,19.738-8.178c4.605,0,8.93,1.128,12.689,3.008
				c3.947,2.068,7.236,4.888,9.963,8.554l-7.801,5.64c-1.693-2.35-3.855-4.136-6.486-5.546c-2.633-1.41-5.451-2.068-8.365-2.068
				c-4.982,0-9.494,2.068-12.877,5.452c-3.385,3.384-5.453,7.896-5.453,12.877c0,5.17,2.068,9.588,5.453,12.971
				c3.289,3.291,7.707,5.357,12.877,5.357c3.289,0,6.203-0.752,8.836-2.162c2.725-1.408,4.98-3.383,6.768-5.921L360.417,66.259z
				 M352.522,60.901l7.895,5.358L352.522,60.901z"/>
			<path fill="#F3CD7A" stroke="#020202" d="M360.417,58.761c-2.631,3.854-6.016,6.957-10.246,9.117
				c-4.041,2.162-8.459,3.197-13.252,3.197c-7.803,0-14.57-3.008-19.738-8.179c-5.17-5.169-8.178-11.937-8.178-19.738
				c0-7.802,3.008-14.569,8.178-19.739c5.168-5.169,11.936-8.177,19.738-8.177c4.605,0,8.93,1.128,12.689,3.008
				c3.947,2.068,7.236,4.888,9.963,8.553l-7.801,5.64c-1.693-2.35-3.855-4.136-6.486-5.545c-2.633-1.41-5.451-2.068-8.365-2.068
				c-4.982,0-9.494,2.068-12.877,5.452c-3.385,3.384-5.453,7.896-5.453,12.877c0,5.169,2.068,9.587,5.453,12.971
				c3.289,3.29,7.707,5.358,12.877,5.358c3.289,0,6.203-0.752,8.836-2.162c2.725-1.41,4.98-3.384,6.768-5.922L360.417,58.761z
				 M352.522,53.404l7.895,5.357L352.522,53.404z"/>
			<path fill="#FFF557" stroke="#020202" d="M360.417,50.89c-2.631,3.854-6.016,6.956-10.246,9.118
				c-4.041,2.162-8.459,3.195-13.252,3.195c-7.803,0-14.57-3.007-19.738-8.177c-5.17-5.169-8.178-11.937-8.178-19.738
				c0-7.802,3.008-14.569,8.178-19.739c5.168-5.169,11.936-8.177,19.738-8.177c4.605,0,8.93,1.128,12.689,3.008
				c3.947,2.068,7.236,4.888,9.963,8.553l-7.801,5.64c-1.693-2.35-3.855-4.136-6.486-5.545c-2.633-1.41-5.451-2.068-8.365-2.068
				c-4.982,0-9.494,2.068-12.877,5.452c-3.385,3.384-5.453,7.896-5.453,12.877c0,5.169,2.068,9.587,5.453,12.971
				c3.289,3.29,7.707,5.358,12.877,5.358c3.289,0,6.203-0.752,8.836-2.162c2.725-1.41,4.98-3.384,6.768-5.922L360.417,50.89z
				 M352.522,45.532l7.895,5.357L352.522,45.532z"/>
		</g>
	</g>
	<path opacity="0.7" fill="#FFFFFF" d="M318.176,105.677c-1.604,0-3.008,0.799-3.908,2.096H294.52v-8.475h16.438L262.245,2.297
		l-48.812,97.001h19.042v8.574h-22.451c-0.901-1.297-2.305-2.096-3.908-2.096c-2.605,0-4.61,2.096-4.61,4.586
		c0,2.492,2.104,4.588,4.61,4.588c1.604,0,3.007-0.799,3.908-2.096h27.565V99.298h7.417v16.848h-26.963
		c-0.901-1.297-2.305-2.094-3.909-2.094c-2.605,0-4.609,2.094-4.609,4.586c0,2.592,2.104,4.586,4.609,4.586
		c1.604,0,3.008-0.799,3.909-2.094h32.074V99.197h28.265v21.934h30.171c0.902,1.295,2.305,2.094,3.908,2.094
		c2.605,0,4.611-2.094,4.611-4.586c0-2.592-2.106-4.586-4.611-4.586c-1.604,0-3.006,0.797-3.908,2.094h-25.06V99.298h5.915v13.557
		h24.859c0.9,1.297,2.304,2.096,3.908,2.096c2.605,0,4.61-2.096,4.61-4.588C322.786,107.873,320.68,105.677,318.176,105.677"/>
	<g id="ABSTRcolor">
		<g id="R">
			<path fill="#E98086" stroke="#020202" d="M208.254,99.843h-11.186L186.354,81.89h-1.41v17.953h-9.588v-52.92h9.588v0.094h4.512
				c4.793,0,9.117,1.786,12.312,5.076c3.197,3.384,5.17,7.52,5.17,12.312c0,4.795-1.879,9.213-5.17,12.314
				c-1.598,1.598-3.289,2.725-5.169,3.572L208.254,99.843z M184.943,72.208h4.512c2.162,0,4.041-0.752,5.545-2.256
				s2.256-3.385,2.256-5.547c0-2.067-0.752-3.947-2.256-5.545c-1.504-1.504-3.383-2.256-5.545-2.256h-4.512V72.208z"/>
			<path fill="#E38E88" stroke="#020202" d="M208.254,92.843h-11.186L186.354,74.89h-1.41v17.953h-9.588v-52.92h9.588v0.094h4.512
				c4.793,0,9.117,1.786,12.312,5.076c3.197,3.384,5.17,7.52,5.17,12.313s-1.879,9.212-5.17,12.314
				c-1.598,1.598-3.289,2.725-5.169,3.572L208.254,92.843z M184.943,65.208h4.512c2.162,0,4.041-0.752,5.545-2.256
				s2.256-3.384,2.256-5.545c0-2.068-0.752-3.948-2.256-5.545c-1.504-1.504-3.383-2.256-5.545-2.256h-4.512V65.208z"/>
			<path fill="#E09454" stroke="#020202" d="M208.254,84.847h-11.186l-10.715-17.953h-1.41v17.953h-9.588v-52.92h9.588v0.094h4.512
				c4.793,0,9.117,1.786,12.312,5.076c3.197,3.384,5.17,7.52,5.17,12.313s-1.879,9.211-5.17,12.313
				c-1.598,1.599-3.289,2.726-5.169,3.573L208.254,84.847z M184.943,57.211h4.512c2.162,0,4.041-0.752,5.545-2.256
				s2.256-3.384,2.256-5.545c0-2.068-0.752-3.948-2.256-5.545c-1.504-1.504-3.383-2.256-5.545-2.256h-4.512V57.211z"/>
			<path fill="#DFB369" stroke="#020202" d="M208.254,77.349h-11.186l-10.715-17.952h-1.41v17.952h-9.588V24.431h9.588v0.094h4.512
				c4.793,0,9.117,1.786,12.312,5.075c3.197,3.384,5.17,7.52,5.17,12.313s-1.879,9.211-5.17,12.313
				c-1.598,1.598-3.289,2.726-5.169,3.571L208.254,77.349z M184.943,49.716h4.512c2.162,0,4.041-0.752,5.545-2.256
				s2.256-3.384,2.256-5.546c0-2.068-0.752-3.948-2.256-5.546c-1.504-1.504-3.383-2.256-5.545-2.256h-4.512V49.716z"/>
			<path fill="#F3CD7A" stroke="#020202" d="M208.254,69.853h-11.186L186.354,51.9h-1.41v17.953h-9.588V16.934h9.588v0.094h4.512
				c4.793,0,9.117,1.786,12.312,5.076c3.197,3.384,5.17,7.52,5.17,12.313s-1.879,9.211-5.17,12.313
				c-1.598,1.598-3.289,2.726-5.169,3.572L208.254,69.853z M184.943,42.218h4.512c2.162,0,4.041-0.752,5.545-2.256
				s2.256-3.384,2.256-5.545c0-2.068-0.752-3.948-2.256-5.545c-1.504-1.504-3.383-2.256-5.545-2.256h-4.512V42.218z"/>
			<path fill="#FFF557" stroke="#020202" d="M208.254,61.981h-11.186l-10.715-17.953h-1.41v17.953h-9.588V9.062h9.588v0.094h4.512
				c4.793,0,9.117,1.786,12.312,5.076c3.197,3.384,5.17,7.52,5.17,12.313s-1.879,9.211-5.17,12.313
				c-1.598,1.598-3.289,2.726-5.169,3.572L208.254,61.981z M184.943,34.347h4.512c2.162,0,4.041-0.752,5.545-2.256
				s2.256-3.384,2.256-5.545c0-2.068-0.752-3.948-2.256-5.545c-1.504-1.504-3.383-2.256-5.545-2.256h-4.512V34.347z"/>
		</g>
		<g id="T">
			<path fill="#E98086" stroke="#020202" d="M139.034,46.923h29.89v9.587h-10.339v43.333h-9.587V56.511h-9.964V46.923z
				 M139.034,46.923v9.587V46.923z"/>
			<path fill="#E38E88" stroke="#020202" d="M139.034,39.923h29.89v9.587h-10.339v43.333h-9.587V49.511h-9.964V39.923z
				 M139.034,39.923v9.587V39.923z"/>
			<path fill="#E09454" stroke="#020202" d="M139.034,31.927h29.89v9.587h-10.339v43.333h-9.587V41.515h-9.964V31.927z
				 M139.034,31.927v9.587V31.927z"/>
			<path fill="#DFB369" stroke="#020202" d="M139.034,24.431h29.89v9.587h-10.339v43.331h-9.587V34.019h-9.964V24.431z
				 M139.034,24.431v9.587V24.431z"/>
			<path fill="#F3CD7A" stroke="#020202" d="M139.034,16.934h29.89v9.587h-10.339v43.332h-9.587V26.521h-9.964V16.934z
				 M139.034,16.934v9.587V16.934z"/>
			<path fill="#FFF557" stroke="#020202" d="M139.034,9.062h29.89v9.587h-10.339v43.332h-9.587V18.65h-9.964V9.062z M139.034,9.062
				v9.587V9.062z"/>
		</g>
		<g id="S">
			<path fill="#E98086" stroke="#020202" d="M123.505,59.8c-0.657-1.128-1.599-1.88-2.726-2.538
				c-1.504-0.658-2.914-0.94-4.324-0.752c-1.222,0.188-2.256,0.752-3.102,1.598c-0.846,0.846-1.316,1.88-1.41,3.102
				c-0.094,0.846,0,1.692,0.377,2.35c0.281,0.658,0.846,1.41,1.691,2.162c0.658,0.471,1.41,0.846,2.068,1.129
				c1.033,0.375,1.879,0.658,2.913,0.939c1.315,0.375,2.632,0.658,3.948,1.223c1.504,0.562,3.008,1.408,4.418,2.631
				c2.161,1.691,3.76,3.666,4.793,6.016c1.128,2.537,1.504,4.889,1.316,7.426c-0.377,3.666-1.787,6.861-4.324,9.588
				c-2.35,2.537-5.545,4.229-9.399,4.699c-3.384,0.471-7.05,0-10.339-1.598c-3.008-1.41-5.828-3.76-7.52-7.051
				c-0.564-1.033-0.846-1.785-1.223-2.818c-0.281-0.846-0.47-1.881-0.658-3.102l9.494-1.316c0.094,0.658,0.281,1.127,0.375,1.41
				c0.095,0.281,0.189,0.752,0.471,1.221c0.846,1.41,1.88,2.445,3.195,3.008c1.598,0.752,3.385,1.035,4.982,0.752
				c1.504-0.281,2.631-0.846,3.666-1.879c0.939-0.939,1.504-2.162,1.691-3.666c0-1.033-0.094-1.881-0.471-2.727
				c-0.375-0.846-0.939-1.785-2.066-2.443c-0.564-0.658-1.316-0.939-1.975-1.223c-1.033-0.375-1.88-0.656-2.914-0.939
				c-1.41-0.281-2.726-0.752-3.947-1.221c-1.598-0.564-3.008-1.504-4.512-2.633c-2.068-1.691-3.385-3.479-4.418-5.639
				c-1.033-2.352-1.504-4.701-1.316-7.051c0.283-3.29,1.787-6.485,4.137-9.023c2.256-2.256,5.17-3.948,8.835-4.418
				c3.29-0.47,6.673,0.094,9.681,1.504c2.914,1.41,5.264,3.572,7.051,6.674L123.505,59.8z M123.505,59.8l8.46-4.605L123.505,59.8z"
				/>
			<path fill="#E38E88" stroke="#020202" d="M123.505,52.8c-0.657-1.128-1.599-1.88-2.726-2.538
				c-1.504-0.658-2.914-0.94-4.324-0.752c-1.222,0.188-2.256,0.752-3.102,1.598c-0.846,0.846-1.316,1.88-1.41,3.102
				c-0.094,0.846,0,1.692,0.377,2.35c0.281,0.658,0.846,1.41,1.691,2.162c0.658,0.47,1.41,0.846,2.068,1.128
				c1.033,0.376,1.879,0.658,2.913,0.94c1.315,0.376,2.632,0.658,3.948,1.222c1.504,0.563,3.008,1.409,4.418,2.632
				c2.161,1.691,3.76,3.666,4.793,6.016c1.128,2.537,1.504,4.889,1.316,7.426c-0.377,3.666-1.787,6.861-4.324,9.588
				c-2.35,2.537-5.545,4.229-9.399,4.699c-3.384,0.471-7.05,0-10.339-1.598c-3.008-1.41-5.828-3.76-7.52-7.051
				c-0.564-1.033-0.846-1.785-1.223-2.818c-0.281-0.846-0.47-1.881-0.658-3.102l9.494-1.316c0.094,0.658,0.281,1.127,0.375,1.41
				c0.095,0.281,0.189,0.752,0.471,1.221c0.846,1.41,1.88,2.445,3.195,3.008c1.598,0.752,3.385,1.035,4.982,0.752
				c1.504-0.281,2.631-0.846,3.666-1.879c0.939-0.939,1.504-2.162,1.691-3.666c0-1.033-0.094-1.881-0.471-2.727
				c-0.375-0.846-0.939-1.785-2.066-2.443c-0.564-0.658-1.316-0.939-1.975-1.223c-1.033-0.375-1.88-0.656-2.914-0.939
				c-1.41-0.281-2.726-0.752-3.947-1.221c-1.598-0.564-3.008-1.504-4.512-2.633c-2.068-1.692-3.385-3.478-4.418-5.64
				c-1.033-2.35-1.504-4.7-1.316-7.05c0.283-3.29,1.787-6.485,4.137-9.023c2.256-2.256,5.17-3.948,8.835-4.418
				c3.29-0.47,6.673,0.094,9.681,1.504c2.914,1.41,5.264,3.572,7.051,6.674L123.505,52.8z M123.505,52.8l8.46-4.605L123.505,52.8z"
				/>
			<path fill="#E09454" stroke="#020202" d="M123.505,44.804c-0.657-1.128-1.599-1.88-2.726-2.538
				c-1.504-0.658-2.914-0.94-4.324-0.752c-1.222,0.188-2.256,0.752-3.102,1.598c-0.846,0.846-1.316,1.88-1.41,3.102
				c-0.094,0.846,0,1.692,0.377,2.35c0.281,0.658,0.846,1.41,1.691,2.162c0.658,0.47,1.41,0.846,2.068,1.128
				c1.033,0.376,1.879,0.658,2.913,0.94c1.315,0.376,2.632,0.658,3.948,1.222c1.504,0.563,3.008,1.41,4.418,2.632
				c2.161,1.691,3.76,3.666,4.793,6.016c1.128,2.537,1.504,4.889,1.316,7.426c-0.377,3.666-1.787,6.861-4.324,9.588
				c-2.35,2.537-5.545,4.229-9.399,4.699c-3.384,0.471-7.05,0-10.339-1.598c-3.008-1.41-5.828-3.76-7.52-7.051
				c-0.564-1.033-0.846-1.785-1.223-2.818c-0.281-0.846-0.47-1.881-0.658-3.102l9.494-1.316c0.094,0.658,0.281,1.127,0.375,1.41
				c0.095,0.281,0.189,0.752,0.471,1.221c0.846,1.41,1.88,2.445,3.195,3.008c1.598,0.752,3.385,1.035,4.982,0.752
				c1.504-0.281,2.631-0.846,3.666-1.879c0.939-0.939,1.504-2.162,1.691-3.666c0-1.033-0.094-1.881-0.471-2.727
				c-0.375-0.846-0.939-1.785-2.066-2.443c-0.564-0.658-1.316-0.94-1.975-1.222c-1.033-0.376-1.88-0.658-2.914-0.94
				c-1.41-0.282-2.726-0.752-3.947-1.222c-1.598-0.564-3.008-1.504-4.512-2.632c-2.068-1.692-3.385-3.478-4.418-5.64
				c-1.033-2.35-1.504-4.7-1.316-7.05c0.283-3.29,1.787-6.485,4.137-9.023c2.256-2.256,5.17-3.948,8.835-4.418
				c3.29-0.47,6.673,0.094,9.681,1.504c2.914,1.41,5.264,3.572,7.051,6.674L123.505,44.804z M123.505,44.804l8.46-4.605
				L123.505,44.804z"/>
			<path fill="#DFB369" stroke="#020202" d="M123.505,37.309c-0.657-1.128-1.599-1.88-2.726-2.538
				c-1.504-0.658-2.914-0.94-4.324-0.752c-1.222,0.188-2.256,0.752-3.102,1.598c-0.846,0.846-1.316,1.88-1.41,3.102
				c-0.094,0.846,0,1.692,0.377,2.35c0.281,0.658,0.846,1.41,1.691,2.162c0.658,0.47,1.41,0.846,2.068,1.128
				c1.033,0.376,1.879,0.658,2.913,0.94c1.315,0.376,2.632,0.658,3.948,1.222c1.504,0.564,3.008,1.41,4.418,2.632
				c2.161,1.692,3.76,3.666,4.793,6.016c1.128,2.538,1.504,4.888,1.316,7.426c-0.377,3.667-1.787,6.862-4.324,9.588
				c-2.35,2.537-5.545,4.229-9.399,4.699c-3.384,0.469-7.05,0-10.339-1.598c-3.008-1.41-5.828-3.76-7.52-7.051
				c-0.564-1.033-0.846-1.785-1.223-2.818c-0.281-0.848-0.47-1.881-0.658-3.103l9.494-1.315c0.094,0.658,0.281,1.128,0.375,1.41
				c0.095,0.282,0.189,0.752,0.471,1.222c0.846,1.41,1.88,2.443,3.195,3.008c1.598,0.752,3.385,1.035,4.982,0.752
				c1.504-0.281,2.631-0.846,3.666-1.879c0.939-0.941,1.504-2.162,1.691-3.667c0-1.034-0.094-1.88-0.471-2.726
				c-0.375-0.846-0.939-1.786-2.066-2.444c-0.564-0.658-1.316-0.939-1.975-1.222c-1.033-0.376-1.88-0.658-2.914-0.94
				c-1.41-0.282-2.726-0.752-3.947-1.222c-1.598-0.563-3.008-1.504-4.512-2.632c-2.068-1.691-3.385-3.478-4.418-5.64
				c-1.033-2.35-1.504-4.699-1.316-7.049c0.283-3.29,1.787-6.486,4.137-9.023c2.256-2.256,5.17-3.948,8.835-4.417
				c3.29-0.47,6.673,0.094,9.681,1.504c2.914,1.41,5.264,3.571,7.051,6.673L123.505,37.309z M123.505,37.309l8.46-4.606
				L123.505,37.309z"/>
			<path fill="#F3CD7A" stroke="#020202" d="M123.505,29.811c-0.657-1.128-1.599-1.88-2.726-2.538
				c-1.504-0.658-2.914-0.94-4.324-0.752c-1.222,0.188-2.256,0.752-3.102,1.598c-0.846,0.846-1.316,1.88-1.41,3.102
				c-0.094,0.846,0,1.692,0.377,2.35c0.281,0.658,0.846,1.41,1.691,2.162c0.658,0.47,1.41,0.846,2.068,1.128
				c1.033,0.376,1.879,0.658,2.913,0.94c1.315,0.376,2.632,0.658,3.948,1.222c1.504,0.563,3.008,1.41,4.418,2.632
				c2.161,1.691,3.76,3.666,4.793,6.016c1.128,2.538,1.504,4.888,1.316,7.425c-0.377,3.666-1.787,6.862-4.324,9.587
				c-2.35,2.539-5.545,4.23-9.399,4.699c-3.384,0.471-7.05,0-10.339-1.598c-3.008-1.41-5.828-3.76-7.52-7.049
				c-0.564-1.034-0.846-1.786-1.223-2.82c-0.281-0.846-0.47-1.88-0.658-3.102l9.494-1.316c0.094,0.658,0.281,1.128,0.375,1.41
				c0.095,0.282,0.189,0.752,0.471,1.222c0.846,1.41,1.88,2.444,3.195,3.008c1.598,0.752,3.385,1.034,4.982,0.752
				c1.504-0.282,2.631-0.846,3.666-1.88c0.939-0.939,1.504-2.162,1.691-3.666c0-1.034-0.094-1.88-0.471-2.726
				c-0.375-0.846-0.939-1.786-2.066-2.443c-0.564-0.658-1.316-0.94-1.975-1.222c-1.033-0.376-1.88-0.658-2.914-0.94
				c-1.41-0.282-2.726-0.752-3.947-1.222c-1.598-0.564-3.008-1.504-4.512-2.632c-2.068-1.692-3.385-3.478-4.418-5.64
				c-1.033-2.35-1.504-4.7-1.316-7.05c0.283-3.29,1.787-6.485,4.137-9.023c2.256-2.256,5.17-3.948,8.835-4.418
				c3.29-0.47,6.673,0.094,9.681,1.504c2.914,1.41,5.264,3.572,7.051,6.674L123.505,29.811z M123.505,29.811l8.46-4.605
				L123.505,29.811z"/>
			<path fill="#FFF557" stroke="#020202" d="M123.505,21.939c-0.657-1.128-1.599-1.88-2.726-2.538
				c-1.504-0.658-2.914-0.94-4.324-0.752c-1.222,0.188-2.256,0.752-3.102,1.598c-0.846,0.846-1.316,1.88-1.41,3.102
				c-0.094,0.846,0,1.692,0.377,2.35c0.281,0.658,0.846,1.41,1.691,2.162c0.658,0.47,1.41,0.846,2.068,1.128
				c1.033,0.376,1.879,0.658,2.913,0.94c1.315,0.376,2.632,0.658,3.948,1.222c1.504,0.563,3.008,1.41,4.418,2.632
				c2.161,1.691,3.76,3.666,4.793,6.016c1.128,2.538,1.504,4.888,1.316,7.425c-0.377,3.666-1.787,6.862-4.324,9.587
				c-2.35,2.538-5.545,4.229-9.399,4.7c-3.384,0.47-7.05,0-10.339-1.598c-3.008-1.41-5.828-3.76-7.52-7.049
				c-0.564-1.034-0.846-1.786-1.223-2.82c-0.281-0.846-0.47-1.88-0.658-3.102l9.494-1.316c0.094,0.658,0.281,1.128,0.375,1.41
				c0.095,0.282,0.189,0.752,0.471,1.222c0.846,1.41,1.88,2.444,3.195,3.008c1.598,0.752,3.385,1.034,4.982,0.752
				c1.504-0.282,2.631-0.846,3.666-1.88c0.939-0.939,1.504-2.162,1.691-3.666c0-1.034-0.094-1.88-0.471-2.726
				c-0.375-0.846-0.939-1.786-2.066-2.443c-0.564-0.658-1.316-0.94-1.975-1.222c-1.033-0.376-1.88-0.658-2.914-0.94
				c-1.41-0.282-2.726-0.752-3.947-1.222c-1.598-0.564-3.008-1.504-4.512-2.632c-2.068-1.692-3.385-3.478-4.418-5.64
				c-1.033-2.35-1.504-4.7-1.316-7.05c0.283-3.29,1.787-6.485,4.137-9.023c2.256-2.256,5.17-3.948,8.835-4.418
				c3.29-0.47,6.673,0.094,9.681,1.504c2.914,1.41,5.264,3.572,7.051,6.674L123.505,21.939z M123.505,21.939l8.46-4.605
				L123.505,21.939z"/>
		</g>
		<g id="B">
			<path fill="#E98086" stroke="#020202" d="M70.895,46.923v0.094h5.545c4.137,0,7.802,1.598,10.715,4.418
				c2.727,2.726,4.418,6.485,4.418,10.715c0,3.759-1.41,7.238-3.76,9.964l0.377,0.281c2.914,2.914,4.699,6.955,4.699,11.373
				s-1.785,8.365-4.699,11.279s-6.956,4.699-11.373,4.699h-5.922v0.096h-9.588v-52.92H70.895z M70.895,46.923h-9.588H70.895z
				 M70.895,56.605v10.998h5.545c1.598,0,2.914-0.564,3.854-1.598c1.035-0.941,1.598-2.257,1.598-3.855s-0.562-2.914-1.598-3.948
				c-1.033-1.034-2.35-1.598-3.854-1.598H70.895z M70.895,77.378v12.783h5.922c1.785,0,3.383-0.752,4.512-1.881
				c1.127-1.221,1.879-2.725,1.879-4.512c0-1.785-0.752-3.383-1.879-4.512c-1.129-1.221-2.633-1.879-4.512-1.879H70.895z"/>
			<path fill="#E38E88" stroke="#020202" d="M70.895,39.923v0.094h5.545c4.137,0,7.802,1.598,10.715,4.418
				c2.727,2.726,4.418,6.485,4.418,10.715c0,3.76-1.41,7.238-3.76,9.963l0.377,0.282c2.914,2.914,4.699,6.955,4.699,11.373
				s-1.785,8.365-4.699,11.279s-6.956,4.699-11.373,4.699h-5.922v0.096h-9.588v-52.92H70.895z M70.895,39.923h-9.588H70.895z
				 M70.895,49.605v10.997h5.545c1.598,0,2.914-0.564,3.854-1.598c1.035-0.94,1.598-2.256,1.598-3.854s-0.562-2.914-1.598-3.948
				c-1.033-1.034-2.35-1.598-3.854-1.598H70.895z M70.895,70.378v12.783h5.922c1.785,0,3.383-0.752,4.512-1.881
				c1.127-1.221,1.879-2.725,1.879-4.512c0-1.785-0.752-3.383-1.879-4.512c-1.129-1.221-2.633-1.879-4.512-1.879H70.895z"/>
			<path fill="#E09454" stroke="#020202" d="M70.895,31.927v0.094h5.545c4.137,0,7.802,1.598,10.715,4.418
				c2.727,2.726,4.418,6.485,4.418,10.715c0,3.76-1.41,7.238-3.76,9.963l0.377,0.282c2.914,2.914,4.699,6.955,4.699,11.373
				s-1.785,8.365-4.699,11.279s-6.956,4.699-11.373,4.699h-5.922v0.096h-9.588v-52.92H70.895z M70.895,31.927h-9.588H70.895z
				 M70.895,41.609v10.997h5.545c1.598,0,2.914-0.564,3.854-1.598c1.035-0.94,1.598-2.256,1.598-3.854s-0.562-2.914-1.598-3.948
				c-1.033-1.034-2.35-1.598-3.854-1.598H70.895z M70.895,62.381v12.784h5.922c1.785,0,3.383-0.752,4.512-1.881
				c1.127-1.221,1.879-2.725,1.879-4.512c0-1.785-0.752-3.383-1.879-4.512c-1.129-1.222-2.633-1.88-4.512-1.88H70.895z"/>
			<path fill="#DFB369" stroke="#020202" d="M70.895,24.431v0.094h5.545c4.137,0,7.802,1.598,10.715,4.417
				c2.727,2.726,4.418,6.486,4.418,10.715c0,3.76-1.41,7.237-3.76,9.963l0.377,0.282c2.914,2.914,4.699,6.956,4.699,11.374
				c0,4.418-1.785,8.365-4.699,11.279s-6.956,4.699-11.373,4.699h-5.922v0.094h-9.588V24.431H70.895z M70.895,24.431h-9.588H70.895z
				 M70.895,34.112V45.11h5.545c1.598,0,2.914-0.564,3.854-1.598c1.035-0.939,1.598-2.256,1.598-3.854s-0.562-2.914-1.598-3.948
				c-1.033-1.034-2.35-1.598-3.854-1.598H70.895z M70.895,54.885v12.784h5.922c1.785,0,3.383-0.752,4.512-1.881
				c1.127-1.223,1.879-2.727,1.879-4.512c0-1.786-0.752-3.384-1.879-4.512c-1.129-1.222-2.633-1.88-4.512-1.88H70.895z"/>
			<path fill="#F3CD7A" stroke="#020202" d="M70.895,16.934v0.094h5.545c4.137,0,7.802,1.598,10.715,4.418
				c2.727,2.726,4.418,6.485,4.418,10.715c0,3.76-1.41,7.238-3.76,9.963l0.377,0.282c2.914,2.914,4.699,6.955,4.699,11.373
				s-1.785,8.365-4.699,11.279c-2.914,2.915-6.956,4.7-11.373,4.7h-5.922v0.094h-9.588V16.934H70.895z M70.895,16.934h-9.588H70.895
				z M70.895,26.616v10.997h5.545c1.598,0,2.914-0.564,3.854-1.598c1.035-0.94,1.598-2.256,1.598-3.854s-0.562-2.914-1.598-3.948
				c-1.033-1.034-2.35-1.598-3.854-1.598H70.895z M70.895,47.388v12.783h5.922c1.785,0,3.383-0.752,4.512-1.88
				c1.127-1.222,1.879-2.726,1.879-4.512s-0.752-3.384-1.879-4.512c-1.129-1.222-2.633-1.88-4.512-1.88H70.895z"/>
			<path fill="#FFF557" stroke="#020202" d="M70.895,9.062v0.094h5.545c4.137,0,7.802,1.598,10.715,4.418
				c2.727,2.726,4.418,6.485,4.418,10.715c0,3.76-1.41,7.238-3.76,9.963l0.377,0.282c2.914,2.914,4.699,6.955,4.699,11.373
				s-1.785,8.365-4.699,11.279s-6.956,4.7-11.373,4.7h-5.922v0.094h-9.588V9.062H70.895z M70.895,9.062h-9.588H70.895z
				 M70.895,18.744v10.997h5.545c1.598,0,2.914-0.564,3.854-1.598c1.035-0.94,1.598-2.256,1.598-3.854s-0.562-2.914-1.598-3.948
				c-1.033-1.034-2.35-1.598-3.854-1.598H70.895z M70.895,39.517V52.3h5.922c1.785,0,3.383-0.752,4.512-1.88
				c1.127-1.222,1.879-2.726,1.879-4.512s-0.752-3.384-1.879-4.512c-1.129-1.222-2.633-1.88-4.512-1.88H70.895z"/>
		</g>
		<g id="A">
			<path fill="#E98086" stroke="#020202" d="M38.791,87.812H20.182l-5.641,12.031H4.014l20.773-43.99l4.323-9.118l4.417,9.023
				L55.24,99.843H44.713L38.791,87.812z M24.504,78.789h9.775l-4.98-10.246L24.504,78.789z M29.299,68.542l-4.795,10.246
				L29.299,68.542z"/>
			<path fill="#E38E88" stroke="#020202" d="M38.791,80.812H20.182l-5.641,12.031H4.014l20.773-43.99l4.323-9.118l4.417,9.023
				L55.24,92.843H44.713L38.791,80.812z M24.504,71.789h9.775l-4.98-10.247L24.504,71.789z M29.299,61.542l-4.795,10.247
				L29.299,61.542z"/>
			<path fill="#E09454" stroke="#020202" d="M38.791,72.816H20.182l-5.641,12.031H4.014l20.773-43.99l4.323-9.118l4.417,9.023
				L55.24,84.847H44.713L38.791,72.816z M24.504,63.792h9.775l-4.98-10.246L24.504,63.792z M29.299,53.546l-4.795,10.246
				L29.299,53.546z"/>
			<path fill="#DFB369" stroke="#020202" d="M38.791,65.318H20.182l-5.641,12.031H4.014L24.787,33.36l4.323-9.117l4.417,9.023
				L55.24,77.349H44.713L38.791,65.318z M24.504,56.295h9.775l-4.98-10.245L24.504,56.295z M29.299,46.05l-4.795,10.245
				L29.299,46.05z"/>
			<path fill="#F3CD7A" stroke="#020202" d="M38.791,57.822H20.182l-5.641,12.031H4.014l20.773-43.989l4.323-9.118l4.417,9.023
				L55.24,69.853H44.713L38.791,57.822z M24.504,48.798h9.775l-4.98-10.246L24.504,48.798z M29.299,38.553l-4.795,10.246
				L29.299,38.553z"/>
			<path fill="#FFF557" stroke="#020202" d="M38.791,49.95H20.182l-5.641,12.031H4.014l20.773-43.989l4.323-9.118l4.417,9.023
				L55.24,61.981H44.713L38.791,49.95z M24.504,40.927h9.775l-4.98-10.246L24.504,40.927z M29.299,30.681l-4.795,10.246
				L29.299,30.681z"/>
		</g>
	</g>
</g>
</svg>
